%TF.GenerationSoftware,KiCad,Pcbnew,5.1.5-1.fc31*%
%TF.CreationDate,2020-02-21T03:53:33+01:00*%
%TF.ProjectId,board-1,626f6172-642d-4312-9e6b-696361645f70,1.0*%
%TF.SameCoordinates,PX5e78920PY6d01460*%
%TF.FileFunction,Other,Fab,Top*%
%FSLAX46Y46*%
G04 Gerber Fmt 4.6, Leading zero omitted, Abs format (unit mm)*
G04 Created by KiCad (PCBNEW 5.1.5-1.fc31) date 2020-02-21 03:53:33*
%MOMM*%
%LPD*%
G04 APERTURE LIST*
%ADD10C,0.150000*%
G04 APERTURE END LIST*
D10*
X19201428Y-1722380D02*
X18630000Y-1722380D01*
X18915714Y-1722380D02*
X18915714Y-722380D01*
X18820476Y-865238D01*
X18725238Y-960476D01*
X18630000Y-1008095D01*
X19677619Y-1722380D02*
X19868095Y-1722380D01*
X19963333Y-1674761D01*
X20010952Y-1627142D01*
X20106190Y-1484285D01*
X20153809Y-1293809D01*
X20153809Y-912857D01*
X20106190Y-817619D01*
X20058571Y-770000D01*
X19963333Y-722380D01*
X19772857Y-722380D01*
X19677619Y-770000D01*
X19630000Y-817619D01*
X19582380Y-912857D01*
X19582380Y-1150952D01*
X19630000Y-1246190D01*
X19677619Y-1293809D01*
X19772857Y-1341428D01*
X19963333Y-1341428D01*
X20058571Y-1293809D01*
X20106190Y-1246190D01*
X20153809Y-1150952D01*
X20487142Y-1722380D02*
X21010952Y-1055714D01*
X20487142Y-1055714D02*
X21010952Y-1722380D01*
X21344285Y-817619D02*
X21391904Y-770000D01*
X21487142Y-722380D01*
X21725238Y-722380D01*
X21820476Y-770000D01*
X21868095Y-817619D01*
X21915714Y-912857D01*
X21915714Y-1008095D01*
X21868095Y-1150952D01*
X21296666Y-1722380D01*
X21915714Y-1722380D01*
X22249047Y-722380D02*
X22868095Y-722380D01*
X22534761Y-1103333D01*
X22677619Y-1103333D01*
X22772857Y-1150952D01*
X22820476Y-1198571D01*
X22868095Y-1293809D01*
X22868095Y-1531904D01*
X22820476Y-1627142D01*
X22772857Y-1674761D01*
X22677619Y-1722380D01*
X22391904Y-1722380D01*
X22296666Y-1674761D01*
X22249047Y-1627142D01*
X23058571Y-1817619D02*
X23820476Y-1817619D01*
X24010952Y-817619D02*
X24058571Y-770000D01*
X24153809Y-722380D01*
X24391904Y-722380D01*
X24487142Y-770000D01*
X24534761Y-817619D01*
X24582380Y-912857D01*
X24582380Y-1008095D01*
X24534761Y-1150952D01*
X23963333Y-1722380D01*
X24582380Y-1722380D01*
X25010952Y-1627142D02*
X25058571Y-1674761D01*
X25010952Y-1722380D01*
X24963333Y-1674761D01*
X25010952Y-1627142D01*
X25010952Y-1722380D01*
X25963333Y-722380D02*
X25487142Y-722380D01*
X25439523Y-1198571D01*
X25487142Y-1150952D01*
X25582380Y-1103333D01*
X25820476Y-1103333D01*
X25915714Y-1150952D01*
X25963333Y-1198571D01*
X26010952Y-1293809D01*
X26010952Y-1531904D01*
X25963333Y-1627142D01*
X25915714Y-1674761D01*
X25820476Y-1722380D01*
X25582380Y-1722380D01*
X25487142Y-1674761D01*
X25439523Y-1627142D01*
X26868095Y-1055714D02*
X26868095Y-1722380D01*
X26630000Y-674761D02*
X26391904Y-1389047D01*
X27010952Y-1389047D01*
X27391904Y-1722380D02*
X27391904Y-1055714D01*
X27391904Y-1150952D02*
X27439523Y-1103333D01*
X27534761Y-1055714D01*
X27677619Y-1055714D01*
X27772857Y-1103333D01*
X27820476Y-1198571D01*
X27820476Y-1722380D01*
X27820476Y-1198571D02*
X27868095Y-1103333D01*
X27963333Y-1055714D01*
X28106190Y-1055714D01*
X28201428Y-1103333D01*
X28249047Y-1198571D01*
X28249047Y-1722380D01*
X28725238Y-1722380D02*
X28725238Y-1055714D01*
X28725238Y-1150952D02*
X28772857Y-1103333D01*
X28868095Y-1055714D01*
X29010952Y-1055714D01*
X29106190Y-1103333D01*
X29153809Y-1198571D01*
X29153809Y-1722380D01*
X29153809Y-1198571D02*
X29201428Y-1103333D01*
X29296666Y-1055714D01*
X29439523Y-1055714D01*
X29534761Y-1103333D01*
X29582380Y-1198571D01*
X29582380Y-1722380D01*
M02*
