%TF.GenerationSoftware,KiCad,Pcbnew,5.1.4-3.fc31*%
%TF.CreationDate,2019-11-27T18:42:09+01:00*%
%TF.ProjectId,SSOP-28_3.9x9.9mm_P0.635,53534f50-2d32-4385-9f33-2e3978392e39,1.0*%
%TF.SameCoordinates,Original*%
%TF.FileFunction,Copper,L1,Top*%
%TF.FilePolarity,Positive*%
%FSLAX46Y46*%
G04 Gerber Fmt 4.6, Leading zero omitted, Abs format (unit mm)*
G04 Created by KiCad (PCBNEW 5.1.4-3.fc31) date 2019-11-27 18:42:09*
%MOMM*%
%LPD*%
G04 APERTURE LIST*
%TA.AperFunction,ComponentPad*%
%ADD10R,1.700000X1.700000*%
%TD*%
%TA.AperFunction,ComponentPad*%
%ADD11O,1.700000X1.700000*%
%TD*%
%TA.AperFunction,SMDPad,CuDef*%
%ADD12R,1.200000X0.400000*%
%TD*%
%TA.AperFunction,Conductor*%
%ADD13C,0.350000*%
%TD*%
G04 APERTURE END LIST*
D10*
%TO.P,J1,1*%
%TO.N,Net-(J1-Pad1)*%
X124460000Y-96520000D03*
D11*
%TO.P,J1,2*%
%TO.N,Net-(J1-Pad2)*%
X124460000Y-99060000D03*
%TO.P,J1,3*%
%TO.N,Net-(J1-Pad3)*%
X124460000Y-101600000D03*
%TO.P,J1,4*%
%TO.N,Net-(J1-Pad4)*%
X124460000Y-104140000D03*
%TO.P,J1,5*%
%TO.N,Net-(J1-Pad5)*%
X124460000Y-106680000D03*
%TO.P,J1,6*%
%TO.N,Net-(J1-Pad6)*%
X124460000Y-109220000D03*
%TO.P,J1,7*%
%TO.N,Net-(J1-Pad7)*%
X124460000Y-111760000D03*
%TO.P,J1,8*%
%TO.N,Net-(J1-Pad8)*%
X124460000Y-114300000D03*
%TO.P,J1,9*%
%TO.N,Net-(J1-Pad9)*%
X124460000Y-116840000D03*
%TO.P,J1,10*%
%TO.N,Net-(J1-Pad10)*%
X124460000Y-119380000D03*
%TO.P,J1,11*%
%TO.N,Net-(J1-Pad11)*%
X124460000Y-121920000D03*
%TO.P,J1,12*%
%TO.N,Net-(J1-Pad12)*%
X124460000Y-124460000D03*
%TO.P,J1,13*%
%TO.N,Net-(J1-Pad13)*%
X124460000Y-127000000D03*
%TO.P,J1,14*%
%TO.N,Net-(J1-Pad14)*%
X124460000Y-129540000D03*
%TD*%
%TO.P,J2,14*%
%TO.N,Net-(J2-Pad14)*%
X147320000Y-129540000D03*
%TO.P,J2,13*%
%TO.N,Net-(J2-Pad13)*%
X147320000Y-127000000D03*
%TO.P,J2,12*%
%TO.N,Net-(J2-Pad12)*%
X147320000Y-124460000D03*
%TO.P,J2,11*%
%TO.N,Net-(J2-Pad11)*%
X147320000Y-121920000D03*
%TO.P,J2,10*%
%TO.N,Net-(J2-Pad10)*%
X147320000Y-119380000D03*
%TO.P,J2,9*%
%TO.N,Net-(J2-Pad9)*%
X147320000Y-116840000D03*
%TO.P,J2,8*%
%TO.N,Net-(J2-Pad8)*%
X147320000Y-114300000D03*
%TO.P,J2,7*%
%TO.N,Net-(J2-Pad7)*%
X147320000Y-111760000D03*
%TO.P,J2,6*%
%TO.N,Net-(J2-Pad6)*%
X147320000Y-109220000D03*
%TO.P,J2,5*%
%TO.N,Net-(J2-Pad5)*%
X147320000Y-106680000D03*
%TO.P,J2,4*%
%TO.N,Net-(J2-Pad4)*%
X147320000Y-104140000D03*
%TO.P,J2,3*%
%TO.N,Net-(J2-Pad3)*%
X147320000Y-101600000D03*
%TO.P,J2,2*%
%TO.N,Net-(J2-Pad2)*%
X147320000Y-99060000D03*
D10*
%TO.P,J2,1*%
%TO.N,Net-(J2-Pad1)*%
X147320000Y-96520000D03*
%TD*%
D12*
%TO.P,U1,1*%
%TO.N,Net-(J1-Pad1)*%
X133290000Y-108902500D03*
%TO.P,U1,2*%
%TO.N,Net-(J1-Pad2)*%
X133290000Y-109537500D03*
%TO.P,U1,3*%
%TO.N,Net-(J1-Pad3)*%
X133290000Y-110172500D03*
%TO.P,U1,4*%
%TO.N,Net-(J1-Pad4)*%
X133290000Y-110807500D03*
%TO.P,U1,5*%
%TO.N,Net-(J1-Pad5)*%
X133290000Y-111442500D03*
%TO.P,U1,6*%
%TO.N,Net-(J1-Pad6)*%
X133290000Y-112077500D03*
%TO.P,U1,7*%
%TO.N,Net-(J1-Pad7)*%
X133290000Y-112712500D03*
%TO.P,U1,8*%
%TO.N,Net-(J1-Pad8)*%
X133290000Y-113347500D03*
%TO.P,U1,9*%
%TO.N,Net-(J1-Pad9)*%
X133290000Y-113982500D03*
%TO.P,U1,10*%
%TO.N,Net-(J1-Pad10)*%
X133290000Y-114617500D03*
%TO.P,U1,11*%
%TO.N,Net-(J1-Pad11)*%
X133290000Y-115252500D03*
%TO.P,U1,12*%
%TO.N,Net-(J1-Pad12)*%
X133290000Y-115887500D03*
%TO.P,U1,13*%
%TO.N,Net-(J1-Pad13)*%
X133290000Y-116522500D03*
%TO.P,U1,14*%
%TO.N,Net-(J1-Pad14)*%
X133290000Y-117157500D03*
%TO.P,U1,15*%
%TO.N,Net-(J2-Pad14)*%
X138490000Y-117157500D03*
%TO.P,U1,16*%
%TO.N,Net-(J2-Pad13)*%
X138490000Y-116522500D03*
%TO.P,U1,17*%
%TO.N,Net-(J2-Pad12)*%
X138490000Y-115887500D03*
%TO.P,U1,18*%
%TO.N,Net-(J2-Pad11)*%
X138490000Y-115252500D03*
%TO.P,U1,19*%
%TO.N,Net-(J2-Pad10)*%
X138490000Y-114617500D03*
%TO.P,U1,20*%
%TO.N,Net-(J2-Pad9)*%
X138490000Y-113982500D03*
%TO.P,U1,21*%
%TO.N,Net-(J2-Pad8)*%
X138490000Y-113347500D03*
%TO.P,U1,22*%
%TO.N,Net-(J2-Pad7)*%
X138490000Y-112712500D03*
%TO.P,U1,23*%
%TO.N,Net-(J2-Pad6)*%
X138490000Y-112077500D03*
%TO.P,U1,24*%
%TO.N,Net-(J2-Pad5)*%
X138490000Y-111442500D03*
%TO.P,U1,25*%
%TO.N,Net-(J2-Pad4)*%
X138490000Y-110807500D03*
%TO.P,U1,26*%
%TO.N,Net-(J2-Pad3)*%
X138490000Y-110172500D03*
%TO.P,U1,27*%
%TO.N,Net-(J2-Pad2)*%
X138490000Y-109537500D03*
%TO.P,U1,28*%
%TO.N,Net-(J2-Pad1)*%
X138490000Y-108902500D03*
%TD*%
D13*
%TO.N,Net-(J1-Pad1)*%
X127000000Y-96520000D02*
X133290000Y-102810000D01*
X133290000Y-102810000D02*
X133290000Y-108902500D01*
X124460000Y-96520000D02*
X127000000Y-96520000D01*
%TO.N,Net-(J1-Pad2)*%
X132562100Y-109537500D02*
X132223100Y-109198500D01*
X132223100Y-109198500D02*
X132223100Y-104283100D01*
X133290000Y-109537500D02*
X132562100Y-109537500D01*
X132223100Y-104283100D02*
X127000000Y-99060000D01*
X126205100Y-99060000D02*
X124460000Y-99060000D01*
X127000000Y-99060000D02*
X126205100Y-99060000D01*
%TO.N,Net-(J1-Pad3)*%
X133290000Y-110172500D02*
X132314700Y-110172500D01*
X127000000Y-101600000D02*
X130056000Y-104656000D01*
X130056000Y-104656000D02*
X130056000Y-107913800D01*
X130056000Y-107913800D02*
X132314700Y-110172500D01*
X124460000Y-101600000D02*
X127000000Y-101600000D01*
%TO.N,Net-(J1-Pad4)*%
X132135400Y-110807500D02*
X133290000Y-110807500D01*
X126462300Y-104140000D02*
X127000000Y-104140000D01*
X124460000Y-104140000D02*
X126462300Y-104140000D01*
X132135400Y-110771030D02*
X129286000Y-107921630D01*
X132135400Y-110807500D02*
X132135400Y-110771030D01*
X129286000Y-106426000D02*
X127000000Y-104140000D01*
X129286000Y-107921630D02*
X129286000Y-106426000D01*
%TO.N,Net-(J1-Pad5)*%
X127000000Y-106680000D02*
X131762500Y-111442500D01*
X131762500Y-111442500D02*
X133290000Y-111442500D01*
X124460000Y-106680000D02*
X127000000Y-106680000D01*
%TO.N,Net-(J1-Pad6)*%
X127000000Y-109220000D02*
X129857500Y-112077500D01*
X129857500Y-112077500D02*
X133290000Y-112077500D01*
X124460000Y-109220000D02*
X127000000Y-109220000D01*
%TO.N,Net-(J1-Pad7)*%
X127000000Y-111760000D02*
X127952500Y-112712500D01*
X127952500Y-112712500D02*
X133290000Y-112712500D01*
X124460000Y-111760000D02*
X127000000Y-111760000D01*
%TO.N,Net-(J1-Pad8)*%
X127000000Y-114300000D02*
X127952500Y-113347500D01*
X127952500Y-113347500D02*
X133290000Y-113347500D01*
X124460000Y-114300000D02*
X127000000Y-114300000D01*
%TO.N,Net-(J1-Pad9)*%
X127000000Y-116840000D02*
X129857500Y-113982500D01*
X129857500Y-113982500D02*
X133290000Y-113982500D01*
X124460000Y-116840000D02*
X127000000Y-116840000D01*
%TO.N,Net-(J1-Pad10)*%
X128145990Y-118041610D02*
X131570100Y-114617500D01*
X128145990Y-118361010D02*
X128145990Y-118041610D01*
X131570100Y-114617500D02*
X133290000Y-114617500D01*
X127127000Y-119380000D02*
X128145990Y-118361010D01*
X124460000Y-119380000D02*
X127127000Y-119380000D01*
%TO.N,Net-(J1-Pad11)*%
X127000000Y-121920000D02*
X128696000Y-120224000D01*
X128696000Y-120224000D02*
X128696000Y-118351500D01*
X128696000Y-118351500D02*
X131795000Y-115252500D01*
X131795000Y-115252500D02*
X133290000Y-115252500D01*
X124460000Y-121920000D02*
X127000000Y-121920000D01*
%TO.N,Net-(J1-Pad12)*%
X130579200Y-117268800D02*
X131960500Y-115887500D01*
X130556000Y-120109100D02*
X130579200Y-120085900D01*
X131960500Y-115887500D02*
X133290000Y-115887500D01*
X130579200Y-120085900D02*
X130579200Y-117268800D01*
X130579200Y-121388800D02*
X130579200Y-120085900D01*
X124460000Y-124460000D02*
X127508000Y-124460000D01*
X127508000Y-124460000D02*
X130579200Y-121388800D01*
%TO.N,Net-(J1-Pad13)*%
X131129500Y-117558500D02*
X132165500Y-116522500D01*
X132165500Y-116522500D02*
X133290000Y-116522500D01*
X131129500Y-123378500D02*
X131129500Y-117558500D01*
X124460000Y-127000000D02*
X127508000Y-127000000D01*
X127508000Y-127000000D02*
X131129500Y-123378500D01*
%TO.N,Net-(J1-Pad14)*%
X133290000Y-117157500D02*
X132314700Y-117157500D01*
X127000000Y-129540000D02*
X132314700Y-124225300D01*
X132314700Y-124225300D02*
X132314700Y-117157500D01*
X124460000Y-129540000D02*
X127000000Y-129540000D01*
%TO.N,Net-(J2-Pad14)*%
X144780000Y-129540000D02*
X138490000Y-123250000D01*
X138490000Y-123250000D02*
X138490000Y-117157500D01*
X147320000Y-129540000D02*
X144780000Y-129540000D01*
%TO.N,Net-(J2-Pad13)*%
X139557100Y-116861700D02*
X139217900Y-116522500D01*
X139557100Y-122031100D02*
X139557100Y-116861700D01*
X139217900Y-116522500D02*
X138490000Y-116522500D01*
X147320000Y-127000000D02*
X144526000Y-127000000D01*
X144526000Y-127000000D02*
X139557100Y-122031100D01*
%TO.N,Net-(J2-Pad12)*%
X138490000Y-115887500D02*
X139465300Y-115887500D01*
X144780000Y-124460000D02*
X141724200Y-121404200D01*
X141724200Y-121404200D02*
X141724200Y-118146400D01*
X141724200Y-118146400D02*
X139465300Y-115887500D01*
X147320000Y-124460000D02*
X144780000Y-124460000D01*
%TO.N,Net-(J2-Pad11)*%
X139644600Y-115252500D02*
X138490000Y-115252500D01*
X142274210Y-117882110D02*
X139644600Y-115252500D01*
X142274210Y-119668210D02*
X142274210Y-117882110D01*
X147320000Y-121920000D02*
X144526000Y-121920000D01*
X144526000Y-121920000D02*
X142274210Y-119668210D01*
%TO.N,Net-(J2-Pad10)*%
X144780000Y-119380000D02*
X140017500Y-114617500D01*
X140017500Y-114617500D02*
X138490000Y-114617500D01*
X147320000Y-119380000D02*
X144780000Y-119380000D01*
%TO.N,Net-(J2-Pad9)*%
X144780000Y-116840000D02*
X141922500Y-113982500D01*
X141922500Y-113982500D02*
X138490000Y-113982500D01*
X147320000Y-116840000D02*
X144780000Y-116840000D01*
%TO.N,Net-(J2-Pad8)*%
X144780000Y-114300000D02*
X143827500Y-113347500D01*
X143827500Y-113347500D02*
X138490000Y-113347500D01*
X147320000Y-114300000D02*
X144780000Y-114300000D01*
%TO.N,Net-(J2-Pad7)*%
X144780000Y-111760000D02*
X143827500Y-112712500D01*
X143827500Y-112712500D02*
X138490000Y-112712500D01*
X147320000Y-111760000D02*
X144780000Y-111760000D01*
%TO.N,Net-(J2-Pad6)*%
X144780000Y-109220000D02*
X141922500Y-112077500D01*
X141922500Y-112077500D02*
X138490000Y-112077500D01*
X147320000Y-109220000D02*
X144780000Y-109220000D01*
%TO.N,Net-(J2-Pad5)*%
X140812500Y-111442500D02*
X138490000Y-111442500D01*
X143256000Y-108999000D02*
X140812500Y-111442500D01*
X143256000Y-107442000D02*
X143256000Y-108999000D01*
X147320000Y-106680000D02*
X144018000Y-106680000D01*
X144018000Y-106680000D02*
X143256000Y-107442000D01*
%TO.N,Net-(J2-Pad4)*%
X144780000Y-104140000D02*
X142631100Y-106288900D01*
X142631100Y-106288900D02*
X142631100Y-108141000D01*
X142631100Y-108141000D02*
X139964600Y-110807500D01*
X139964600Y-110807500D02*
X138490000Y-110807500D01*
X147320000Y-104140000D02*
X144780000Y-104140000D01*
%TO.N,Net-(J2-Pad3)*%
X139819500Y-110172500D02*
X138490000Y-110172500D01*
X141805700Y-103050300D02*
X141805700Y-108186300D01*
X141805700Y-108186300D02*
X139819500Y-110172500D01*
X147320000Y-101600000D02*
X143256000Y-101600000D01*
X143256000Y-101600000D02*
X141805700Y-103050300D01*
%TO.N,Net-(J2-Pad2)*%
X139614500Y-109537500D02*
X140948400Y-108203600D01*
X140948400Y-102891600D02*
X144780000Y-99060000D01*
X138490000Y-109537500D02*
X139614500Y-109537500D01*
X145575000Y-99060000D02*
X147320000Y-99060000D01*
X140948400Y-108203600D02*
X140948400Y-102891600D01*
X144780000Y-99060000D02*
X145575000Y-99060000D01*
%TO.N,Net-(J2-Pad1)*%
X138490000Y-108902500D02*
X139465300Y-108902500D01*
X144780000Y-96520000D02*
X139465300Y-101834700D01*
X139465300Y-101834700D02*
X139465300Y-108902500D01*
X147320000Y-96520000D02*
X144780000Y-96520000D01*
%TD*%
M02*
