%TF.GenerationSoftware,KiCad,Pcbnew,5.1.4-3.fc31*%
%TF.CreationDate,2019-11-27T18:42:09+01:00*%
%TF.ProjectId,SSOP-28_3.9x9.9mm_P0.635,53534f50-2d32-4385-9f33-2e3978392e39,1.0*%
%TF.SameCoordinates,Original*%
%TF.FileFunction,Legend,Bot*%
%TF.FilePolarity,Positive*%
%FSLAX46Y46*%
G04 Gerber Fmt 4.6, Leading zero omitted, Abs format (unit mm)*
G04 Created by KiCad (PCBNEW 5.1.4-3.fc31) date 2019-11-27 18:42:09*
%MOMM*%
%LPD*%
G04 APERTURE LIST*
%ADD10C,0.120000*%
%ADD11C,0.150000*%
%ADD12R,1.802000X1.802000*%
%ADD13O,1.802000X1.802000*%
G04 APERTURE END LIST*
D10*
%TO.C,J1*%
X125790000Y-130870000D02*
X123130000Y-130870000D01*
X125790000Y-97790000D02*
X125790000Y-130870000D01*
X123130000Y-97790000D02*
X123130000Y-130870000D01*
X125790000Y-97790000D02*
X123130000Y-97790000D01*
X125790000Y-96520000D02*
X125790000Y-95190000D01*
X125790000Y-95190000D02*
X124460000Y-95190000D01*
%TO.C,J2*%
X148650000Y-95190000D02*
X147320000Y-95190000D01*
X148650000Y-96520000D02*
X148650000Y-95190000D01*
X148650000Y-97790000D02*
X145990000Y-97790000D01*
X145990000Y-97790000D02*
X145990000Y-130870000D01*
X148650000Y-97790000D02*
X148650000Y-130870000D01*
X148650000Y-130870000D02*
X145990000Y-130870000D01*
%TO.C,J1*%
D11*
X127333333Y-98639380D02*
X127333333Y-99353666D01*
X127380952Y-99496523D01*
X127476190Y-99591761D01*
X127619047Y-99639380D01*
X127714285Y-99639380D01*
X126333333Y-99639380D02*
X126904761Y-99639380D01*
X126619047Y-99639380D02*
X126619047Y-98639380D01*
X126714285Y-98782238D01*
X126809523Y-98877476D01*
X126904761Y-98925095D01*
%TO.C,J2*%
X145113333Y-98512380D02*
X145113333Y-99226666D01*
X145160952Y-99369523D01*
X145256190Y-99464761D01*
X145399047Y-99512380D01*
X145494285Y-99512380D01*
X144684761Y-98607619D02*
X144637142Y-98560000D01*
X144541904Y-98512380D01*
X144303809Y-98512380D01*
X144208571Y-98560000D01*
X144160952Y-98607619D01*
X144113333Y-98702857D01*
X144113333Y-98798095D01*
X144160952Y-98940952D01*
X144732380Y-99512380D01*
X144113333Y-99512380D01*
%TD*%
%LPC*%
D12*
%TO.C,J1*%
X124460000Y-96520000D03*
D13*
X124460000Y-99060000D03*
X124460000Y-101600000D03*
X124460000Y-104140000D03*
X124460000Y-106680000D03*
X124460000Y-109220000D03*
X124460000Y-111760000D03*
X124460000Y-114300000D03*
X124460000Y-116840000D03*
X124460000Y-119380000D03*
X124460000Y-121920000D03*
X124460000Y-124460000D03*
X124460000Y-127000000D03*
X124460000Y-129540000D03*
%TD*%
%TO.C,J2*%
X147320000Y-129540000D03*
X147320000Y-127000000D03*
X147320000Y-124460000D03*
X147320000Y-121920000D03*
X147320000Y-119380000D03*
X147320000Y-116840000D03*
X147320000Y-114300000D03*
X147320000Y-111760000D03*
X147320000Y-109220000D03*
X147320000Y-106680000D03*
X147320000Y-104140000D03*
X147320000Y-101600000D03*
X147320000Y-99060000D03*
D12*
X147320000Y-96520000D03*
%TD*%
M02*
