%TF.GenerationSoftware,KiCad,Pcbnew,5.1.4-3.fc31*%
%TF.CreationDate,2019-11-27T18:42:09+01:00*%
%TF.ProjectId,SSOP-28_3.9x9.9mm_P0.635,53534f50-2d32-4385-9f33-2e3978392e39,1.0*%
%TF.SameCoordinates,Original*%
%TF.FileFunction,Legend,Top*%
%TF.FilePolarity,Positive*%
%FSLAX46Y46*%
G04 Gerber Fmt 4.6, Leading zero omitted, Abs format (unit mm)*
G04 Created by KiCad (PCBNEW 5.1.4-3.fc31) date 2019-11-27 18:42:09*
%MOMM*%
%LPD*%
G04 APERTURE LIST*
%ADD10C,0.150000*%
%ADD11R,1.802000X1.802000*%
%ADD12O,1.802000X1.802000*%
%ADD13R,1.302000X0.502000*%
G04 APERTURE END LIST*
D10*
X144018095Y-96067619D02*
X144065714Y-96020000D01*
X144160952Y-95972380D01*
X144399047Y-95972380D01*
X144494285Y-96020000D01*
X144541904Y-96067619D01*
X144589523Y-96162857D01*
X144589523Y-96258095D01*
X144541904Y-96400952D01*
X143970476Y-96972380D01*
X144589523Y-96972380D01*
X145160952Y-96400952D02*
X145065714Y-96353333D01*
X145018095Y-96305714D01*
X144970476Y-96210476D01*
X144970476Y-96162857D01*
X145018095Y-96067619D01*
X145065714Y-96020000D01*
X145160952Y-95972380D01*
X145351428Y-95972380D01*
X145446666Y-96020000D01*
X145494285Y-96067619D01*
X145541904Y-96162857D01*
X145541904Y-96210476D01*
X145494285Y-96305714D01*
X145446666Y-96353333D01*
X145351428Y-96400952D01*
X145160952Y-96400952D01*
X145065714Y-96448571D01*
X145018095Y-96496190D01*
X144970476Y-96591428D01*
X144970476Y-96781904D01*
X145018095Y-96877142D01*
X145065714Y-96924761D01*
X145160952Y-96972380D01*
X145351428Y-96972380D01*
X145446666Y-96924761D01*
X145494285Y-96877142D01*
X145541904Y-96781904D01*
X145541904Y-96591428D01*
X145494285Y-96496190D01*
X145446666Y-96448571D01*
X145351428Y-96400952D01*
X144589523Y-129992380D02*
X144018095Y-129992380D01*
X144303809Y-129992380D02*
X144303809Y-128992380D01*
X144208571Y-129135238D01*
X144113333Y-129230476D01*
X144018095Y-129278095D01*
X145494285Y-128992380D02*
X145018095Y-128992380D01*
X144970476Y-129468571D01*
X145018095Y-129420952D01*
X145113333Y-129373333D01*
X145351428Y-129373333D01*
X145446666Y-129420952D01*
X145494285Y-129468571D01*
X145541904Y-129563809D01*
X145541904Y-129801904D01*
X145494285Y-129897142D01*
X145446666Y-129944761D01*
X145351428Y-129992380D01*
X145113333Y-129992380D01*
X145018095Y-129944761D01*
X144970476Y-129897142D01*
X126809523Y-129992380D02*
X126238095Y-129992380D01*
X126523809Y-129992380D02*
X126523809Y-128992380D01*
X126428571Y-129135238D01*
X126333333Y-129230476D01*
X126238095Y-129278095D01*
X127666666Y-129325714D02*
X127666666Y-129992380D01*
X127428571Y-128944761D02*
X127190476Y-129659047D01*
X127809523Y-129659047D01*
X127285714Y-96972380D02*
X126714285Y-96972380D01*
X127000000Y-96972380D02*
X127000000Y-95972380D01*
X126904761Y-96115238D01*
X126809523Y-96210476D01*
X126714285Y-96258095D01*
X130175714Y-125865000D02*
X130080476Y-125817380D01*
X129937619Y-125817380D01*
X129794761Y-125865000D01*
X129699523Y-125960238D01*
X129651904Y-126055476D01*
X129604285Y-126245952D01*
X129604285Y-126388809D01*
X129651904Y-126579285D01*
X129699523Y-126674523D01*
X129794761Y-126769761D01*
X129937619Y-126817380D01*
X130032857Y-126817380D01*
X130175714Y-126769761D01*
X130223333Y-126722142D01*
X130223333Y-126388809D01*
X130032857Y-126388809D01*
X130651904Y-126817380D02*
X130651904Y-125817380D01*
X131223333Y-126817380D01*
X131223333Y-125817380D01*
X131699523Y-125817380D02*
X131699523Y-126626904D01*
X131747142Y-126722142D01*
X131794761Y-126769761D01*
X131890000Y-126817380D01*
X132080476Y-126817380D01*
X132175714Y-126769761D01*
X132223333Y-126722142D01*
X132270952Y-126626904D01*
X132270952Y-125817380D01*
X134032857Y-125865000D02*
X133937619Y-125817380D01*
X133794761Y-125817380D01*
X133651904Y-125865000D01*
X133556666Y-125960238D01*
X133509047Y-126055476D01*
X133461428Y-126245952D01*
X133461428Y-126388809D01*
X133509047Y-126579285D01*
X133556666Y-126674523D01*
X133651904Y-126769761D01*
X133794761Y-126817380D01*
X133890000Y-126817380D01*
X134032857Y-126769761D01*
X134080476Y-126722142D01*
X134080476Y-126388809D01*
X133890000Y-126388809D01*
X134509047Y-126817380D02*
X134509047Y-125817380D01*
X134890000Y-125817380D01*
X134985238Y-125865000D01*
X135032857Y-125912619D01*
X135080476Y-126007857D01*
X135080476Y-126150714D01*
X135032857Y-126245952D01*
X134985238Y-126293571D01*
X134890000Y-126341190D01*
X134509047Y-126341190D01*
X135985238Y-126817380D02*
X135509047Y-126817380D01*
X135509047Y-125817380D01*
X136223333Y-126150714D02*
X136461428Y-126817380D01*
X136699523Y-126150714D01*
X136985238Y-125817380D02*
X137604285Y-125817380D01*
X137270952Y-126198333D01*
X137413809Y-126198333D01*
X137509047Y-126245952D01*
X137556666Y-126293571D01*
X137604285Y-126388809D01*
X137604285Y-126626904D01*
X137556666Y-126722142D01*
X137509047Y-126769761D01*
X137413809Y-126817380D01*
X137128095Y-126817380D01*
X137032857Y-126769761D01*
X136985238Y-126722142D01*
X138747142Y-125912619D02*
X138794761Y-125865000D01*
X138890000Y-125817380D01*
X139128095Y-125817380D01*
X139223333Y-125865000D01*
X139270952Y-125912619D01*
X139318571Y-126007857D01*
X139318571Y-126103095D01*
X139270952Y-126245952D01*
X138699523Y-126817380D01*
X139318571Y-126817380D01*
X139937619Y-125817380D02*
X140032857Y-125817380D01*
X140128095Y-125865000D01*
X140175714Y-125912619D01*
X140223333Y-126007857D01*
X140270952Y-126198333D01*
X140270952Y-126436428D01*
X140223333Y-126626904D01*
X140175714Y-126722142D01*
X140128095Y-126769761D01*
X140032857Y-126817380D01*
X139937619Y-126817380D01*
X139842380Y-126769761D01*
X139794761Y-126722142D01*
X139747142Y-126626904D01*
X139699523Y-126436428D01*
X139699523Y-126198333D01*
X139747142Y-126007857D01*
X139794761Y-125912619D01*
X139842380Y-125865000D01*
X139937619Y-125817380D01*
X141223333Y-126817380D02*
X140651904Y-126817380D01*
X140937619Y-126817380D02*
X140937619Y-125817380D01*
X140842380Y-125960238D01*
X140747142Y-126055476D01*
X140651904Y-126103095D01*
X141699523Y-126817380D02*
X141890000Y-126817380D01*
X141985238Y-126769761D01*
X142032857Y-126722142D01*
X142128095Y-126579285D01*
X142175714Y-126388809D01*
X142175714Y-126007857D01*
X142128095Y-125912619D01*
X142080476Y-125865000D01*
X141985238Y-125817380D01*
X141794761Y-125817380D01*
X141699523Y-125865000D01*
X141651904Y-125912619D01*
X141604285Y-126007857D01*
X141604285Y-126245952D01*
X141651904Y-126341190D01*
X141699523Y-126388809D01*
X141794761Y-126436428D01*
X141985238Y-126436428D01*
X142080476Y-126388809D01*
X142128095Y-126341190D01*
X142175714Y-126245952D01*
X129104285Y-98497380D02*
X129104285Y-97497380D01*
X129485238Y-97497380D01*
X129580476Y-97545000D01*
X129628095Y-97592619D01*
X129675714Y-97687857D01*
X129675714Y-97830714D01*
X129628095Y-97925952D01*
X129580476Y-97973571D01*
X129485238Y-98021190D01*
X129104285Y-98021190D01*
X130675714Y-98497380D02*
X130342380Y-98021190D01*
X130104285Y-98497380D02*
X130104285Y-97497380D01*
X130485238Y-97497380D01*
X130580476Y-97545000D01*
X130628095Y-97592619D01*
X130675714Y-97687857D01*
X130675714Y-97830714D01*
X130628095Y-97925952D01*
X130580476Y-97973571D01*
X130485238Y-98021190D01*
X130104285Y-98021190D01*
X131294761Y-97497380D02*
X131485238Y-97497380D01*
X131580476Y-97545000D01*
X131675714Y-97640238D01*
X131723333Y-97830714D01*
X131723333Y-98164047D01*
X131675714Y-98354523D01*
X131580476Y-98449761D01*
X131485238Y-98497380D01*
X131294761Y-98497380D01*
X131199523Y-98449761D01*
X131104285Y-98354523D01*
X131056666Y-98164047D01*
X131056666Y-97830714D01*
X131104285Y-97640238D01*
X131199523Y-97545000D01*
X131294761Y-97497380D01*
X132009047Y-97497380D02*
X132580476Y-97497380D01*
X132294761Y-98497380D02*
X132294761Y-97497380D01*
X133104285Y-97497380D02*
X133294761Y-97497380D01*
X133390000Y-97545000D01*
X133485238Y-97640238D01*
X133532857Y-97830714D01*
X133532857Y-98164047D01*
X133485238Y-98354523D01*
X133390000Y-98449761D01*
X133294761Y-98497380D01*
X133104285Y-98497380D01*
X133009047Y-98449761D01*
X132913809Y-98354523D01*
X132866190Y-98164047D01*
X132866190Y-97830714D01*
X132913809Y-97640238D01*
X133009047Y-97545000D01*
X133104285Y-97497380D01*
X133818571Y-97497380D02*
X134390000Y-97497380D01*
X134104285Y-98497380D02*
X134104285Y-97497380D01*
X134913809Y-98021190D02*
X134913809Y-98497380D01*
X134580476Y-97497380D02*
X134913809Y-98021190D01*
X135247142Y-97497380D01*
X135580476Y-98497380D02*
X135580476Y-97497380D01*
X135961428Y-97497380D01*
X136056666Y-97545000D01*
X136104285Y-97592619D01*
X136151904Y-97687857D01*
X136151904Y-97830714D01*
X136104285Y-97925952D01*
X136056666Y-97973571D01*
X135961428Y-98021190D01*
X135580476Y-98021190D01*
X136580476Y-97973571D02*
X136913809Y-97973571D01*
X137056666Y-98497380D02*
X136580476Y-98497380D01*
X136580476Y-97497380D01*
X137056666Y-97497380D01*
X138580476Y-97973571D02*
X138723333Y-98021190D01*
X138770952Y-98068809D01*
X138818571Y-98164047D01*
X138818571Y-98306904D01*
X138770952Y-98402142D01*
X138723333Y-98449761D01*
X138628095Y-98497380D01*
X138247142Y-98497380D01*
X138247142Y-97497380D01*
X138580476Y-97497380D01*
X138675714Y-97545000D01*
X138723333Y-97592619D01*
X138770952Y-97687857D01*
X138770952Y-97783095D01*
X138723333Y-97878333D01*
X138675714Y-97925952D01*
X138580476Y-97973571D01*
X138247142Y-97973571D01*
X139437619Y-97497380D02*
X139628095Y-97497380D01*
X139723333Y-97545000D01*
X139818571Y-97640238D01*
X139866190Y-97830714D01*
X139866190Y-98164047D01*
X139818571Y-98354523D01*
X139723333Y-98449761D01*
X139628095Y-98497380D01*
X139437619Y-98497380D01*
X139342380Y-98449761D01*
X139247142Y-98354523D01*
X139199523Y-98164047D01*
X139199523Y-97830714D01*
X139247142Y-97640238D01*
X139342380Y-97545000D01*
X139437619Y-97497380D01*
X140247142Y-98211666D02*
X140723333Y-98211666D01*
X140151904Y-98497380D02*
X140485238Y-97497380D01*
X140818571Y-98497380D01*
X141723333Y-98497380D02*
X141390000Y-98021190D01*
X141151904Y-98497380D02*
X141151904Y-97497380D01*
X141532857Y-97497380D01*
X141628095Y-97545000D01*
X141675714Y-97592619D01*
X141723333Y-97687857D01*
X141723333Y-97830714D01*
X141675714Y-97925952D01*
X141628095Y-97973571D01*
X141532857Y-98021190D01*
X141151904Y-98021190D01*
X142151904Y-98497380D02*
X142151904Y-97497380D01*
X142390000Y-97497380D01*
X142532857Y-97545000D01*
X142628095Y-97640238D01*
X142675714Y-97735476D01*
X142723333Y-97925952D01*
X142723333Y-98068809D01*
X142675714Y-98259285D01*
X142628095Y-98354523D01*
X142532857Y-98449761D01*
X142390000Y-98497380D01*
X142151904Y-98497380D01*
X132247142Y-99623571D02*
X132390000Y-99671190D01*
X132437619Y-99718809D01*
X132485238Y-99814047D01*
X132485238Y-99956904D01*
X132437619Y-100052142D01*
X132390000Y-100099761D01*
X132294761Y-100147380D01*
X131913809Y-100147380D01*
X131913809Y-99147380D01*
X132247142Y-99147380D01*
X132342380Y-99195000D01*
X132390000Y-99242619D01*
X132437619Y-99337857D01*
X132437619Y-99433095D01*
X132390000Y-99528333D01*
X132342380Y-99575952D01*
X132247142Y-99623571D01*
X131913809Y-99623571D01*
X133104285Y-99671190D02*
X133104285Y-100147380D01*
X132770952Y-99147380D02*
X133104285Y-99671190D01*
X133437619Y-99147380D01*
X134485238Y-100099761D02*
X134628095Y-100147380D01*
X134866190Y-100147380D01*
X134961428Y-100099761D01*
X135009047Y-100052142D01*
X135056666Y-99956904D01*
X135056666Y-99861666D01*
X135009047Y-99766428D01*
X134961428Y-99718809D01*
X134866190Y-99671190D01*
X134675714Y-99623571D01*
X134580476Y-99575952D01*
X134532857Y-99528333D01*
X134485238Y-99433095D01*
X134485238Y-99337857D01*
X134532857Y-99242619D01*
X134580476Y-99195000D01*
X134675714Y-99147380D01*
X134913809Y-99147380D01*
X135056666Y-99195000D01*
X136151904Y-100242619D02*
X136056666Y-100195000D01*
X135961428Y-100099761D01*
X135818571Y-99956904D01*
X135723333Y-99909285D01*
X135628095Y-99909285D01*
X135675714Y-100147380D02*
X135580476Y-100099761D01*
X135485238Y-100004523D01*
X135437619Y-99814047D01*
X135437619Y-99480714D01*
X135485238Y-99290238D01*
X135580476Y-99195000D01*
X135675714Y-99147380D01*
X135866190Y-99147380D01*
X135961428Y-99195000D01*
X136056666Y-99290238D01*
X136104285Y-99480714D01*
X136104285Y-99814047D01*
X136056666Y-100004523D01*
X135961428Y-100099761D01*
X135866190Y-100147380D01*
X135675714Y-100147380D01*
X136437619Y-99147380D02*
X137104285Y-99147380D01*
X136675714Y-100147380D01*
X137485238Y-99623571D02*
X137818571Y-99623571D01*
X137961428Y-100147380D02*
X137485238Y-100147380D01*
X137485238Y-99147380D01*
X137961428Y-99147380D01*
X139056666Y-100242619D02*
X138961428Y-100195000D01*
X138866190Y-100099761D01*
X138723333Y-99956904D01*
X138628095Y-99909285D01*
X138532857Y-99909285D01*
X138580476Y-100147380D02*
X138485238Y-100099761D01*
X138390000Y-100004523D01*
X138342380Y-99814047D01*
X138342380Y-99480714D01*
X138390000Y-99290238D01*
X138485238Y-99195000D01*
X138580476Y-99147380D01*
X138770952Y-99147380D01*
X138866190Y-99195000D01*
X138961428Y-99290238D01*
X139009047Y-99480714D01*
X139009047Y-99814047D01*
X138961428Y-100004523D01*
X138866190Y-100099761D01*
X138770952Y-100147380D01*
X138580476Y-100147380D01*
X139437619Y-99623571D02*
X139770952Y-99623571D01*
X139913809Y-100147380D02*
X139437619Y-100147380D01*
X139437619Y-99147380D01*
X139913809Y-99147380D01*
X132532857Y-101749761D02*
X132675714Y-101797380D01*
X132913809Y-101797380D01*
X133009047Y-101749761D01*
X133056666Y-101702142D01*
X133104285Y-101606904D01*
X133104285Y-101511666D01*
X133056666Y-101416428D01*
X133009047Y-101368809D01*
X132913809Y-101321190D01*
X132723333Y-101273571D01*
X132628095Y-101225952D01*
X132580476Y-101178333D01*
X132532857Y-101083095D01*
X132532857Y-100987857D01*
X132580476Y-100892619D01*
X132628095Y-100845000D01*
X132723333Y-100797380D01*
X132961428Y-100797380D01*
X133104285Y-100845000D01*
X133485238Y-101749761D02*
X133628095Y-101797380D01*
X133866190Y-101797380D01*
X133961428Y-101749761D01*
X134009047Y-101702142D01*
X134056666Y-101606904D01*
X134056666Y-101511666D01*
X134009047Y-101416428D01*
X133961428Y-101368809D01*
X133866190Y-101321190D01*
X133675714Y-101273571D01*
X133580476Y-101225952D01*
X133532857Y-101178333D01*
X133485238Y-101083095D01*
X133485238Y-100987857D01*
X133532857Y-100892619D01*
X133580476Y-100845000D01*
X133675714Y-100797380D01*
X133913809Y-100797380D01*
X134056666Y-100845000D01*
X134675714Y-100797380D02*
X134866190Y-100797380D01*
X134961428Y-100845000D01*
X135056666Y-100940238D01*
X135104285Y-101130714D01*
X135104285Y-101464047D01*
X135056666Y-101654523D01*
X134961428Y-101749761D01*
X134866190Y-101797380D01*
X134675714Y-101797380D01*
X134580476Y-101749761D01*
X134485238Y-101654523D01*
X134437619Y-101464047D01*
X134437619Y-101130714D01*
X134485238Y-100940238D01*
X134580476Y-100845000D01*
X134675714Y-100797380D01*
X135532857Y-101797380D02*
X135532857Y-100797380D01*
X135913809Y-100797380D01*
X136009047Y-100845000D01*
X136056666Y-100892619D01*
X136104285Y-100987857D01*
X136104285Y-101130714D01*
X136056666Y-101225952D01*
X136009047Y-101273571D01*
X135913809Y-101321190D01*
X135532857Y-101321190D01*
X136532857Y-101416428D02*
X137294761Y-101416428D01*
X137723333Y-100892619D02*
X137770952Y-100845000D01*
X137866190Y-100797380D01*
X138104285Y-100797380D01*
X138199523Y-100845000D01*
X138247142Y-100892619D01*
X138294761Y-100987857D01*
X138294761Y-101083095D01*
X138247142Y-101225952D01*
X137675714Y-101797380D01*
X138294761Y-101797380D01*
X138866190Y-101225952D02*
X138770952Y-101178333D01*
X138723333Y-101130714D01*
X138675714Y-101035476D01*
X138675714Y-100987857D01*
X138723333Y-100892619D01*
X138770952Y-100845000D01*
X138866190Y-100797380D01*
X139056666Y-100797380D01*
X139151904Y-100845000D01*
X139199523Y-100892619D01*
X139247142Y-100987857D01*
X139247142Y-101035476D01*
X139199523Y-101130714D01*
X139151904Y-101178333D01*
X139056666Y-101225952D01*
X138866190Y-101225952D01*
X138770952Y-101273571D01*
X138723333Y-101321190D01*
X138675714Y-101416428D01*
X138675714Y-101606904D01*
X138723333Y-101702142D01*
X138770952Y-101749761D01*
X138866190Y-101797380D01*
X139056666Y-101797380D01*
X139151904Y-101749761D01*
X139199523Y-101702142D01*
X139247142Y-101606904D01*
X139247142Y-101416428D01*
X139199523Y-101321190D01*
X139151904Y-101273571D01*
X139056666Y-101225952D01*
%TO.C,U1*%
X133815000Y-107950000D02*
X133815000Y-108430000D01*
X137965000Y-107950000D02*
X137965000Y-108430000D01*
X137965000Y-118110000D02*
X137965000Y-117630000D01*
X133815000Y-118110000D02*
X133815000Y-117630000D01*
X133815000Y-107950000D02*
X137965000Y-107950000D01*
X133815000Y-118110000D02*
X137965000Y-118110000D01*
X133815000Y-108430000D02*
X132690000Y-108430000D01*
X135128095Y-106582380D02*
X135128095Y-107391904D01*
X135175714Y-107487142D01*
X135223333Y-107534761D01*
X135318571Y-107582380D01*
X135509047Y-107582380D01*
X135604285Y-107534761D01*
X135651904Y-107487142D01*
X135699523Y-107391904D01*
X135699523Y-106582380D01*
X136699523Y-107582380D02*
X136128095Y-107582380D01*
X136413809Y-107582380D02*
X136413809Y-106582380D01*
X136318571Y-106725238D01*
X136223333Y-106820476D01*
X136128095Y-106868095D01*
%TD*%
%LPC*%
D11*
%TO.C,J1*%
X124460000Y-96520000D03*
D12*
X124460000Y-99060000D03*
X124460000Y-101600000D03*
X124460000Y-104140000D03*
X124460000Y-106680000D03*
X124460000Y-109220000D03*
X124460000Y-111760000D03*
X124460000Y-114300000D03*
X124460000Y-116840000D03*
X124460000Y-119380000D03*
X124460000Y-121920000D03*
X124460000Y-124460000D03*
X124460000Y-127000000D03*
X124460000Y-129540000D03*
%TD*%
%TO.C,J2*%
X147320000Y-129540000D03*
X147320000Y-127000000D03*
X147320000Y-124460000D03*
X147320000Y-121920000D03*
X147320000Y-119380000D03*
X147320000Y-116840000D03*
X147320000Y-114300000D03*
X147320000Y-111760000D03*
X147320000Y-109220000D03*
X147320000Y-106680000D03*
X147320000Y-104140000D03*
X147320000Y-101600000D03*
X147320000Y-99060000D03*
D11*
X147320000Y-96520000D03*
%TD*%
D13*
%TO.C,U1*%
X133290000Y-108902500D03*
X133290000Y-109537500D03*
X133290000Y-110172500D03*
X133290000Y-110807500D03*
X133290000Y-111442500D03*
X133290000Y-112077500D03*
X133290000Y-112712500D03*
X133290000Y-113347500D03*
X133290000Y-113982500D03*
X133290000Y-114617500D03*
X133290000Y-115252500D03*
X133290000Y-115887500D03*
X133290000Y-116522500D03*
X133290000Y-117157500D03*
X138490000Y-117157500D03*
X138490000Y-116522500D03*
X138490000Y-115887500D03*
X138490000Y-115252500D03*
X138490000Y-114617500D03*
X138490000Y-113982500D03*
X138490000Y-113347500D03*
X138490000Y-112712500D03*
X138490000Y-112077500D03*
X138490000Y-111442500D03*
X138490000Y-110807500D03*
X138490000Y-110172500D03*
X138490000Y-109537500D03*
X138490000Y-108902500D03*
%TD*%
M02*
