%TF.GenerationSoftware,KiCad,Pcbnew,5.1.4-3.fc31*%
%TF.CreationDate,2019-11-27T18:42:09+01:00*%
%TF.ProjectId,SSOP-28_3.9x9.9mm_P0.635,53534f50-2d32-4385-9f33-2e3978392e39,1.0*%
%TF.SameCoordinates,Original*%
%TF.FileFunction,Other,Comment*%
%FSLAX46Y46*%
G04 Gerber Fmt 4.6, Leading zero omitted, Abs format (unit mm)*
G04 Created by KiCad (PCBNEW 5.1.4-3.fc31) date 2019-11-27 18:42:09*
%MOMM*%
%LPD*%
G04 APERTURE LIST*
%ADD10C,0.150000*%
G04 APERTURE END LIST*
D10*
X153152380Y-117220476D02*
X153152380Y-116601428D01*
X153533333Y-116934761D01*
X153533333Y-116791904D01*
X153580952Y-116696666D01*
X153628571Y-116649047D01*
X153723809Y-116601428D01*
X153961904Y-116601428D01*
X154057142Y-116649047D01*
X154104761Y-116696666D01*
X154152380Y-116791904D01*
X154152380Y-117077619D01*
X154104761Y-117172857D01*
X154057142Y-117220476D01*
X153152380Y-116268095D02*
X153152380Y-115649047D01*
X153533333Y-115982380D01*
X153533333Y-115839523D01*
X153580952Y-115744285D01*
X153628571Y-115696666D01*
X153723809Y-115649047D01*
X153961904Y-115649047D01*
X154057142Y-115696666D01*
X154104761Y-115744285D01*
X154152380Y-115839523D01*
X154152380Y-116125238D01*
X154104761Y-116220476D01*
X154057142Y-116268095D01*
X154104761Y-115172857D02*
X154152380Y-115172857D01*
X154247619Y-115220476D01*
X154295238Y-115268095D01*
X153152380Y-114553809D02*
X153152380Y-114458571D01*
X153200000Y-114363333D01*
X153247619Y-114315714D01*
X153342857Y-114268095D01*
X153533333Y-114220476D01*
X153771428Y-114220476D01*
X153961904Y-114268095D01*
X154057142Y-114315714D01*
X154104761Y-114363333D01*
X154152380Y-114458571D01*
X154152380Y-114553809D01*
X154104761Y-114649047D01*
X154057142Y-114696666D01*
X153961904Y-114744285D01*
X153771428Y-114791904D01*
X153533333Y-114791904D01*
X153342857Y-114744285D01*
X153247619Y-114696666D01*
X153200000Y-114649047D01*
X153152380Y-114553809D01*
X153247619Y-113839523D02*
X153200000Y-113791904D01*
X153152380Y-113696666D01*
X153152380Y-113458571D01*
X153200000Y-113363333D01*
X153247619Y-113315714D01*
X153342857Y-113268095D01*
X153438095Y-113268095D01*
X153580952Y-113315714D01*
X154152380Y-113887142D01*
X154152380Y-113268095D01*
X153152380Y-112649047D02*
X153152380Y-112553809D01*
X153200000Y-112458571D01*
X153247619Y-112410952D01*
X153342857Y-112363333D01*
X153533333Y-112315714D01*
X153771428Y-112315714D01*
X153961904Y-112363333D01*
X154057142Y-112410952D01*
X154104761Y-112458571D01*
X154152380Y-112553809D01*
X154152380Y-112649047D01*
X154104761Y-112744285D01*
X154057142Y-112791904D01*
X153961904Y-112839523D01*
X153771428Y-112887142D01*
X153533333Y-112887142D01*
X153342857Y-112839523D01*
X153247619Y-112791904D01*
X153200000Y-112744285D01*
X153152380Y-112649047D01*
X154152380Y-111125238D02*
X153485714Y-111125238D01*
X153580952Y-111125238D02*
X153533333Y-111077619D01*
X153485714Y-110982380D01*
X153485714Y-110839523D01*
X153533333Y-110744285D01*
X153628571Y-110696666D01*
X154152380Y-110696666D01*
X153628571Y-110696666D02*
X153533333Y-110649047D01*
X153485714Y-110553809D01*
X153485714Y-110410952D01*
X153533333Y-110315714D01*
X153628571Y-110268095D01*
X154152380Y-110268095D01*
X154152380Y-109791904D02*
X153485714Y-109791904D01*
X153580952Y-109791904D02*
X153533333Y-109744285D01*
X153485714Y-109649047D01*
X153485714Y-109506190D01*
X153533333Y-109410952D01*
X153628571Y-109363333D01*
X154152380Y-109363333D01*
X153628571Y-109363333D02*
X153533333Y-109315714D01*
X153485714Y-109220476D01*
X153485714Y-109077619D01*
X153533333Y-108982380D01*
X153628571Y-108934761D01*
X154152380Y-108934761D01*
X152400000Y-129540000D02*
X152400000Y-96520000D01*
X147320000Y-129540000D02*
X152986421Y-129540000D01*
X147320000Y-96520000D02*
X152986421Y-96520000D01*
X152400000Y-96520000D02*
X152986421Y-97646504D01*
X152400000Y-96520000D02*
X151813579Y-97646504D01*
X152400000Y-129540000D02*
X152986421Y-128413496D01*
X152400000Y-129540000D02*
X151813579Y-128413496D01*
X155692380Y-117220476D02*
X155692380Y-116601428D01*
X156073333Y-116934761D01*
X156073333Y-116791904D01*
X156120952Y-116696666D01*
X156168571Y-116649047D01*
X156263809Y-116601428D01*
X156501904Y-116601428D01*
X156597142Y-116649047D01*
X156644761Y-116696666D01*
X156692380Y-116791904D01*
X156692380Y-117077619D01*
X156644761Y-117172857D01*
X156597142Y-117220476D01*
X156120952Y-116030000D02*
X156073333Y-116125238D01*
X156025714Y-116172857D01*
X155930476Y-116220476D01*
X155882857Y-116220476D01*
X155787619Y-116172857D01*
X155740000Y-116125238D01*
X155692380Y-116030000D01*
X155692380Y-115839523D01*
X155740000Y-115744285D01*
X155787619Y-115696666D01*
X155882857Y-115649047D01*
X155930476Y-115649047D01*
X156025714Y-115696666D01*
X156073333Y-115744285D01*
X156120952Y-115839523D01*
X156120952Y-116030000D01*
X156168571Y-116125238D01*
X156216190Y-116172857D01*
X156311428Y-116220476D01*
X156501904Y-116220476D01*
X156597142Y-116172857D01*
X156644761Y-116125238D01*
X156692380Y-116030000D01*
X156692380Y-115839523D01*
X156644761Y-115744285D01*
X156597142Y-115696666D01*
X156501904Y-115649047D01*
X156311428Y-115649047D01*
X156216190Y-115696666D01*
X156168571Y-115744285D01*
X156120952Y-115839523D01*
X156644761Y-115172857D02*
X156692380Y-115172857D01*
X156787619Y-115220476D01*
X156835238Y-115268095D01*
X156692380Y-114220476D02*
X156692380Y-114791904D01*
X156692380Y-114506190D02*
X155692380Y-114506190D01*
X155835238Y-114601428D01*
X155930476Y-114696666D01*
X155978095Y-114791904D01*
X155692380Y-113601428D02*
X155692380Y-113506190D01*
X155740000Y-113410952D01*
X155787619Y-113363333D01*
X155882857Y-113315714D01*
X156073333Y-113268095D01*
X156311428Y-113268095D01*
X156501904Y-113315714D01*
X156597142Y-113363333D01*
X156644761Y-113410952D01*
X156692380Y-113506190D01*
X156692380Y-113601428D01*
X156644761Y-113696666D01*
X156597142Y-113744285D01*
X156501904Y-113791904D01*
X156311428Y-113839523D01*
X156073333Y-113839523D01*
X155882857Y-113791904D01*
X155787619Y-113744285D01*
X155740000Y-113696666D01*
X155692380Y-113601428D01*
X155692380Y-112649047D02*
X155692380Y-112553809D01*
X155740000Y-112458571D01*
X155787619Y-112410952D01*
X155882857Y-112363333D01*
X156073333Y-112315714D01*
X156311428Y-112315714D01*
X156501904Y-112363333D01*
X156597142Y-112410952D01*
X156644761Y-112458571D01*
X156692380Y-112553809D01*
X156692380Y-112649047D01*
X156644761Y-112744285D01*
X156597142Y-112791904D01*
X156501904Y-112839523D01*
X156311428Y-112887142D01*
X156073333Y-112887142D01*
X155882857Y-112839523D01*
X155787619Y-112791904D01*
X155740000Y-112744285D01*
X155692380Y-112649047D01*
X156692380Y-111125238D02*
X156025714Y-111125238D01*
X156120952Y-111125238D02*
X156073333Y-111077619D01*
X156025714Y-110982380D01*
X156025714Y-110839523D01*
X156073333Y-110744285D01*
X156168571Y-110696666D01*
X156692380Y-110696666D01*
X156168571Y-110696666D02*
X156073333Y-110649047D01*
X156025714Y-110553809D01*
X156025714Y-110410952D01*
X156073333Y-110315714D01*
X156168571Y-110268095D01*
X156692380Y-110268095D01*
X156692380Y-109791904D02*
X156025714Y-109791904D01*
X156120952Y-109791904D02*
X156073333Y-109744285D01*
X156025714Y-109649047D01*
X156025714Y-109506190D01*
X156073333Y-109410952D01*
X156168571Y-109363333D01*
X156692380Y-109363333D01*
X156168571Y-109363333D02*
X156073333Y-109315714D01*
X156025714Y-109220476D01*
X156025714Y-109077619D01*
X156073333Y-108982380D01*
X156168571Y-108934761D01*
X156692380Y-108934761D01*
X154940000Y-132080000D02*
X154940000Y-93980000D01*
X149860000Y-132080000D02*
X155526421Y-132080000D01*
X149860000Y-93980000D02*
X155526421Y-93980000D01*
X154940000Y-93980000D02*
X155526421Y-95106504D01*
X154940000Y-93980000D02*
X154353579Y-95106504D01*
X154940000Y-132080000D02*
X155526421Y-130953496D01*
X154940000Y-132080000D02*
X154353579Y-130953496D01*
X131747142Y-135467619D02*
X131794761Y-135420000D01*
X131890000Y-135372380D01*
X132128095Y-135372380D01*
X132223333Y-135420000D01*
X132270952Y-135467619D01*
X132318571Y-135562857D01*
X132318571Y-135658095D01*
X132270952Y-135800952D01*
X131699523Y-136372380D01*
X132318571Y-136372380D01*
X132699523Y-135467619D02*
X132747142Y-135420000D01*
X132842380Y-135372380D01*
X133080476Y-135372380D01*
X133175714Y-135420000D01*
X133223333Y-135467619D01*
X133270952Y-135562857D01*
X133270952Y-135658095D01*
X133223333Y-135800952D01*
X132651904Y-136372380D01*
X133270952Y-136372380D01*
X133747142Y-136324761D02*
X133747142Y-136372380D01*
X133699523Y-136467619D01*
X133651904Y-136515238D01*
X134318571Y-135800952D02*
X134223333Y-135753333D01*
X134175714Y-135705714D01*
X134128095Y-135610476D01*
X134128095Y-135562857D01*
X134175714Y-135467619D01*
X134223333Y-135420000D01*
X134318571Y-135372380D01*
X134509047Y-135372380D01*
X134604285Y-135420000D01*
X134651904Y-135467619D01*
X134699523Y-135562857D01*
X134699523Y-135610476D01*
X134651904Y-135705714D01*
X134604285Y-135753333D01*
X134509047Y-135800952D01*
X134318571Y-135800952D01*
X134223333Y-135848571D01*
X134175714Y-135896190D01*
X134128095Y-135991428D01*
X134128095Y-136181904D01*
X134175714Y-136277142D01*
X134223333Y-136324761D01*
X134318571Y-136372380D01*
X134509047Y-136372380D01*
X134604285Y-136324761D01*
X134651904Y-136277142D01*
X134699523Y-136181904D01*
X134699523Y-135991428D01*
X134651904Y-135896190D01*
X134604285Y-135848571D01*
X134509047Y-135800952D01*
X135556666Y-135372380D02*
X135366190Y-135372380D01*
X135270952Y-135420000D01*
X135223333Y-135467619D01*
X135128095Y-135610476D01*
X135080476Y-135800952D01*
X135080476Y-136181904D01*
X135128095Y-136277142D01*
X135175714Y-136324761D01*
X135270952Y-136372380D01*
X135461428Y-136372380D01*
X135556666Y-136324761D01*
X135604285Y-136277142D01*
X135651904Y-136181904D01*
X135651904Y-135943809D01*
X135604285Y-135848571D01*
X135556666Y-135800952D01*
X135461428Y-135753333D01*
X135270952Y-135753333D01*
X135175714Y-135800952D01*
X135128095Y-135848571D01*
X135080476Y-135943809D01*
X136270952Y-135372380D02*
X136366190Y-135372380D01*
X136461428Y-135420000D01*
X136509047Y-135467619D01*
X136556666Y-135562857D01*
X136604285Y-135753333D01*
X136604285Y-135991428D01*
X136556666Y-136181904D01*
X136509047Y-136277142D01*
X136461428Y-136324761D01*
X136366190Y-136372380D01*
X136270952Y-136372380D01*
X136175714Y-136324761D01*
X136128095Y-136277142D01*
X136080476Y-136181904D01*
X136032857Y-135991428D01*
X136032857Y-135753333D01*
X136080476Y-135562857D01*
X136128095Y-135467619D01*
X136175714Y-135420000D01*
X136270952Y-135372380D01*
X137794761Y-136372380D02*
X137794761Y-135705714D01*
X137794761Y-135800952D02*
X137842380Y-135753333D01*
X137937619Y-135705714D01*
X138080476Y-135705714D01*
X138175714Y-135753333D01*
X138223333Y-135848571D01*
X138223333Y-136372380D01*
X138223333Y-135848571D02*
X138270952Y-135753333D01*
X138366190Y-135705714D01*
X138509047Y-135705714D01*
X138604285Y-135753333D01*
X138651904Y-135848571D01*
X138651904Y-136372380D01*
X139128095Y-136372380D02*
X139128095Y-135705714D01*
X139128095Y-135800952D02*
X139175714Y-135753333D01*
X139270952Y-135705714D01*
X139413809Y-135705714D01*
X139509047Y-135753333D01*
X139556666Y-135848571D01*
X139556666Y-136372380D01*
X139556666Y-135848571D02*
X139604285Y-135753333D01*
X139699523Y-135705714D01*
X139842380Y-135705714D01*
X139937619Y-135753333D01*
X139985238Y-135848571D01*
X139985238Y-136372380D01*
X124460000Y-134620000D02*
X147320000Y-134620000D01*
X124460000Y-129540000D02*
X124460000Y-135206421D01*
X147320000Y-129540000D02*
X147320000Y-135206421D01*
X147320000Y-134620000D02*
X146193496Y-135206421D01*
X147320000Y-134620000D02*
X146193496Y-134033579D01*
X124460000Y-134620000D02*
X125586504Y-135206421D01*
X124460000Y-134620000D02*
X125586504Y-134033579D01*
X131747142Y-138007619D02*
X131794761Y-137960000D01*
X131890000Y-137912380D01*
X132128095Y-137912380D01*
X132223333Y-137960000D01*
X132270952Y-138007619D01*
X132318571Y-138102857D01*
X132318571Y-138198095D01*
X132270952Y-138340952D01*
X131699523Y-138912380D01*
X132318571Y-138912380D01*
X132651904Y-137912380D02*
X133318571Y-137912380D01*
X132890000Y-138912380D01*
X133747142Y-138864761D02*
X133747142Y-138912380D01*
X133699523Y-139007619D01*
X133651904Y-139055238D01*
X134223333Y-138912380D02*
X134413809Y-138912380D01*
X134509047Y-138864761D01*
X134556666Y-138817142D01*
X134651904Y-138674285D01*
X134699523Y-138483809D01*
X134699523Y-138102857D01*
X134651904Y-138007619D01*
X134604285Y-137960000D01*
X134509047Y-137912380D01*
X134318571Y-137912380D01*
X134223333Y-137960000D01*
X134175714Y-138007619D01*
X134128095Y-138102857D01*
X134128095Y-138340952D01*
X134175714Y-138436190D01*
X134223333Y-138483809D01*
X134318571Y-138531428D01*
X134509047Y-138531428D01*
X134604285Y-138483809D01*
X134651904Y-138436190D01*
X134699523Y-138340952D01*
X135556666Y-138245714D02*
X135556666Y-138912380D01*
X135318571Y-137864761D02*
X135080476Y-138579047D01*
X135699523Y-138579047D01*
X136270952Y-137912380D02*
X136366190Y-137912380D01*
X136461428Y-137960000D01*
X136509047Y-138007619D01*
X136556666Y-138102857D01*
X136604285Y-138293333D01*
X136604285Y-138531428D01*
X136556666Y-138721904D01*
X136509047Y-138817142D01*
X136461428Y-138864761D01*
X136366190Y-138912380D01*
X136270952Y-138912380D01*
X136175714Y-138864761D01*
X136128095Y-138817142D01*
X136080476Y-138721904D01*
X136032857Y-138531428D01*
X136032857Y-138293333D01*
X136080476Y-138102857D01*
X136128095Y-138007619D01*
X136175714Y-137960000D01*
X136270952Y-137912380D01*
X137794761Y-138912380D02*
X137794761Y-138245714D01*
X137794761Y-138340952D02*
X137842380Y-138293333D01*
X137937619Y-138245714D01*
X138080476Y-138245714D01*
X138175714Y-138293333D01*
X138223333Y-138388571D01*
X138223333Y-138912380D01*
X138223333Y-138388571D02*
X138270952Y-138293333D01*
X138366190Y-138245714D01*
X138509047Y-138245714D01*
X138604285Y-138293333D01*
X138651904Y-138388571D01*
X138651904Y-138912380D01*
X139128095Y-138912380D02*
X139128095Y-138245714D01*
X139128095Y-138340952D02*
X139175714Y-138293333D01*
X139270952Y-138245714D01*
X139413809Y-138245714D01*
X139509047Y-138293333D01*
X139556666Y-138388571D01*
X139556666Y-138912380D01*
X139556666Y-138388571D02*
X139604285Y-138293333D01*
X139699523Y-138245714D01*
X139842380Y-138245714D01*
X139937619Y-138293333D01*
X139985238Y-138388571D01*
X139985238Y-138912380D01*
X121920000Y-137160000D02*
X149860000Y-137160000D01*
X121920000Y-132080000D02*
X121920000Y-137746421D01*
X149860000Y-132080000D02*
X149860000Y-137746421D01*
X149860000Y-137160000D02*
X148733496Y-137746421D01*
X149860000Y-137160000D02*
X148733496Y-136573579D01*
X121920000Y-137160000D02*
X123046504Y-137746421D01*
X121920000Y-137160000D02*
X123046504Y-136573579D01*
M02*
