%TF.GenerationSoftware,KiCad,Pcbnew,5.1.4-3.fc31*%
%TF.CreationDate,2019-11-27T18:42:09+01:00*%
%TF.ProjectId,SSOP-28_3.9x9.9mm_P0.635,53534f50-2d32-4385-9f33-2e3978392e39,1.0*%
%TF.SameCoordinates,Original*%
%TF.FileFunction,Other,Fab,Top*%
%FSLAX46Y46*%
G04 Gerber Fmt 4.6, Leading zero omitted, Abs format (unit mm)*
G04 Created by KiCad (PCBNEW 5.1.4-3.fc31) date 2019-11-27 18:42:09*
%MOMM*%
%LPD*%
G04 APERTURE LIST*
%ADD10C,0.150000*%
G04 APERTURE END LIST*
D10*
%TO.C,U1*%
X134940000Y-108080000D02*
X137840000Y-108080000D01*
X137840000Y-108080000D02*
X137840000Y-117980000D01*
X137840000Y-117980000D02*
X133940000Y-117980000D01*
X133940000Y-117980000D02*
X133940000Y-109030000D01*
X133940000Y-109030000D02*
X134940000Y-108080000D01*
%TD*%
%TO.C,U1*%
X132432857Y-119634761D02*
X132575714Y-119682380D01*
X132813809Y-119682380D01*
X132909047Y-119634761D01*
X132956666Y-119587142D01*
X133004285Y-119491904D01*
X133004285Y-119396666D01*
X132956666Y-119301428D01*
X132909047Y-119253809D01*
X132813809Y-119206190D01*
X132623333Y-119158571D01*
X132528095Y-119110952D01*
X132480476Y-119063333D01*
X132432857Y-118968095D01*
X132432857Y-118872857D01*
X132480476Y-118777619D01*
X132528095Y-118730000D01*
X132623333Y-118682380D01*
X132861428Y-118682380D01*
X133004285Y-118730000D01*
X133385238Y-119634761D02*
X133528095Y-119682380D01*
X133766190Y-119682380D01*
X133861428Y-119634761D01*
X133909047Y-119587142D01*
X133956666Y-119491904D01*
X133956666Y-119396666D01*
X133909047Y-119301428D01*
X133861428Y-119253809D01*
X133766190Y-119206190D01*
X133575714Y-119158571D01*
X133480476Y-119110952D01*
X133432857Y-119063333D01*
X133385238Y-118968095D01*
X133385238Y-118872857D01*
X133432857Y-118777619D01*
X133480476Y-118730000D01*
X133575714Y-118682380D01*
X133813809Y-118682380D01*
X133956666Y-118730000D01*
X134575714Y-118682380D02*
X134766190Y-118682380D01*
X134861428Y-118730000D01*
X134956666Y-118825238D01*
X135004285Y-119015714D01*
X135004285Y-119349047D01*
X134956666Y-119539523D01*
X134861428Y-119634761D01*
X134766190Y-119682380D01*
X134575714Y-119682380D01*
X134480476Y-119634761D01*
X134385238Y-119539523D01*
X134337619Y-119349047D01*
X134337619Y-119015714D01*
X134385238Y-118825238D01*
X134480476Y-118730000D01*
X134575714Y-118682380D01*
X135432857Y-119682380D02*
X135432857Y-118682380D01*
X135813809Y-118682380D01*
X135909047Y-118730000D01*
X135956666Y-118777619D01*
X136004285Y-118872857D01*
X136004285Y-119015714D01*
X135956666Y-119110952D01*
X135909047Y-119158571D01*
X135813809Y-119206190D01*
X135432857Y-119206190D01*
X136432857Y-119301428D02*
X137194761Y-119301428D01*
X137623333Y-118777619D02*
X137670952Y-118730000D01*
X137766190Y-118682380D01*
X138004285Y-118682380D01*
X138099523Y-118730000D01*
X138147142Y-118777619D01*
X138194761Y-118872857D01*
X138194761Y-118968095D01*
X138147142Y-119110952D01*
X137575714Y-119682380D01*
X138194761Y-119682380D01*
X138766190Y-119110952D02*
X138670952Y-119063333D01*
X138623333Y-119015714D01*
X138575714Y-118920476D01*
X138575714Y-118872857D01*
X138623333Y-118777619D01*
X138670952Y-118730000D01*
X138766190Y-118682380D01*
X138956666Y-118682380D01*
X139051904Y-118730000D01*
X139099523Y-118777619D01*
X139147142Y-118872857D01*
X139147142Y-118920476D01*
X139099523Y-119015714D01*
X139051904Y-119063333D01*
X138956666Y-119110952D01*
X138766190Y-119110952D01*
X138670952Y-119158571D01*
X138623333Y-119206190D01*
X138575714Y-119301428D01*
X138575714Y-119491904D01*
X138623333Y-119587142D01*
X138670952Y-119634761D01*
X138766190Y-119682380D01*
X138956666Y-119682380D01*
X139051904Y-119634761D01*
X139099523Y-119587142D01*
X139147142Y-119491904D01*
X139147142Y-119301428D01*
X139099523Y-119206190D01*
X139051904Y-119158571D01*
X138956666Y-119110952D01*
X135280476Y-112591904D02*
X135280476Y-113239523D01*
X135318571Y-113315714D01*
X135356666Y-113353809D01*
X135432857Y-113391904D01*
X135585238Y-113391904D01*
X135661428Y-113353809D01*
X135699523Y-113315714D01*
X135737619Y-113239523D01*
X135737619Y-112591904D01*
X136537619Y-113391904D02*
X136080476Y-113391904D01*
X136309047Y-113391904D02*
X136309047Y-112591904D01*
X136232857Y-112706190D01*
X136156666Y-112782380D01*
X136080476Y-112820476D01*
%TD*%
M02*
