M48
; DRILL file {KiCad 5.1.5-1.fc31} date czw, 20 lut 2020, 13:24:01
; FORMAT={-:-/ absolute / metric / decimal}
; #@! TF.CreationDate,2020-02-20T13:24:01+01:00
; #@! TF.GenerationSoftware,Kicad,Pcbnew,5.1.5-1.fc31
; #@! TF.FileFunction,Plated,1,2,PTH
FMAT,2
METRIC
T1C0.762
%
G90
G05
T1
X2.54Y62.23
X2.54Y59.69
X2.54Y57.15
X2.54Y54.61
X2.54Y52.07
X2.54Y49.53
X2.54Y46.99
X2.54Y44.45
X2.54Y41.91
X2.54Y39.37
X2.54Y36.83
X2.54Y34.29
X2.54Y31.75
X2.54Y29.21
X2.54Y26.67
X2.54Y24.13
X2.54Y21.59
X2.54Y19.05
X2.54Y16.51
X2.54Y13.97
X2.54Y11.43
X2.54Y8.89
X2.54Y6.35
X5.08Y62.23
X5.08Y59.69
X5.08Y57.15
X5.08Y54.61
X5.08Y52.07
X5.08Y49.53
X5.08Y46.99
X5.08Y44.45
X5.08Y41.91
X5.08Y39.37
X5.08Y36.83
X5.08Y34.29
X5.08Y31.75
X5.08Y29.21
X5.08Y26.67
X5.08Y24.13
X5.08Y21.59
X5.08Y19.05
X5.08Y16.51
X5.08Y13.97
X5.08Y11.43
X5.08Y8.89
X5.08Y6.35
X7.62Y62.23
X7.62Y59.69
X7.62Y57.15
X7.62Y54.61
X7.62Y52.07
X7.62Y49.53
X7.62Y46.99
X7.62Y44.45
X7.62Y41.91
X7.62Y39.37
X7.62Y36.83
X7.62Y34.29
X7.62Y31.75
X7.62Y29.21
X7.62Y26.67
X7.62Y24.13
X7.62Y21.59
X7.62Y19.05
X7.62Y16.51
X7.62Y13.97
X7.62Y11.43
X7.62Y8.89
X7.62Y6.35
X10.16Y62.23
X10.16Y59.69
X10.16Y57.15
X10.16Y54.61
X10.16Y52.07
X10.16Y49.53
X10.16Y46.99
X10.16Y44.45
X10.16Y41.91
X10.16Y39.37
X10.16Y36.83
X10.16Y34.29
X10.16Y31.75
X10.16Y29.21
X10.16Y26.67
X10.16Y24.13
X10.16Y21.59
X10.16Y19.05
X10.16Y16.51
X10.16Y13.97
X10.16Y11.43
X10.16Y8.89
X10.16Y6.35
X12.7Y62.23
X12.7Y59.69
X12.7Y57.15
X12.7Y54.61
X12.7Y52.07
X12.7Y49.53
X12.7Y46.99
X12.7Y44.45
X12.7Y41.91
X12.7Y39.37
X12.7Y36.83
X12.7Y34.29
X12.7Y31.75
X12.7Y29.21
X12.7Y26.67
X12.7Y24.13
X12.7Y21.59
X12.7Y19.05
X12.7Y16.51
X12.7Y13.97
X12.7Y11.43
X12.7Y8.89
X12.7Y6.35
X15.24Y62.23
X15.24Y59.69
X15.24Y57.15
X15.24Y54.61
X15.24Y52.07
X15.24Y49.53
X15.24Y46.99
X15.24Y44.45
X15.24Y41.91
X15.24Y39.37
X15.24Y36.83
X15.24Y34.29
X15.24Y31.75
X15.24Y29.21
X15.24Y26.67
X15.24Y24.13
X15.24Y21.59
X15.24Y19.05
X15.24Y16.51
X15.24Y13.97
X15.24Y11.43
X15.24Y8.89
X15.24Y6.35
X17.78Y62.23
X17.78Y59.69
X17.78Y57.15
X17.78Y54.61
X17.78Y52.07
X17.78Y49.53
X17.78Y46.99
X17.78Y44.45
X17.78Y41.91
X17.78Y39.37
X17.78Y36.83
X17.78Y34.29
X17.78Y31.75
X17.78Y29.21
X17.78Y26.67
X17.78Y24.13
X17.78Y21.59
X17.78Y19.05
X17.78Y16.51
X17.78Y13.97
X17.78Y11.43
X17.78Y8.89
X17.78Y6.35
X20.32Y62.23
X20.32Y59.69
X20.32Y57.15
X20.32Y54.61
X20.32Y52.07
X20.32Y49.53
X20.32Y46.99
X20.32Y44.45
X20.32Y41.91
X20.32Y39.37
X20.32Y36.83
X20.32Y34.29
X20.32Y31.75
X20.32Y29.21
X20.32Y26.67
X20.32Y24.13
X20.32Y21.59
X20.32Y19.05
X20.32Y16.51
X20.32Y13.97
X20.32Y11.43
X20.32Y8.89
X20.32Y6.35
X22.86Y62.23
X22.86Y59.69
X22.86Y57.15
X22.86Y54.61
X22.86Y52.07
X22.86Y49.53
X22.86Y46.99
X22.86Y44.45
X22.86Y41.91
X22.86Y39.37
X22.86Y36.83
X22.86Y34.29
X22.86Y31.75
X22.86Y29.21
X22.86Y26.67
X22.86Y24.13
X22.86Y21.59
X22.86Y19.05
X22.86Y16.51
X22.86Y13.97
X22.86Y11.43
X22.86Y8.89
X22.86Y6.35
X25.4Y62.23
X25.4Y59.69
X25.4Y57.15
X25.4Y54.61
X25.4Y52.07
X25.4Y49.53
X25.4Y46.99
X25.4Y44.45
X25.4Y41.91
X25.4Y39.37
X25.4Y36.83
X25.4Y34.29
X25.4Y31.75
X25.4Y29.21
X25.4Y26.67
X25.4Y24.13
X25.4Y21.59
X25.4Y19.05
X25.4Y16.51
X25.4Y13.97
X25.4Y11.43
X25.4Y8.89
X25.4Y6.35
X27.94Y62.23
X27.94Y59.69
X27.94Y57.15
X27.94Y54.61
X27.94Y52.07
X27.94Y49.53
X27.94Y46.99
X27.94Y44.45
X27.94Y41.91
X27.94Y39.37
X27.94Y36.83
X27.94Y34.29
X27.94Y31.75
X27.94Y29.21
X27.94Y26.67
X27.94Y24.13
X27.94Y21.59
X27.94Y19.05
X27.94Y16.51
X27.94Y13.97
X27.94Y11.43
X27.94Y8.89
X27.94Y6.35
X30.48Y62.23
X30.48Y59.69
X30.48Y57.15
X30.48Y54.61
X30.48Y52.07
X30.48Y49.53
X30.48Y46.99
X30.48Y44.45
X30.48Y41.91
X30.48Y39.37
X30.48Y36.83
X30.48Y34.29
X30.48Y31.75
X30.48Y29.21
X30.48Y26.67
X30.48Y24.13
X30.48Y21.59
X30.48Y19.05
X30.48Y16.51
X30.48Y13.97
X30.48Y11.43
X30.48Y8.89
X30.48Y6.35
X33.02Y62.23
X33.02Y59.69
X33.02Y57.15
X33.02Y54.61
X33.02Y52.07
X33.02Y49.53
X33.02Y46.99
X33.02Y44.45
X33.02Y41.91
X33.02Y39.37
X33.02Y36.83
X33.02Y34.29
X33.02Y31.75
X33.02Y29.21
X33.02Y26.67
X33.02Y24.13
X33.02Y21.59
X33.02Y19.05
X33.02Y16.51
X33.02Y13.97
X33.02Y11.43
X33.02Y8.89
X33.02Y6.35
X35.56Y62.23
X35.56Y59.69
X35.56Y57.15
X35.56Y54.61
X35.56Y52.07
X35.56Y49.53
X35.56Y46.99
X35.56Y44.45
X35.56Y41.91
X35.56Y39.37
X35.56Y36.83
X35.56Y34.29
X35.56Y31.75
X35.56Y29.21
X35.56Y26.67
X35.56Y24.13
X35.56Y21.59
X35.56Y19.05
X35.56Y16.51
X35.56Y13.97
X35.56Y11.43
X35.56Y8.89
X35.56Y6.35
X38.1Y62.23
X38.1Y59.69
X38.1Y57.15
X38.1Y54.61
X38.1Y52.07
X38.1Y49.53
X38.1Y46.99
X38.1Y44.45
X38.1Y41.91
X38.1Y39.37
X38.1Y36.83
X38.1Y34.29
X38.1Y31.75
X38.1Y29.21
X38.1Y26.67
X38.1Y24.13
X38.1Y21.59
X38.1Y19.05
X38.1Y16.51
X38.1Y13.97
X38.1Y11.43
X38.1Y8.89
X38.1Y6.35
X40.64Y62.23
X40.64Y59.69
X40.64Y57.15
X40.64Y54.61
X40.64Y52.07
X40.64Y49.53
X40.64Y46.99
X40.64Y44.45
X40.64Y41.91
X40.64Y39.37
X40.64Y36.83
X40.64Y34.29
X40.64Y31.75
X40.64Y29.21
X40.64Y26.67
X40.64Y24.13
X40.64Y21.59
X40.64Y19.05
X40.64Y16.51
X40.64Y13.97
X40.64Y11.43
X40.64Y8.89
X40.64Y6.35
X43.18Y62.23
X43.18Y59.69
X43.18Y57.15
X43.18Y54.61
X43.18Y52.07
X43.18Y49.53
X43.18Y46.99
X43.18Y44.45
X43.18Y41.91
X43.18Y39.37
X43.18Y36.83
X43.18Y34.29
X43.18Y31.75
X43.18Y29.21
X43.18Y26.67
X43.18Y24.13
X43.18Y21.59
X43.18Y19.05
X43.18Y16.51
X43.18Y13.97
X43.18Y11.43
X43.18Y8.89
X43.18Y6.35
X45.72Y62.23
X45.72Y59.69
X45.72Y57.15
X45.72Y54.61
X45.72Y52.07
X45.72Y49.53
X45.72Y46.99
X45.72Y44.45
X45.72Y41.91
X45.72Y39.37
X45.72Y36.83
X45.72Y34.29
X45.72Y31.75
X45.72Y29.21
X45.72Y26.67
X45.72Y24.13
X45.72Y21.59
X45.72Y19.05
X45.72Y16.51
X45.72Y13.97
X45.72Y11.43
X45.72Y8.89
X45.72Y6.35
X48.26Y62.23
X48.26Y59.69
X48.26Y57.15
X48.26Y54.61
X48.26Y52.07
X48.26Y49.53
X48.26Y46.99
X48.26Y44.45
X48.26Y41.91
X48.26Y39.37
X48.26Y36.83
X48.26Y34.29
X48.26Y31.75
X48.26Y29.21
X48.26Y26.67
X48.26Y24.13
X48.26Y21.59
X48.26Y19.05
X48.26Y16.51
X48.26Y13.97
X48.26Y11.43
X48.26Y8.89
X48.26Y6.35
T0
M30
