%TF.GenerationSoftware,KiCad,Pcbnew,5.1.5-1.fc31*%
%TF.CreationDate,2020-02-21T03:52:29+01:00*%
%TF.ProjectId,board-2,626f6172-642d-4322-9e6b-696361645f70,1.0*%
%TF.SameCoordinates,PX5e78920PY70a3730*%
%TF.FileFunction,Copper,L1,Top*%
%TF.FilePolarity,Positive*%
%FSLAX46Y46*%
G04 Gerber Fmt 4.6, Leading zero omitted, Abs format (unit mm)*
G04 Created by KiCad (PCBNEW 5.1.5-1.fc31) date 2020-02-21 03:52:29*
%MOMM*%
%LPD*%
G04 APERTURE LIST*
%ADD10C,1.524000*%
G04 APERTURE END LIST*
D10*
X48260000Y6350000D03*
X45720000Y6350000D03*
X43180000Y6350000D03*
X40640000Y6350000D03*
X38100000Y6350000D03*
X35560000Y6350000D03*
X33020000Y6350000D03*
X30480000Y6350000D03*
X27940000Y6350000D03*
X25400000Y6350000D03*
X22860000Y6350000D03*
X20320000Y6350000D03*
X17780000Y6350000D03*
X15240000Y6350000D03*
X12700000Y6350000D03*
X10160000Y6350000D03*
X7620000Y6350000D03*
X5080000Y6350000D03*
X2540000Y6350000D03*
X48260000Y8890000D03*
X45720000Y8890000D03*
X43180000Y8890000D03*
X40640000Y8890000D03*
X38100000Y8890000D03*
X35560000Y8890000D03*
X33020000Y8890000D03*
X30480000Y8890000D03*
X27940000Y8890000D03*
X25400000Y8890000D03*
X22860000Y8890000D03*
X20320000Y8890000D03*
X17780000Y8890000D03*
X15240000Y8890000D03*
X12700000Y8890000D03*
X10160000Y8890000D03*
X7620000Y8890000D03*
X5080000Y8890000D03*
X2540000Y8890000D03*
X48260000Y11430000D03*
X45720000Y11430000D03*
X43180000Y11430000D03*
X40640000Y11430000D03*
X38100000Y11430000D03*
X35560000Y11430000D03*
X33020000Y11430000D03*
X30480000Y11430000D03*
X27940000Y11430000D03*
X25400000Y11430000D03*
X22860000Y11430000D03*
X20320000Y11430000D03*
X17780000Y11430000D03*
X15240000Y11430000D03*
X12700000Y11430000D03*
X10160000Y11430000D03*
X7620000Y11430000D03*
X5080000Y11430000D03*
X2540000Y11430000D03*
X48260000Y13970000D03*
X45720000Y13970000D03*
X43180000Y13970000D03*
X40640000Y13970000D03*
X38100000Y13970000D03*
X35560000Y13970000D03*
X33020000Y13970000D03*
X30480000Y13970000D03*
X27940000Y13970000D03*
X25400000Y13970000D03*
X22860000Y13970000D03*
X20320000Y13970000D03*
X17780000Y13970000D03*
X15240000Y13970000D03*
X12700000Y13970000D03*
X10160000Y13970000D03*
X7620000Y13970000D03*
X5080000Y13970000D03*
X2540000Y13970000D03*
X48260000Y16510000D03*
X45720000Y16510000D03*
X43180000Y16510000D03*
X40640000Y16510000D03*
X38100000Y16510000D03*
X35560000Y16510000D03*
X33020000Y16510000D03*
X30480000Y16510000D03*
X27940000Y16510000D03*
X25400000Y16510000D03*
X22860000Y16510000D03*
X20320000Y16510000D03*
X17780000Y16510000D03*
X15240000Y16510000D03*
X12700000Y16510000D03*
X10160000Y16510000D03*
X7620000Y16510000D03*
X5080000Y16510000D03*
X2540000Y16510000D03*
X48260000Y19050000D03*
X45720000Y19050000D03*
X43180000Y19050000D03*
X40640000Y19050000D03*
X38100000Y19050000D03*
X35560000Y19050000D03*
X33020000Y19050000D03*
X30480000Y19050000D03*
X27940000Y19050000D03*
X25400000Y19050000D03*
X22860000Y19050000D03*
X20320000Y19050000D03*
X17780000Y19050000D03*
X15240000Y19050000D03*
X12700000Y19050000D03*
X10160000Y19050000D03*
X7620000Y19050000D03*
X5080000Y19050000D03*
X2540000Y19050000D03*
X48260000Y21590000D03*
X45720000Y21590000D03*
X43180000Y21590000D03*
X40640000Y21590000D03*
X38100000Y21590000D03*
X35560000Y21590000D03*
X33020000Y21590000D03*
X30480000Y21590000D03*
X27940000Y21590000D03*
X25400000Y21590000D03*
X22860000Y21590000D03*
X20320000Y21590000D03*
X17780000Y21590000D03*
X15240000Y21590000D03*
X12700000Y21590000D03*
X10160000Y21590000D03*
X7620000Y21590000D03*
X5080000Y21590000D03*
X2540000Y21590000D03*
X48260000Y24130000D03*
X45720000Y24130000D03*
X43180000Y24130000D03*
X40640000Y24130000D03*
X38100000Y24130000D03*
X35560000Y24130000D03*
X33020000Y24130000D03*
X30480000Y24130000D03*
X27940000Y24130000D03*
X25400000Y24130000D03*
X22860000Y24130000D03*
X20320000Y24130000D03*
X17780000Y24130000D03*
X15240000Y24130000D03*
X12700000Y24130000D03*
X10160000Y24130000D03*
X7620000Y24130000D03*
X5080000Y24130000D03*
X2540000Y24130000D03*
X48260000Y26670000D03*
X45720000Y26670000D03*
X43180000Y26670000D03*
X40640000Y26670000D03*
X38100000Y26670000D03*
X35560000Y26670000D03*
X33020000Y26670000D03*
X30480000Y26670000D03*
X27940000Y26670000D03*
X25400000Y26670000D03*
X22860000Y26670000D03*
X20320000Y26670000D03*
X17780000Y26670000D03*
X15240000Y26670000D03*
X12700000Y26670000D03*
X10160000Y26670000D03*
X7620000Y26670000D03*
X5080000Y26670000D03*
X2540000Y26670000D03*
X48260000Y29210000D03*
X45720000Y29210000D03*
X43180000Y29210000D03*
X40640000Y29210000D03*
X38100000Y29210000D03*
X35560000Y29210000D03*
X33020000Y29210000D03*
X30480000Y29210000D03*
X27940000Y29210000D03*
X25400000Y29210000D03*
X22860000Y29210000D03*
X20320000Y29210000D03*
X17780000Y29210000D03*
X15240000Y29210000D03*
X12700000Y29210000D03*
X10160000Y29210000D03*
X7620000Y29210000D03*
X5080000Y29210000D03*
X2540000Y29210000D03*
X48260000Y31750000D03*
X45720000Y31750000D03*
X43180000Y31750000D03*
X40640000Y31750000D03*
X38100000Y31750000D03*
X35560000Y31750000D03*
X33020000Y31750000D03*
X30480000Y31750000D03*
X27940000Y31750000D03*
X25400000Y31750000D03*
X22860000Y31750000D03*
X20320000Y31750000D03*
X17780000Y31750000D03*
X15240000Y31750000D03*
X12700000Y31750000D03*
X10160000Y31750000D03*
X7620000Y31750000D03*
X5080000Y31750000D03*
X2540000Y31750000D03*
X48260000Y34290000D03*
X45720000Y34290000D03*
X43180000Y34290000D03*
X40640000Y34290000D03*
X38100000Y34290000D03*
X35560000Y34290000D03*
X33020000Y34290000D03*
X30480000Y34290000D03*
X27940000Y34290000D03*
X25400000Y34290000D03*
X22860000Y34290000D03*
X20320000Y34290000D03*
X17780000Y34290000D03*
X15240000Y34290000D03*
X12700000Y34290000D03*
X10160000Y34290000D03*
X7620000Y34290000D03*
X5080000Y34290000D03*
X2540000Y34290000D03*
X48260000Y36830000D03*
X45720000Y36830000D03*
X43180000Y36830000D03*
X40640000Y36830000D03*
X38100000Y36830000D03*
X35560000Y36830000D03*
X33020000Y36830000D03*
X30480000Y36830000D03*
X27940000Y36830000D03*
X25400000Y36830000D03*
X22860000Y36830000D03*
X20320000Y36830000D03*
X17780000Y36830000D03*
X15240000Y36830000D03*
X12700000Y36830000D03*
X10160000Y36830000D03*
X7620000Y36830000D03*
X5080000Y36830000D03*
X2540000Y36830000D03*
X48260000Y39370000D03*
X45720000Y39370000D03*
X43180000Y39370000D03*
X40640000Y39370000D03*
X38100000Y39370000D03*
X35560000Y39370000D03*
X33020000Y39370000D03*
X30480000Y39370000D03*
X27940000Y39370000D03*
X25400000Y39370000D03*
X22860000Y39370000D03*
X20320000Y39370000D03*
X17780000Y39370000D03*
X15240000Y39370000D03*
X12700000Y39370000D03*
X10160000Y39370000D03*
X7620000Y39370000D03*
X5080000Y39370000D03*
X2540000Y39370000D03*
X48260000Y41910000D03*
X45720000Y41910000D03*
X43180000Y41910000D03*
X40640000Y41910000D03*
X38100000Y41910000D03*
X35560000Y41910000D03*
X33020000Y41910000D03*
X30480000Y41910000D03*
X27940000Y41910000D03*
X25400000Y41910000D03*
X22860000Y41910000D03*
X20320000Y41910000D03*
X17780000Y41910000D03*
X15240000Y41910000D03*
X12700000Y41910000D03*
X10160000Y41910000D03*
X7620000Y41910000D03*
X5080000Y41910000D03*
X2540000Y41910000D03*
X48260000Y44450000D03*
X45720000Y44450000D03*
X43180000Y44450000D03*
X40640000Y44450000D03*
X38100000Y44450000D03*
X35560000Y44450000D03*
X33020000Y44450000D03*
X30480000Y44450000D03*
X27940000Y44450000D03*
X25400000Y44450000D03*
X22860000Y44450000D03*
X20320000Y44450000D03*
X17780000Y44450000D03*
X15240000Y44450000D03*
X12700000Y44450000D03*
X10160000Y44450000D03*
X7620000Y44450000D03*
X5080000Y44450000D03*
X2540000Y44450000D03*
X48260000Y46990000D03*
X45720000Y46990000D03*
X43180000Y46990000D03*
X40640000Y46990000D03*
X38100000Y46990000D03*
X35560000Y46990000D03*
X33020000Y46990000D03*
X30480000Y46990000D03*
X27940000Y46990000D03*
X25400000Y46990000D03*
X22860000Y46990000D03*
X20320000Y46990000D03*
X17780000Y46990000D03*
X15240000Y46990000D03*
X12700000Y46990000D03*
X10160000Y46990000D03*
X7620000Y46990000D03*
X5080000Y46990000D03*
X2540000Y46990000D03*
X48260000Y49530000D03*
X45720000Y49530000D03*
X43180000Y49530000D03*
X40640000Y49530000D03*
X38100000Y49530000D03*
X35560000Y49530000D03*
X33020000Y49530000D03*
X30480000Y49530000D03*
X27940000Y49530000D03*
X25400000Y49530000D03*
X22860000Y49530000D03*
X20320000Y49530000D03*
X17780000Y49530000D03*
X15240000Y49530000D03*
X12700000Y49530000D03*
X10160000Y49530000D03*
X7620000Y49530000D03*
X5080000Y49530000D03*
X2540000Y49530000D03*
X48260000Y52070000D03*
X45720000Y52070000D03*
X43180000Y52070000D03*
X40640000Y52070000D03*
X38100000Y52070000D03*
X35560000Y52070000D03*
X33020000Y52070000D03*
X30480000Y52070000D03*
X27940000Y52070000D03*
X25400000Y52070000D03*
X22860000Y52070000D03*
X20320000Y52070000D03*
X17780000Y52070000D03*
X15240000Y52070000D03*
X12700000Y52070000D03*
X10160000Y52070000D03*
X7620000Y52070000D03*
X5080000Y52070000D03*
X2540000Y52070000D03*
X48260000Y54610000D03*
X45720000Y54610000D03*
X43180000Y54610000D03*
X40640000Y54610000D03*
X38100000Y54610000D03*
X35560000Y54610000D03*
X33020000Y54610000D03*
X30480000Y54610000D03*
X27940000Y54610000D03*
X25400000Y54610000D03*
X22860000Y54610000D03*
X20320000Y54610000D03*
X17780000Y54610000D03*
X15240000Y54610000D03*
X12700000Y54610000D03*
X10160000Y54610000D03*
X7620000Y54610000D03*
X5080000Y54610000D03*
X2540000Y54610000D03*
X48260000Y57150000D03*
X45720000Y57150000D03*
X43180000Y57150000D03*
X40640000Y57150000D03*
X38100000Y57150000D03*
X35560000Y57150000D03*
X33020000Y57150000D03*
X30480000Y57150000D03*
X27940000Y57150000D03*
X25400000Y57150000D03*
X22860000Y57150000D03*
X20320000Y57150000D03*
X17780000Y57150000D03*
X15240000Y57150000D03*
X12700000Y57150000D03*
X10160000Y57150000D03*
X7620000Y57150000D03*
X5080000Y57150000D03*
X2540000Y57150000D03*
X48260000Y59690000D03*
X45720000Y59690000D03*
X43180000Y59690000D03*
X40640000Y59690000D03*
X38100000Y59690000D03*
X35560000Y59690000D03*
X33020000Y59690000D03*
X30480000Y59690000D03*
X27940000Y59690000D03*
X25400000Y59690000D03*
X22860000Y59690000D03*
X20320000Y59690000D03*
X17780000Y59690000D03*
X15240000Y59690000D03*
X12700000Y59690000D03*
X10160000Y59690000D03*
X7620000Y59690000D03*
X5080000Y59690000D03*
X2540000Y59690000D03*
X48260000Y62230000D03*
X45720000Y62230000D03*
X43180000Y62230000D03*
X40640000Y62230000D03*
X38100000Y62230000D03*
X35560000Y62230000D03*
X33020000Y62230000D03*
X30480000Y62230000D03*
X27940000Y62230000D03*
X25400000Y62230000D03*
X22860000Y62230000D03*
X20320000Y62230000D03*
X17780000Y62230000D03*
X15240000Y62230000D03*
X12700000Y62230000D03*
X10160000Y62230000D03*
X7620000Y62230000D03*
X5080000Y62230000D03*
X2540000Y62230000D03*
M02*
