M48
; DRILL file {KiCad 5.1.5+dfsg1-2build2} date Tue 06 Oct 2020 01:11:44 CEST
; FORMAT={-:-/ absolute / inch / decimal}
; #@! TF.CreationDate,2020-10-06T01:11:44+02:00
; #@! TF.GenerationSoftware,Kicad,Pcbnew,5.1.5+dfsg1-2build2
FMAT,2
INCH
T1C0.0300
%
G90
G05
T1
X0.1Y1.9
X0.1Y1.8
X0.1Y1.7
X0.1Y1.6
X0.1Y1.5
X0.1Y1.4
X0.1Y1.3
X0.1Y1.2
X0.1Y1.1
X0.1Y1.0
X0.1Y0.9
X0.1Y0.8
X0.1Y0.7
X0.1Y0.6
X0.1Y0.5
X0.1Y0.4
X0.1Y0.3
X0.1Y0.2
X0.1Y0.1
X0.2Y1.9
X0.2Y1.8
X0.2Y1.7
X0.2Y1.6
X0.2Y1.5
X0.2Y1.4
X0.2Y1.3
X0.2Y1.2
X0.2Y1.1
X0.2Y1.0
X0.2Y0.9
X0.2Y0.8
X0.2Y0.7
X0.2Y0.6
X0.2Y0.5
X0.2Y0.4
X0.2Y0.3
X0.2Y0.2
X0.2Y0.1
X0.3Y1.9
X0.3Y1.8
X0.3Y1.7
X0.3Y1.6
X0.3Y1.5
X0.3Y1.4
X0.3Y1.3
X0.3Y1.2
X0.3Y1.1
X0.3Y1.0
X0.3Y0.9
X0.3Y0.8
X0.3Y0.7
X0.3Y0.6
X0.3Y0.5
X0.3Y0.4
X0.3Y0.3
X0.3Y0.2
X0.3Y0.1
X0.4Y1.9
X0.4Y1.8
X0.4Y1.7
X0.4Y1.6
X0.4Y1.5
X0.4Y1.4
X0.4Y1.3
X0.4Y1.2
X0.4Y1.1
X0.4Y1.0
X0.4Y0.9
X0.4Y0.8
X0.4Y0.7
X0.4Y0.6
X0.4Y0.5
X0.4Y0.4
X0.4Y0.3
X0.4Y0.2
X0.4Y0.1
X0.5Y1.9
X0.5Y1.8
X0.5Y1.7
X0.5Y1.6
X0.5Y1.5
X0.5Y1.4
X0.5Y1.3
X0.5Y1.2
X0.5Y1.1
X0.5Y1.0
X0.5Y0.9
X0.5Y0.8
X0.5Y0.7
X0.5Y0.6
X0.5Y0.5
X0.5Y0.4
X0.5Y0.3
X0.5Y0.2
X0.5Y0.1
X0.6Y1.9
X0.6Y1.8
X0.6Y1.7
X0.6Y1.6
X0.6Y1.5
X0.6Y1.4
X0.6Y1.3
X0.6Y1.2
X0.6Y1.1
X0.6Y1.0
X0.6Y0.9
X0.6Y0.8
X0.6Y0.7
X0.6Y0.6
X0.6Y0.5
X0.6Y0.4
X0.6Y0.3
X0.6Y0.2
X0.6Y0.1
X0.7Y1.9
X0.7Y1.8
X0.7Y1.7
X0.7Y1.6
X0.7Y1.5
X0.7Y1.4
X0.7Y1.3
X0.7Y1.2
X0.7Y1.1
X0.7Y1.0
X0.7Y0.9
X0.7Y0.8
X0.7Y0.7
X0.7Y0.6
X0.7Y0.5
X0.7Y0.4
X0.7Y0.3
X0.7Y0.2
X0.7Y0.1
X0.8Y1.9
X0.8Y1.8
X0.8Y1.7
X0.8Y1.6
X0.8Y1.5
X0.8Y1.4
X0.8Y1.3
X0.8Y1.2
X0.8Y1.1
X0.8Y1.0
X0.8Y0.9
X0.8Y0.8
X0.8Y0.7
X0.8Y0.6
X0.8Y0.5
X0.8Y0.4
X0.8Y0.3
X0.8Y0.2
X0.8Y0.1
X0.9Y1.9
X0.9Y1.8
X0.9Y1.7
X0.9Y1.6
X0.9Y1.5
X0.9Y1.4
X0.9Y1.3
X0.9Y1.2
X0.9Y1.1
X0.9Y1.0
X0.9Y0.9
X0.9Y0.8
X0.9Y0.7
X0.9Y0.6
X0.9Y0.5
X0.9Y0.4
X0.9Y0.3
X0.9Y0.2
X0.9Y0.1
X1.0Y1.9
X1.0Y1.8
X1.0Y1.7
X1.0Y1.6
X1.0Y1.5
X1.0Y1.4
X1.0Y1.3
X1.0Y1.2
X1.0Y1.1
X1.0Y1.0
X1.0Y0.9
X1.0Y0.8
X1.0Y0.7
X1.0Y0.6
X1.0Y0.5
X1.0Y0.4
X1.0Y0.3
X1.0Y0.2
X1.0Y0.1
X1.1Y1.9
X1.1Y1.8
X1.1Y1.7
X1.1Y1.6
X1.1Y1.5
X1.1Y1.4
X1.1Y1.3
X1.1Y1.2
X1.1Y1.1
X1.1Y1.0
X1.1Y0.9
X1.1Y0.8
X1.1Y0.7
X1.1Y0.6
X1.1Y0.5
X1.1Y0.4
X1.1Y0.3
X1.1Y0.2
X1.1Y0.1
X1.2Y1.9
X1.2Y1.8
X1.2Y1.7
X1.2Y1.6
X1.2Y1.5
X1.2Y1.4
X1.2Y1.3
X1.2Y1.2
X1.2Y1.1
X1.2Y1.0
X1.2Y0.9
X1.2Y0.8
X1.2Y0.7
X1.2Y0.6
X1.2Y0.5
X1.2Y0.4
X1.2Y0.3
X1.2Y0.2
X1.2Y0.1
X1.3Y1.9
X1.3Y1.8
X1.3Y1.7
X1.3Y1.6
X1.3Y1.5
X1.3Y1.4
X1.3Y1.3
X1.3Y1.2
X1.3Y1.1
X1.3Y1.0
X1.3Y0.9
X1.3Y0.8
X1.3Y0.7
X1.3Y0.6
X1.3Y0.5
X1.3Y0.4
X1.3Y0.3
X1.3Y0.2
X1.3Y0.1
X1.4Y1.9
X1.4Y1.8
X1.4Y1.7
X1.4Y1.6
X1.4Y1.5
X1.4Y1.4
X1.4Y1.3
X1.4Y1.2
X1.4Y1.1
X1.4Y1.0
X1.4Y0.9
X1.4Y0.8
X1.4Y0.7
X1.4Y0.6
X1.4Y0.5
X1.4Y0.4
X1.4Y0.3
X1.4Y0.2
X1.4Y0.1
X1.5Y1.9
X1.5Y1.8
X1.5Y1.7
X1.5Y1.6
X1.5Y1.5
X1.5Y1.4
X1.5Y1.3
X1.5Y1.2
X1.5Y1.1
X1.5Y1.0
X1.5Y0.9
X1.5Y0.8
X1.5Y0.7
X1.5Y0.6
X1.5Y0.5
X1.5Y0.4
X1.5Y0.3
X1.5Y0.2
X1.5Y0.1
X1.6Y1.9
X1.6Y1.8
X1.6Y1.7
X1.6Y1.6
X1.6Y1.5
X1.6Y1.4
X1.6Y1.3
X1.6Y1.2
X1.6Y1.1
X1.6Y1.0
X1.6Y0.9
X1.6Y0.8
X1.6Y0.7
X1.6Y0.6
X1.6Y0.5
X1.6Y0.4
X1.6Y0.3
X1.6Y0.2
X1.6Y0.1
X1.7Y1.9
X1.7Y1.8
X1.7Y1.7
X1.7Y1.6
X1.7Y1.5
X1.7Y1.4
X1.7Y1.3
X1.7Y1.2
X1.7Y1.1
X1.7Y1.0
X1.7Y0.9
X1.7Y0.8
X1.7Y0.7
X1.7Y0.6
X1.7Y0.5
X1.7Y0.4
X1.7Y0.3
X1.7Y0.2
X1.7Y0.1
X1.8Y1.9
X1.8Y1.8
X1.8Y1.7
X1.8Y1.6
X1.8Y1.5
X1.8Y1.4
X1.8Y1.3
X1.8Y1.2
X1.8Y1.1
X1.8Y1.0
X1.8Y0.9
X1.8Y0.8
X1.8Y0.7
X1.8Y0.6
X1.8Y0.5
X1.8Y0.4
X1.8Y0.3
X1.8Y0.2
X1.8Y0.1
X1.9Y1.9
X1.9Y1.8
X1.9Y1.7
X1.9Y1.6
X1.9Y1.5
X1.9Y1.4
X1.9Y1.3
X1.9Y1.2
X1.9Y1.1
X1.9Y1.0
X1.9Y0.9
X1.9Y0.8
X1.9Y0.7
X1.9Y0.6
X1.9Y0.5
X1.9Y0.4
X1.9Y0.3
X1.9Y0.2
X1.9Y0.1
X2.0Y1.9
X2.0Y1.8
X2.0Y1.7
X2.0Y1.6
X2.0Y1.5
X2.0Y1.4
X2.0Y1.3
X2.0Y1.2
X2.0Y1.1
X2.0Y1.0
X2.0Y0.9
X2.0Y0.8
X2.0Y0.7
X2.0Y0.6
X2.0Y0.5
X2.0Y0.4
X2.0Y0.3
X2.0Y0.2
X2.0Y0.1
X2.1Y1.9
X2.1Y1.8
X2.1Y1.7
X2.1Y1.6
X2.1Y1.5
X2.1Y1.4
X2.1Y1.3
X2.1Y1.2
X2.1Y1.1
X2.1Y1.0
X2.1Y0.9
X2.1Y0.8
X2.1Y0.7
X2.1Y0.6
X2.1Y0.5
X2.1Y0.4
X2.1Y0.3
X2.1Y0.2
X2.1Y0.1
X2.2Y1.9
X2.2Y1.8
X2.2Y1.7
X2.2Y1.6
X2.2Y1.5
X2.2Y1.4
X2.2Y1.3
X2.2Y1.2
X2.2Y1.1
X2.2Y1.0
X2.2Y0.9
X2.2Y0.8
X2.2Y0.7
X2.2Y0.6
X2.2Y0.5
X2.2Y0.4
X2.2Y0.3
X2.2Y0.2
X2.2Y0.1
X2.3Y1.9
X2.3Y1.8
X2.3Y1.7
X2.3Y1.6
X2.3Y1.5
X2.3Y1.4
X2.3Y1.3
X2.3Y1.2
X2.3Y1.1
X2.3Y1.0
X2.3Y0.9
X2.3Y0.8
X2.3Y0.7
X2.3Y0.6
X2.3Y0.5
X2.3Y0.4
X2.3Y0.3
X2.3Y0.2
X2.3Y0.1
X2.4Y1.9
X2.4Y1.8
X2.4Y1.7
X2.4Y1.6
X2.4Y1.5
X2.4Y1.4
X2.4Y1.3
X2.4Y1.2
X2.4Y1.1
X2.4Y1.0
X2.4Y0.9
X2.4Y0.8
X2.4Y0.7
X2.4Y0.6
X2.4Y0.5
X2.4Y0.4
X2.4Y0.3
X2.4Y0.2
X2.4Y0.1
X2.5Y1.9
X2.5Y1.8
X2.5Y1.7
X2.5Y1.6
X2.5Y1.5
X2.5Y1.4
X2.5Y1.3
X2.5Y1.2
X2.5Y1.1
X2.5Y1.0
X2.5Y0.9
X2.5Y0.8
X2.5Y0.7
X2.5Y0.6
X2.5Y0.5
X2.5Y0.4
X2.5Y0.3
X2.5Y0.2
X2.5Y0.1
X2.6Y1.9
X2.6Y1.8
X2.6Y1.7
X2.6Y1.6
X2.6Y1.5
X2.6Y1.4
X2.6Y1.3
X2.6Y1.2
X2.6Y1.1
X2.6Y1.0
X2.6Y0.9
X2.6Y0.8
X2.6Y0.7
X2.6Y0.6
X2.6Y0.5
X2.6Y0.4
X2.6Y0.3
X2.6Y0.2
X2.6Y0.1
X2.7Y1.9
X2.7Y1.8
X2.7Y1.7
X2.7Y1.6
X2.7Y1.5
X2.7Y1.4
X2.7Y1.3
X2.7Y1.2
X2.7Y1.1
X2.7Y1.0
X2.7Y0.9
X2.7Y0.8
X2.7Y0.7
X2.7Y0.6
X2.7Y0.5
X2.7Y0.4
X2.7Y0.3
X2.7Y0.2
X2.7Y0.1
T0
M30
