%TF.GenerationSoftware,KiCad,Pcbnew,5.1.5+dfsg1-2build2*%
%TF.CreationDate,2020-10-05T13:16:32+02:00*%
%TF.ProjectId,pcb_50x70mm,7063625f-3530-4783-9730-6d6d2e6b6963,rev?*%
%TF.SameCoordinates,PX5f13998PY69fa208*%
%TF.FileFunction,Copper,L1,Top*%
%TF.FilePolarity,Positive*%
%FSLAX46Y46*%
G04 Gerber Fmt 4.6, Leading zero omitted, Abs format (unit mm)*
G04 Created by KiCad (PCBNEW 5.1.5+dfsg1-2build2) date 2020-10-05 13:16:32*
%MOMM*%
%LPD*%
G04 APERTURE LIST*
%TA.AperFunction,ComponentPad*%
%ADD10C,1.524000*%
%TD*%
G04 APERTURE END LIST*
D10*
%TO.P,e,513*%
%TO.N,N/C*%
X67945000Y1905000D03*
%TO.P,e,512*%
X65405000Y1905000D03*
%TO.P,e,511*%
X62865000Y1905000D03*
%TO.P,e,510*%
X60325000Y1905000D03*
%TO.P,e,509*%
X57785000Y1905000D03*
%TO.P,e,508*%
X55245000Y1905000D03*
%TO.P,e,507*%
X52705000Y1905000D03*
%TO.P,e,506*%
X50165000Y1905000D03*
%TO.P,e,505*%
X47625000Y1905000D03*
%TO.P,e,504*%
X45085000Y1905000D03*
%TO.P,e,503*%
X42545000Y1905000D03*
%TO.P,e,502*%
X40005000Y1905000D03*
%TO.P,e,501*%
X37465000Y1905000D03*
%TO.P,e,500*%
X34925000Y1905000D03*
%TO.P,e,499*%
X32385000Y1905000D03*
%TO.P,e,498*%
X29845000Y1905000D03*
%TO.P,e,497*%
X27305000Y1905000D03*
%TO.P,e,496*%
X24765000Y1905000D03*
%TO.P,e,495*%
X22225000Y1905000D03*
%TO.P,e,494*%
X19685000Y1905000D03*
%TO.P,e,493*%
X17145000Y1905000D03*
%TO.P,e,492*%
X14605000Y1905000D03*
%TO.P,e,491*%
X12065000Y1905000D03*
%TO.P,e,490*%
X9525000Y1905000D03*
%TO.P,e,489*%
X6985000Y1905000D03*
%TO.P,e,488*%
X4445000Y1905000D03*
%TO.P,e,487*%
X1905000Y1905000D03*
%TO.P,e,486*%
X67945000Y4445000D03*
%TO.P,e,485*%
X65405000Y4445000D03*
%TO.P,e,484*%
X62865000Y4445000D03*
%TO.P,e,483*%
X60325000Y4445000D03*
%TO.P,e,482*%
X57785000Y4445000D03*
%TO.P,e,481*%
X55245000Y4445000D03*
%TO.P,e,480*%
X52705000Y4445000D03*
%TO.P,e,479*%
X50165000Y4445000D03*
%TO.P,e,478*%
X47625000Y4445000D03*
%TO.P,e,477*%
X45085000Y4445000D03*
%TO.P,e,476*%
X42545000Y4445000D03*
%TO.P,e,475*%
X40005000Y4445000D03*
%TO.P,e,474*%
X37465000Y4445000D03*
%TO.P,e,473*%
X34925000Y4445000D03*
%TO.P,e,472*%
X32385000Y4445000D03*
%TO.P,e,471*%
X29845000Y4445000D03*
%TO.P,e,470*%
X27305000Y4445000D03*
%TO.P,e,469*%
X24765000Y4445000D03*
%TO.P,e,468*%
X22225000Y4445000D03*
%TO.P,e,467*%
X19685000Y4445000D03*
%TO.P,e,466*%
X17145000Y4445000D03*
%TO.P,e,465*%
X14605000Y4445000D03*
%TO.P,e,464*%
X12065000Y4445000D03*
%TO.P,e,463*%
X9525000Y4445000D03*
%TO.P,e,462*%
X6985000Y4445000D03*
%TO.P,e,461*%
X4445000Y4445000D03*
%TO.P,e,460*%
X1905000Y4445000D03*
%TO.P,e,459*%
X67945000Y6985000D03*
%TO.P,e,458*%
X65405000Y6985000D03*
%TO.P,e,457*%
X62865000Y6985000D03*
%TO.P,e,456*%
X60325000Y6985000D03*
%TO.P,e,455*%
X57785000Y6985000D03*
%TO.P,e,454*%
X55245000Y6985000D03*
%TO.P,e,453*%
X52705000Y6985000D03*
%TO.P,e,452*%
X50165000Y6985000D03*
%TO.P,e,451*%
X47625000Y6985000D03*
%TO.P,e,450*%
X45085000Y6985000D03*
%TO.P,e,449*%
X42545000Y6985000D03*
%TO.P,e,448*%
X40005000Y6985000D03*
%TO.P,e,447*%
X37465000Y6985000D03*
%TO.P,e,446*%
X34925000Y6985000D03*
%TO.P,e,445*%
X32385000Y6985000D03*
%TO.P,e,444*%
X29845000Y6985000D03*
%TO.P,e,443*%
X27305000Y6985000D03*
%TO.P,e,442*%
X24765000Y6985000D03*
%TO.P,e,441*%
X22225000Y6985000D03*
%TO.P,e,440*%
X19685000Y6985000D03*
%TO.P,e,439*%
X17145000Y6985000D03*
%TO.P,e,438*%
X14605000Y6985000D03*
%TO.P,e,437*%
X12065000Y6985000D03*
%TO.P,e,436*%
X9525000Y6985000D03*
%TO.P,e,435*%
X6985000Y6985000D03*
%TO.P,e,434*%
X4445000Y6985000D03*
%TO.P,e,433*%
X1905000Y6985000D03*
%TO.P,e,432*%
X67945000Y9525000D03*
%TO.P,e,431*%
X65405000Y9525000D03*
%TO.P,e,430*%
X62865000Y9525000D03*
%TO.P,e,429*%
X60325000Y9525000D03*
%TO.P,e,428*%
X57785000Y9525000D03*
%TO.P,e,427*%
X55245000Y9525000D03*
%TO.P,e,426*%
X52705000Y9525000D03*
%TO.P,e,425*%
X50165000Y9525000D03*
%TO.P,e,424*%
X47625000Y9525000D03*
%TO.P,e,423*%
X45085000Y9525000D03*
%TO.P,e,422*%
X42545000Y9525000D03*
%TO.P,e,421*%
X40005000Y9525000D03*
%TO.P,e,420*%
X37465000Y9525000D03*
%TO.P,e,419*%
X34925000Y9525000D03*
%TO.P,e,418*%
X32385000Y9525000D03*
%TO.P,e,417*%
X29845000Y9525000D03*
%TO.P,e,416*%
X27305000Y9525000D03*
%TO.P,e,415*%
X24765000Y9525000D03*
%TO.P,e,414*%
X22225000Y9525000D03*
%TO.P,e,413*%
X19685000Y9525000D03*
%TO.P,e,412*%
X17145000Y9525000D03*
%TO.P,e,411*%
X14605000Y9525000D03*
%TO.P,e,410*%
X12065000Y9525000D03*
%TO.P,e,409*%
X9525000Y9525000D03*
%TO.P,e,408*%
X6985000Y9525000D03*
%TO.P,e,407*%
X4445000Y9525000D03*
%TO.P,e,406*%
X1905000Y9525000D03*
%TO.P,e,405*%
X67945000Y12065000D03*
%TO.P,e,404*%
X65405000Y12065000D03*
%TO.P,e,403*%
X62865000Y12065000D03*
%TO.P,e,402*%
X60325000Y12065000D03*
%TO.P,e,401*%
X57785000Y12065000D03*
%TO.P,e,400*%
X55245000Y12065000D03*
%TO.P,e,399*%
X52705000Y12065000D03*
%TO.P,e,398*%
X50165000Y12065000D03*
%TO.P,e,397*%
X47625000Y12065000D03*
%TO.P,e,396*%
X45085000Y12065000D03*
%TO.P,e,395*%
X42545000Y12065000D03*
%TO.P,e,394*%
X40005000Y12065000D03*
%TO.P,e,393*%
X37465000Y12065000D03*
%TO.P,e,392*%
X34925000Y12065000D03*
%TO.P,e,391*%
X32385000Y12065000D03*
%TO.P,e,390*%
X29845000Y12065000D03*
%TO.P,e,389*%
X27305000Y12065000D03*
%TO.P,e,388*%
X24765000Y12065000D03*
%TO.P,e,387*%
X22225000Y12065000D03*
%TO.P,e,386*%
X19685000Y12065000D03*
%TO.P,e,385*%
X17145000Y12065000D03*
%TO.P,e,384*%
X14605000Y12065000D03*
%TO.P,e,383*%
X12065000Y12065000D03*
%TO.P,e,382*%
X9525000Y12065000D03*
%TO.P,e,381*%
X6985000Y12065000D03*
%TO.P,e,380*%
X4445000Y12065000D03*
%TO.P,e,379*%
X1905000Y12065000D03*
%TO.P,e,378*%
X67945000Y14605000D03*
%TO.P,e,377*%
X65405000Y14605000D03*
%TO.P,e,376*%
X62865000Y14605000D03*
%TO.P,e,375*%
X60325000Y14605000D03*
%TO.P,e,374*%
X57785000Y14605000D03*
%TO.P,e,373*%
X55245000Y14605000D03*
%TO.P,e,372*%
X52705000Y14605000D03*
%TO.P,e,371*%
X50165000Y14605000D03*
%TO.P,e,370*%
X47625000Y14605000D03*
%TO.P,e,369*%
X45085000Y14605000D03*
%TO.P,e,368*%
X42545000Y14605000D03*
%TO.P,e,367*%
X40005000Y14605000D03*
%TO.P,e,366*%
X37465000Y14605000D03*
%TO.P,e,365*%
X34925000Y14605000D03*
%TO.P,e,364*%
X32385000Y14605000D03*
%TO.P,e,363*%
X29845000Y14605000D03*
%TO.P,e,362*%
X27305000Y14605000D03*
%TO.P,e,361*%
X24765000Y14605000D03*
%TO.P,e,360*%
X22225000Y14605000D03*
%TO.P,e,359*%
X19685000Y14605000D03*
%TO.P,e,358*%
X17145000Y14605000D03*
%TO.P,e,357*%
X14605000Y14605000D03*
%TO.P,e,356*%
X12065000Y14605000D03*
%TO.P,e,355*%
X9525000Y14605000D03*
%TO.P,e,354*%
X6985000Y14605000D03*
%TO.P,e,353*%
X4445000Y14605000D03*
%TO.P,e,352*%
X1905000Y14605000D03*
%TO.P,e,351*%
X67945000Y17145000D03*
%TO.P,e,350*%
X65405000Y17145000D03*
%TO.P,e,349*%
X62865000Y17145000D03*
%TO.P,e,348*%
X60325000Y17145000D03*
%TO.P,e,347*%
X57785000Y17145000D03*
%TO.P,e,346*%
X55245000Y17145000D03*
%TO.P,e,345*%
X52705000Y17145000D03*
%TO.P,e,344*%
X50165000Y17145000D03*
%TO.P,e,343*%
X47625000Y17145000D03*
%TO.P,e,342*%
X45085000Y17145000D03*
%TO.P,e,341*%
X42545000Y17145000D03*
%TO.P,e,340*%
X40005000Y17145000D03*
%TO.P,e,339*%
X37465000Y17145000D03*
%TO.P,e,338*%
X34925000Y17145000D03*
%TO.P,e,337*%
X32385000Y17145000D03*
%TO.P,e,336*%
X29845000Y17145000D03*
%TO.P,e,335*%
X27305000Y17145000D03*
%TO.P,e,334*%
X24765000Y17145000D03*
%TO.P,e,333*%
X22225000Y17145000D03*
%TO.P,e,332*%
X19685000Y17145000D03*
%TO.P,e,331*%
X17145000Y17145000D03*
%TO.P,e,330*%
X14605000Y17145000D03*
%TO.P,e,329*%
X12065000Y17145000D03*
%TO.P,e,328*%
X9525000Y17145000D03*
%TO.P,e,327*%
X6985000Y17145000D03*
%TO.P,e,326*%
X4445000Y17145000D03*
%TO.P,e,325*%
X1905000Y17145000D03*
%TO.P,e,324*%
X67945000Y19685000D03*
%TO.P,e,323*%
X65405000Y19685000D03*
%TO.P,e,322*%
X62865000Y19685000D03*
%TO.P,e,321*%
X60325000Y19685000D03*
%TO.P,e,320*%
X57785000Y19685000D03*
%TO.P,e,319*%
X55245000Y19685000D03*
%TO.P,e,318*%
X52705000Y19685000D03*
%TO.P,e,317*%
X50165000Y19685000D03*
%TO.P,e,316*%
X47625000Y19685000D03*
%TO.P,e,315*%
X45085000Y19685000D03*
%TO.P,e,314*%
X42545000Y19685000D03*
%TO.P,e,313*%
X40005000Y19685000D03*
%TO.P,e,312*%
X37465000Y19685000D03*
%TO.P,e,311*%
X34925000Y19685000D03*
%TO.P,e,310*%
X32385000Y19685000D03*
%TO.P,e,309*%
X29845000Y19685000D03*
%TO.P,e,308*%
X27305000Y19685000D03*
%TO.P,e,307*%
X24765000Y19685000D03*
%TO.P,e,306*%
X22225000Y19685000D03*
%TO.P,e,305*%
X19685000Y19685000D03*
%TO.P,e,304*%
X17145000Y19685000D03*
%TO.P,e,303*%
X14605000Y19685000D03*
%TO.P,e,302*%
X12065000Y19685000D03*
%TO.P,e,301*%
X9525000Y19685000D03*
%TO.P,e,300*%
X6985000Y19685000D03*
%TO.P,e,299*%
X4445000Y19685000D03*
%TO.P,e,298*%
X1905000Y19685000D03*
%TO.P,e,297*%
X67945000Y22225000D03*
%TO.P,e,296*%
X65405000Y22225000D03*
%TO.P,e,295*%
X62865000Y22225000D03*
%TO.P,e,294*%
X60325000Y22225000D03*
%TO.P,e,293*%
X57785000Y22225000D03*
%TO.P,e,292*%
X55245000Y22225000D03*
%TO.P,e,291*%
X52705000Y22225000D03*
%TO.P,e,290*%
X50165000Y22225000D03*
%TO.P,e,289*%
X47625000Y22225000D03*
%TO.P,e,288*%
X45085000Y22225000D03*
%TO.P,e,287*%
X42545000Y22225000D03*
%TO.P,e,286*%
X40005000Y22225000D03*
%TO.P,e,285*%
X37465000Y22225000D03*
%TO.P,e,284*%
X34925000Y22225000D03*
%TO.P,e,283*%
X32385000Y22225000D03*
%TO.P,e,282*%
X29845000Y22225000D03*
%TO.P,e,281*%
X27305000Y22225000D03*
%TO.P,e,280*%
X24765000Y22225000D03*
%TO.P,e,279*%
X22225000Y22225000D03*
%TO.P,e,278*%
X19685000Y22225000D03*
%TO.P,e,277*%
X17145000Y22225000D03*
%TO.P,e,276*%
X14605000Y22225000D03*
%TO.P,e,275*%
X12065000Y22225000D03*
%TO.P,e,274*%
X9525000Y22225000D03*
%TO.P,e,273*%
X6985000Y22225000D03*
%TO.P,e,272*%
X4445000Y22225000D03*
%TO.P,e,271*%
X1905000Y22225000D03*
%TO.P,e,270*%
X67945000Y24765000D03*
%TO.P,e,269*%
X65405000Y24765000D03*
%TO.P,e,268*%
X62865000Y24765000D03*
%TO.P,e,267*%
X60325000Y24765000D03*
%TO.P,e,266*%
X57785000Y24765000D03*
%TO.P,e,265*%
X55245000Y24765000D03*
%TO.P,e,264*%
X52705000Y24765000D03*
%TO.P,e,263*%
X50165000Y24765000D03*
%TO.P,e,262*%
X47625000Y24765000D03*
%TO.P,e,261*%
X45085000Y24765000D03*
%TO.P,e,260*%
X42545000Y24765000D03*
%TO.P,e,259*%
X40005000Y24765000D03*
%TO.P,e,258*%
X37465000Y24765000D03*
%TO.P,e,257*%
X34925000Y24765000D03*
%TO.P,e,256*%
X32385000Y24765000D03*
%TO.P,e,255*%
X29845000Y24765000D03*
%TO.P,e,254*%
X27305000Y24765000D03*
%TO.P,e,253*%
X24765000Y24765000D03*
%TO.P,e,252*%
X22225000Y24765000D03*
%TO.P,e,251*%
X19685000Y24765000D03*
%TO.P,e,250*%
X17145000Y24765000D03*
%TO.P,e,249*%
X14605000Y24765000D03*
%TO.P,e,248*%
X12065000Y24765000D03*
%TO.P,e,247*%
X9525000Y24765000D03*
%TO.P,e,246*%
X6985000Y24765000D03*
%TO.P,e,245*%
X4445000Y24765000D03*
%TO.P,e,244*%
X1905000Y24765000D03*
%TO.P,e,243*%
X67945000Y27305000D03*
%TO.P,e,242*%
X65405000Y27305000D03*
%TO.P,e,241*%
X62865000Y27305000D03*
%TO.P,e,240*%
X60325000Y27305000D03*
%TO.P,e,239*%
X57785000Y27305000D03*
%TO.P,e,238*%
X55245000Y27305000D03*
%TO.P,e,237*%
X52705000Y27305000D03*
%TO.P,e,236*%
X50165000Y27305000D03*
%TO.P,e,235*%
X47625000Y27305000D03*
%TO.P,e,234*%
X45085000Y27305000D03*
%TO.P,e,233*%
X42545000Y27305000D03*
%TO.P,e,232*%
X40005000Y27305000D03*
%TO.P,e,231*%
X37465000Y27305000D03*
%TO.P,e,230*%
X34925000Y27305000D03*
%TO.P,e,229*%
X32385000Y27305000D03*
%TO.P,e,228*%
X29845000Y27305000D03*
%TO.P,e,227*%
X27305000Y27305000D03*
%TO.P,e,226*%
X24765000Y27305000D03*
%TO.P,e,225*%
X22225000Y27305000D03*
%TO.P,e,224*%
X19685000Y27305000D03*
%TO.P,e,223*%
X17145000Y27305000D03*
%TO.P,e,222*%
X14605000Y27305000D03*
%TO.P,e,221*%
X12065000Y27305000D03*
%TO.P,e,220*%
X9525000Y27305000D03*
%TO.P,e,219*%
X6985000Y27305000D03*
%TO.P,e,218*%
X4445000Y27305000D03*
%TO.P,e,217*%
X1905000Y27305000D03*
%TO.P,e,216*%
X67945000Y29845000D03*
%TO.P,e,215*%
X65405000Y29845000D03*
%TO.P,e,214*%
X62865000Y29845000D03*
%TO.P,e,213*%
X60325000Y29845000D03*
%TO.P,e,212*%
X57785000Y29845000D03*
%TO.P,e,211*%
X55245000Y29845000D03*
%TO.P,e,210*%
X52705000Y29845000D03*
%TO.P,e,209*%
X50165000Y29845000D03*
%TO.P,e,208*%
X47625000Y29845000D03*
%TO.P,e,207*%
X45085000Y29845000D03*
%TO.P,e,206*%
X42545000Y29845000D03*
%TO.P,e,205*%
X40005000Y29845000D03*
%TO.P,e,204*%
X37465000Y29845000D03*
%TO.P,e,203*%
X34925000Y29845000D03*
%TO.P,e,202*%
X32385000Y29845000D03*
%TO.P,e,201*%
X29845000Y29845000D03*
%TO.P,e,200*%
X27305000Y29845000D03*
%TO.P,e,199*%
X24765000Y29845000D03*
%TO.P,e,198*%
X22225000Y29845000D03*
%TO.P,e,197*%
X19685000Y29845000D03*
%TO.P,e,196*%
X17145000Y29845000D03*
%TO.P,e,195*%
X14605000Y29845000D03*
%TO.P,e,194*%
X12065000Y29845000D03*
%TO.P,e,193*%
X9525000Y29845000D03*
%TO.P,e,192*%
X6985000Y29845000D03*
%TO.P,e,191*%
X4445000Y29845000D03*
%TO.P,e,190*%
X1905000Y29845000D03*
%TO.P,e,189*%
X67945000Y32385000D03*
%TO.P,e,188*%
X65405000Y32385000D03*
%TO.P,e,187*%
X62865000Y32385000D03*
%TO.P,e,186*%
X60325000Y32385000D03*
%TO.P,e,185*%
X57785000Y32385000D03*
%TO.P,e,184*%
X55245000Y32385000D03*
%TO.P,e,183*%
X52705000Y32385000D03*
%TO.P,e,182*%
X50165000Y32385000D03*
%TO.P,e,181*%
X47625000Y32385000D03*
%TO.P,e,180*%
X45085000Y32385000D03*
%TO.P,e,179*%
X42545000Y32385000D03*
%TO.P,e,178*%
X40005000Y32385000D03*
%TO.P,e,177*%
X37465000Y32385000D03*
%TO.P,e,176*%
X34925000Y32385000D03*
%TO.P,e,175*%
X32385000Y32385000D03*
%TO.P,e,174*%
X29845000Y32385000D03*
%TO.P,e,173*%
X27305000Y32385000D03*
%TO.P,e,172*%
X24765000Y32385000D03*
%TO.P,e,171*%
X22225000Y32385000D03*
%TO.P,e,170*%
X19685000Y32385000D03*
%TO.P,e,169*%
X17145000Y32385000D03*
%TO.P,e,168*%
X14605000Y32385000D03*
%TO.P,e,167*%
X12065000Y32385000D03*
%TO.P,e,166*%
X9525000Y32385000D03*
%TO.P,e,165*%
X6985000Y32385000D03*
%TO.P,e,164*%
X4445000Y32385000D03*
%TO.P,e,163*%
X1905000Y32385000D03*
%TO.P,e,162*%
X67945000Y34925000D03*
%TO.P,e,161*%
X65405000Y34925000D03*
%TO.P,e,160*%
X62865000Y34925000D03*
%TO.P,e,159*%
X60325000Y34925000D03*
%TO.P,e,158*%
X57785000Y34925000D03*
%TO.P,e,157*%
X55245000Y34925000D03*
%TO.P,e,156*%
X52705000Y34925000D03*
%TO.P,e,155*%
X50165000Y34925000D03*
%TO.P,e,154*%
X47625000Y34925000D03*
%TO.P,e,153*%
X45085000Y34925000D03*
%TO.P,e,152*%
X42545000Y34925000D03*
%TO.P,e,151*%
X40005000Y34925000D03*
%TO.P,e,150*%
X37465000Y34925000D03*
%TO.P,e,149*%
X34925000Y34925000D03*
%TO.P,e,148*%
X32385000Y34925000D03*
%TO.P,e,147*%
X29845000Y34925000D03*
%TO.P,e,146*%
X27305000Y34925000D03*
%TO.P,e,145*%
X24765000Y34925000D03*
%TO.P,e,144*%
X22225000Y34925000D03*
%TO.P,e,143*%
X19685000Y34925000D03*
%TO.P,e,142*%
X17145000Y34925000D03*
%TO.P,e,141*%
X14605000Y34925000D03*
%TO.P,e,140*%
X12065000Y34925000D03*
%TO.P,e,139*%
X9525000Y34925000D03*
%TO.P,e,138*%
X6985000Y34925000D03*
%TO.P,e,137*%
X4445000Y34925000D03*
%TO.P,e,136*%
X1905000Y34925000D03*
%TO.P,e,135*%
X67945000Y37465000D03*
%TO.P,e,134*%
X65405000Y37465000D03*
%TO.P,e,133*%
X62865000Y37465000D03*
%TO.P,e,132*%
X60325000Y37465000D03*
%TO.P,e,131*%
X57785000Y37465000D03*
%TO.P,e,130*%
X55245000Y37465000D03*
%TO.P,e,129*%
X52705000Y37465000D03*
%TO.P,e,128*%
X50165000Y37465000D03*
%TO.P,e,127*%
X47625000Y37465000D03*
%TO.P,e,126*%
X45085000Y37465000D03*
%TO.P,e,125*%
X42545000Y37465000D03*
%TO.P,e,124*%
X40005000Y37465000D03*
%TO.P,e,123*%
X37465000Y37465000D03*
%TO.P,e,122*%
X34925000Y37465000D03*
%TO.P,e,121*%
X32385000Y37465000D03*
%TO.P,e,120*%
X29845000Y37465000D03*
%TO.P,e,119*%
X27305000Y37465000D03*
%TO.P,e,118*%
X24765000Y37465000D03*
%TO.P,e,117*%
X22225000Y37465000D03*
%TO.P,e,116*%
X19685000Y37465000D03*
%TO.P,e,115*%
X17145000Y37465000D03*
%TO.P,e,114*%
X14605000Y37465000D03*
%TO.P,e,113*%
X12065000Y37465000D03*
%TO.P,e,112*%
X9525000Y37465000D03*
%TO.P,e,111*%
X6985000Y37465000D03*
%TO.P,e,110*%
X4445000Y37465000D03*
%TO.P,e,109*%
X1905000Y37465000D03*
%TO.P,e,108*%
X67945000Y40005000D03*
%TO.P,e,107*%
X65405000Y40005000D03*
%TO.P,e,106*%
X62865000Y40005000D03*
%TO.P,e,105*%
X60325000Y40005000D03*
%TO.P,e,104*%
X57785000Y40005000D03*
%TO.P,e,103*%
X55245000Y40005000D03*
%TO.P,e,102*%
X52705000Y40005000D03*
%TO.P,e,101*%
X50165000Y40005000D03*
%TO.P,e,100*%
X47625000Y40005000D03*
%TO.P,e,99*%
X45085000Y40005000D03*
%TO.P,e,98*%
X42545000Y40005000D03*
%TO.P,e,97*%
X40005000Y40005000D03*
%TO.P,e,96*%
X37465000Y40005000D03*
%TO.P,e,95*%
X34925000Y40005000D03*
%TO.P,e,94*%
X32385000Y40005000D03*
%TO.P,e,93*%
X29845000Y40005000D03*
%TO.P,e,92*%
X27305000Y40005000D03*
%TO.P,e,91*%
X24765000Y40005000D03*
%TO.P,e,90*%
X22225000Y40005000D03*
%TO.P,e,89*%
X19685000Y40005000D03*
%TO.P,e,88*%
X17145000Y40005000D03*
%TO.P,e,87*%
X14605000Y40005000D03*
%TO.P,e,86*%
X12065000Y40005000D03*
%TO.P,e,85*%
X9525000Y40005000D03*
%TO.P,e,84*%
X6985000Y40005000D03*
%TO.P,e,83*%
X4445000Y40005000D03*
%TO.P,e,82*%
X1905000Y40005000D03*
%TO.P,e,81*%
X67945000Y42545000D03*
%TO.P,e,80*%
X65405000Y42545000D03*
%TO.P,e,79*%
X62865000Y42545000D03*
%TO.P,e,78*%
X60325000Y42545000D03*
%TO.P,e,77*%
X57785000Y42545000D03*
%TO.P,e,76*%
X55245000Y42545000D03*
%TO.P,e,75*%
X52705000Y42545000D03*
%TO.P,e,74*%
X50165000Y42545000D03*
%TO.P,e,73*%
X47625000Y42545000D03*
%TO.P,e,72*%
X45085000Y42545000D03*
%TO.P,e,71*%
X42545000Y42545000D03*
%TO.P,e,70*%
X40005000Y42545000D03*
%TO.P,e,69*%
X37465000Y42545000D03*
%TO.P,e,68*%
X34925000Y42545000D03*
%TO.P,e,67*%
X32385000Y42545000D03*
%TO.P,e,66*%
X29845000Y42545000D03*
%TO.P,e,65*%
X27305000Y42545000D03*
%TO.P,e,64*%
X24765000Y42545000D03*
%TO.P,e,63*%
X22225000Y42545000D03*
%TO.P,e,62*%
X19685000Y42545000D03*
%TO.P,e,61*%
X17145000Y42545000D03*
%TO.P,e,60*%
X14605000Y42545000D03*
%TO.P,e,59*%
X12065000Y42545000D03*
%TO.P,e,58*%
X9525000Y42545000D03*
%TO.P,e,57*%
X6985000Y42545000D03*
%TO.P,e,56*%
X4445000Y42545000D03*
%TO.P,e,55*%
X1905000Y42545000D03*
%TO.P,e,54*%
X67945000Y45085000D03*
%TO.P,e,53*%
X65405000Y45085000D03*
%TO.P,e,52*%
X62865000Y45085000D03*
%TO.P,e,51*%
X60325000Y45085000D03*
%TO.P,e,50*%
X57785000Y45085000D03*
%TO.P,e,49*%
X55245000Y45085000D03*
%TO.P,e,48*%
X52705000Y45085000D03*
%TO.P,e,47*%
X50165000Y45085000D03*
%TO.P,e,46*%
X47625000Y45085000D03*
%TO.P,e,45*%
X45085000Y45085000D03*
%TO.P,e,44*%
X42545000Y45085000D03*
%TO.P,e,43*%
X40005000Y45085000D03*
%TO.P,e,42*%
X37465000Y45085000D03*
%TO.P,e,41*%
X34925000Y45085000D03*
%TO.P,e,40*%
X32385000Y45085000D03*
%TO.P,e,39*%
X29845000Y45085000D03*
%TO.P,e,38*%
X27305000Y45085000D03*
%TO.P,e,37*%
X24765000Y45085000D03*
%TO.P,e,36*%
X22225000Y45085000D03*
%TO.P,e,35*%
X19685000Y45085000D03*
%TO.P,e,34*%
X17145000Y45085000D03*
%TO.P,e,33*%
X14605000Y45085000D03*
%TO.P,e,32*%
X12065000Y45085000D03*
%TO.P,e,31*%
X9525000Y45085000D03*
%TO.P,e,30*%
X6985000Y45085000D03*
%TO.P,e,29*%
X4445000Y45085000D03*
%TO.P,e,28*%
X1905000Y45085000D03*
%TO.P,e,27*%
X67945000Y47625000D03*
%TO.P,e,26*%
X65405000Y47625000D03*
%TO.P,e,25*%
X62865000Y47625000D03*
%TO.P,e,24*%
X60325000Y47625000D03*
%TO.P,e,23*%
X57785000Y47625000D03*
%TO.P,e,22*%
X55245000Y47625000D03*
%TO.P,e,21*%
X52705000Y47625000D03*
%TO.P,e,20*%
X50165000Y47625000D03*
%TO.P,e,19*%
X47625000Y47625000D03*
%TO.P,e,18*%
X45085000Y47625000D03*
%TO.P,e,17*%
X42545000Y47625000D03*
%TO.P,e,16*%
X40005000Y47625000D03*
%TO.P,e,15*%
X37465000Y47625000D03*
%TO.P,e,14*%
X34925000Y47625000D03*
%TO.P,e,13*%
X32385000Y47625000D03*
%TO.P,e,12*%
X29845000Y47625000D03*
%TO.P,e,11*%
X27305000Y47625000D03*
%TO.P,e,10*%
X24765000Y47625000D03*
%TO.P,e,9*%
X22225000Y47625000D03*
%TO.P,e,8*%
X19685000Y47625000D03*
%TO.P,e,7*%
X17145000Y47625000D03*
%TO.P,e,6*%
X14605000Y47625000D03*
%TO.P,e,5*%
X12065000Y47625000D03*
%TO.P,e,4*%
X9525000Y47625000D03*
%TO.P,e,3*%
X6985000Y47625000D03*
%TO.P,e,2*%
X4445000Y47625000D03*
%TO.P,e,1*%
X1905000Y47625000D03*
%TD*%
M02*
