%TF.GenerationSoftware,KiCad,Pcbnew,5.1.5+dfsg1-2build2*%
%TF.CreationDate,2020-10-05T13:16:32+02:00*%
%TF.ProjectId,pcb_50x70mm,7063625f-3530-4783-9730-6d6d2e6b6963,rev?*%
%TF.SameCoordinates,PX5f13998PY69fa208*%
%TF.FileFunction,Legend,Top*%
%TF.FilePolarity,Positive*%
%FSLAX46Y46*%
G04 Gerber Fmt 4.6, Leading zero omitted, Abs format (unit mm)*
G04 Created by KiCad (PCBNEW 5.1.5+dfsg1-2build2) date 2020-10-05 13:16:32*
%MOMM*%
%LPD*%
G04 APERTURE LIST*
%ADD10C,0.120000*%
%ADD11C,1.626000*%
G04 APERTURE END LIST*
D10*
%TO.C,e*%
X635000Y635000D02*
X635000Y48895000D01*
X69215000Y635000D02*
X635000Y635000D01*
X69215000Y48895000D02*
X69215000Y635000D01*
X635000Y48895000D02*
X69215000Y48895000D01*
%TD*%
%LPC*%
D11*
%TO.C,e*%
X67945000Y1905000D03*
X65405000Y1905000D03*
X62865000Y1905000D03*
X60325000Y1905000D03*
X57785000Y1905000D03*
X55245000Y1905000D03*
X52705000Y1905000D03*
X50165000Y1905000D03*
X47625000Y1905000D03*
X45085000Y1905000D03*
X42545000Y1905000D03*
X40005000Y1905000D03*
X37465000Y1905000D03*
X34925000Y1905000D03*
X32385000Y1905000D03*
X29845000Y1905000D03*
X27305000Y1905000D03*
X24765000Y1905000D03*
X22225000Y1905000D03*
X19685000Y1905000D03*
X17145000Y1905000D03*
X14605000Y1905000D03*
X12065000Y1905000D03*
X9525000Y1905000D03*
X6985000Y1905000D03*
X4445000Y1905000D03*
X1905000Y1905000D03*
X67945000Y4445000D03*
X65405000Y4445000D03*
X62865000Y4445000D03*
X60325000Y4445000D03*
X57785000Y4445000D03*
X55245000Y4445000D03*
X52705000Y4445000D03*
X50165000Y4445000D03*
X47625000Y4445000D03*
X45085000Y4445000D03*
X42545000Y4445000D03*
X40005000Y4445000D03*
X37465000Y4445000D03*
X34925000Y4445000D03*
X32385000Y4445000D03*
X29845000Y4445000D03*
X27305000Y4445000D03*
X24765000Y4445000D03*
X22225000Y4445000D03*
X19685000Y4445000D03*
X17145000Y4445000D03*
X14605000Y4445000D03*
X12065000Y4445000D03*
X9525000Y4445000D03*
X6985000Y4445000D03*
X4445000Y4445000D03*
X1905000Y4445000D03*
X67945000Y6985000D03*
X65405000Y6985000D03*
X62865000Y6985000D03*
X60325000Y6985000D03*
X57785000Y6985000D03*
X55245000Y6985000D03*
X52705000Y6985000D03*
X50165000Y6985000D03*
X47625000Y6985000D03*
X45085000Y6985000D03*
X42545000Y6985000D03*
X40005000Y6985000D03*
X37465000Y6985000D03*
X34925000Y6985000D03*
X32385000Y6985000D03*
X29845000Y6985000D03*
X27305000Y6985000D03*
X24765000Y6985000D03*
X22225000Y6985000D03*
X19685000Y6985000D03*
X17145000Y6985000D03*
X14605000Y6985000D03*
X12065000Y6985000D03*
X9525000Y6985000D03*
X6985000Y6985000D03*
X4445000Y6985000D03*
X1905000Y6985000D03*
X67945000Y9525000D03*
X65405000Y9525000D03*
X62865000Y9525000D03*
X60325000Y9525000D03*
X57785000Y9525000D03*
X55245000Y9525000D03*
X52705000Y9525000D03*
X50165000Y9525000D03*
X47625000Y9525000D03*
X45085000Y9525000D03*
X42545000Y9525000D03*
X40005000Y9525000D03*
X37465000Y9525000D03*
X34925000Y9525000D03*
X32385000Y9525000D03*
X29845000Y9525000D03*
X27305000Y9525000D03*
X24765000Y9525000D03*
X22225000Y9525000D03*
X19685000Y9525000D03*
X17145000Y9525000D03*
X14605000Y9525000D03*
X12065000Y9525000D03*
X9525000Y9525000D03*
X6985000Y9525000D03*
X4445000Y9525000D03*
X1905000Y9525000D03*
X67945000Y12065000D03*
X65405000Y12065000D03*
X62865000Y12065000D03*
X60325000Y12065000D03*
X57785000Y12065000D03*
X55245000Y12065000D03*
X52705000Y12065000D03*
X50165000Y12065000D03*
X47625000Y12065000D03*
X45085000Y12065000D03*
X42545000Y12065000D03*
X40005000Y12065000D03*
X37465000Y12065000D03*
X34925000Y12065000D03*
X32385000Y12065000D03*
X29845000Y12065000D03*
X27305000Y12065000D03*
X24765000Y12065000D03*
X22225000Y12065000D03*
X19685000Y12065000D03*
X17145000Y12065000D03*
X14605000Y12065000D03*
X12065000Y12065000D03*
X9525000Y12065000D03*
X6985000Y12065000D03*
X4445000Y12065000D03*
X1905000Y12065000D03*
X67945000Y14605000D03*
X65405000Y14605000D03*
X62865000Y14605000D03*
X60325000Y14605000D03*
X57785000Y14605000D03*
X55245000Y14605000D03*
X52705000Y14605000D03*
X50165000Y14605000D03*
X47625000Y14605000D03*
X45085000Y14605000D03*
X42545000Y14605000D03*
X40005000Y14605000D03*
X37465000Y14605000D03*
X34925000Y14605000D03*
X32385000Y14605000D03*
X29845000Y14605000D03*
X27305000Y14605000D03*
X24765000Y14605000D03*
X22225000Y14605000D03*
X19685000Y14605000D03*
X17145000Y14605000D03*
X14605000Y14605000D03*
X12065000Y14605000D03*
X9525000Y14605000D03*
X6985000Y14605000D03*
X4445000Y14605000D03*
X1905000Y14605000D03*
X67945000Y17145000D03*
X65405000Y17145000D03*
X62865000Y17145000D03*
X60325000Y17145000D03*
X57785000Y17145000D03*
X55245000Y17145000D03*
X52705000Y17145000D03*
X50165000Y17145000D03*
X47625000Y17145000D03*
X45085000Y17145000D03*
X42545000Y17145000D03*
X40005000Y17145000D03*
X37465000Y17145000D03*
X34925000Y17145000D03*
X32385000Y17145000D03*
X29845000Y17145000D03*
X27305000Y17145000D03*
X24765000Y17145000D03*
X22225000Y17145000D03*
X19685000Y17145000D03*
X17145000Y17145000D03*
X14605000Y17145000D03*
X12065000Y17145000D03*
X9525000Y17145000D03*
X6985000Y17145000D03*
X4445000Y17145000D03*
X1905000Y17145000D03*
X67945000Y19685000D03*
X65405000Y19685000D03*
X62865000Y19685000D03*
X60325000Y19685000D03*
X57785000Y19685000D03*
X55245000Y19685000D03*
X52705000Y19685000D03*
X50165000Y19685000D03*
X47625000Y19685000D03*
X45085000Y19685000D03*
X42545000Y19685000D03*
X40005000Y19685000D03*
X37465000Y19685000D03*
X34925000Y19685000D03*
X32385000Y19685000D03*
X29845000Y19685000D03*
X27305000Y19685000D03*
X24765000Y19685000D03*
X22225000Y19685000D03*
X19685000Y19685000D03*
X17145000Y19685000D03*
X14605000Y19685000D03*
X12065000Y19685000D03*
X9525000Y19685000D03*
X6985000Y19685000D03*
X4445000Y19685000D03*
X1905000Y19685000D03*
X67945000Y22225000D03*
X65405000Y22225000D03*
X62865000Y22225000D03*
X60325000Y22225000D03*
X57785000Y22225000D03*
X55245000Y22225000D03*
X52705000Y22225000D03*
X50165000Y22225000D03*
X47625000Y22225000D03*
X45085000Y22225000D03*
X42545000Y22225000D03*
X40005000Y22225000D03*
X37465000Y22225000D03*
X34925000Y22225000D03*
X32385000Y22225000D03*
X29845000Y22225000D03*
X27305000Y22225000D03*
X24765000Y22225000D03*
X22225000Y22225000D03*
X19685000Y22225000D03*
X17145000Y22225000D03*
X14605000Y22225000D03*
X12065000Y22225000D03*
X9525000Y22225000D03*
X6985000Y22225000D03*
X4445000Y22225000D03*
X1905000Y22225000D03*
X67945000Y24765000D03*
X65405000Y24765000D03*
X62865000Y24765000D03*
X60325000Y24765000D03*
X57785000Y24765000D03*
X55245000Y24765000D03*
X52705000Y24765000D03*
X50165000Y24765000D03*
X47625000Y24765000D03*
X45085000Y24765000D03*
X42545000Y24765000D03*
X40005000Y24765000D03*
X37465000Y24765000D03*
X34925000Y24765000D03*
X32385000Y24765000D03*
X29845000Y24765000D03*
X27305000Y24765000D03*
X24765000Y24765000D03*
X22225000Y24765000D03*
X19685000Y24765000D03*
X17145000Y24765000D03*
X14605000Y24765000D03*
X12065000Y24765000D03*
X9525000Y24765000D03*
X6985000Y24765000D03*
X4445000Y24765000D03*
X1905000Y24765000D03*
X67945000Y27305000D03*
X65405000Y27305000D03*
X62865000Y27305000D03*
X60325000Y27305000D03*
X57785000Y27305000D03*
X55245000Y27305000D03*
X52705000Y27305000D03*
X50165000Y27305000D03*
X47625000Y27305000D03*
X45085000Y27305000D03*
X42545000Y27305000D03*
X40005000Y27305000D03*
X37465000Y27305000D03*
X34925000Y27305000D03*
X32385000Y27305000D03*
X29845000Y27305000D03*
X27305000Y27305000D03*
X24765000Y27305000D03*
X22225000Y27305000D03*
X19685000Y27305000D03*
X17145000Y27305000D03*
X14605000Y27305000D03*
X12065000Y27305000D03*
X9525000Y27305000D03*
X6985000Y27305000D03*
X4445000Y27305000D03*
X1905000Y27305000D03*
X67945000Y29845000D03*
X65405000Y29845000D03*
X62865000Y29845000D03*
X60325000Y29845000D03*
X57785000Y29845000D03*
X55245000Y29845000D03*
X52705000Y29845000D03*
X50165000Y29845000D03*
X47625000Y29845000D03*
X45085000Y29845000D03*
X42545000Y29845000D03*
X40005000Y29845000D03*
X37465000Y29845000D03*
X34925000Y29845000D03*
X32385000Y29845000D03*
X29845000Y29845000D03*
X27305000Y29845000D03*
X24765000Y29845000D03*
X22225000Y29845000D03*
X19685000Y29845000D03*
X17145000Y29845000D03*
X14605000Y29845000D03*
X12065000Y29845000D03*
X9525000Y29845000D03*
X6985000Y29845000D03*
X4445000Y29845000D03*
X1905000Y29845000D03*
X67945000Y32385000D03*
X65405000Y32385000D03*
X62865000Y32385000D03*
X60325000Y32385000D03*
X57785000Y32385000D03*
X55245000Y32385000D03*
X52705000Y32385000D03*
X50165000Y32385000D03*
X47625000Y32385000D03*
X45085000Y32385000D03*
X42545000Y32385000D03*
X40005000Y32385000D03*
X37465000Y32385000D03*
X34925000Y32385000D03*
X32385000Y32385000D03*
X29845000Y32385000D03*
X27305000Y32385000D03*
X24765000Y32385000D03*
X22225000Y32385000D03*
X19685000Y32385000D03*
X17145000Y32385000D03*
X14605000Y32385000D03*
X12065000Y32385000D03*
X9525000Y32385000D03*
X6985000Y32385000D03*
X4445000Y32385000D03*
X1905000Y32385000D03*
X67945000Y34925000D03*
X65405000Y34925000D03*
X62865000Y34925000D03*
X60325000Y34925000D03*
X57785000Y34925000D03*
X55245000Y34925000D03*
X52705000Y34925000D03*
X50165000Y34925000D03*
X47625000Y34925000D03*
X45085000Y34925000D03*
X42545000Y34925000D03*
X40005000Y34925000D03*
X37465000Y34925000D03*
X34925000Y34925000D03*
X32385000Y34925000D03*
X29845000Y34925000D03*
X27305000Y34925000D03*
X24765000Y34925000D03*
X22225000Y34925000D03*
X19685000Y34925000D03*
X17145000Y34925000D03*
X14605000Y34925000D03*
X12065000Y34925000D03*
X9525000Y34925000D03*
X6985000Y34925000D03*
X4445000Y34925000D03*
X1905000Y34925000D03*
X67945000Y37465000D03*
X65405000Y37465000D03*
X62865000Y37465000D03*
X60325000Y37465000D03*
X57785000Y37465000D03*
X55245000Y37465000D03*
X52705000Y37465000D03*
X50165000Y37465000D03*
X47625000Y37465000D03*
X45085000Y37465000D03*
X42545000Y37465000D03*
X40005000Y37465000D03*
X37465000Y37465000D03*
X34925000Y37465000D03*
X32385000Y37465000D03*
X29845000Y37465000D03*
X27305000Y37465000D03*
X24765000Y37465000D03*
X22225000Y37465000D03*
X19685000Y37465000D03*
X17145000Y37465000D03*
X14605000Y37465000D03*
X12065000Y37465000D03*
X9525000Y37465000D03*
X6985000Y37465000D03*
X4445000Y37465000D03*
X1905000Y37465000D03*
X67945000Y40005000D03*
X65405000Y40005000D03*
X62865000Y40005000D03*
X60325000Y40005000D03*
X57785000Y40005000D03*
X55245000Y40005000D03*
X52705000Y40005000D03*
X50165000Y40005000D03*
X47625000Y40005000D03*
X45085000Y40005000D03*
X42545000Y40005000D03*
X40005000Y40005000D03*
X37465000Y40005000D03*
X34925000Y40005000D03*
X32385000Y40005000D03*
X29845000Y40005000D03*
X27305000Y40005000D03*
X24765000Y40005000D03*
X22225000Y40005000D03*
X19685000Y40005000D03*
X17145000Y40005000D03*
X14605000Y40005000D03*
X12065000Y40005000D03*
X9525000Y40005000D03*
X6985000Y40005000D03*
X4445000Y40005000D03*
X1905000Y40005000D03*
X67945000Y42545000D03*
X65405000Y42545000D03*
X62865000Y42545000D03*
X60325000Y42545000D03*
X57785000Y42545000D03*
X55245000Y42545000D03*
X52705000Y42545000D03*
X50165000Y42545000D03*
X47625000Y42545000D03*
X45085000Y42545000D03*
X42545000Y42545000D03*
X40005000Y42545000D03*
X37465000Y42545000D03*
X34925000Y42545000D03*
X32385000Y42545000D03*
X29845000Y42545000D03*
X27305000Y42545000D03*
X24765000Y42545000D03*
X22225000Y42545000D03*
X19685000Y42545000D03*
X17145000Y42545000D03*
X14605000Y42545000D03*
X12065000Y42545000D03*
X9525000Y42545000D03*
X6985000Y42545000D03*
X4445000Y42545000D03*
X1905000Y42545000D03*
X67945000Y45085000D03*
X65405000Y45085000D03*
X62865000Y45085000D03*
X60325000Y45085000D03*
X57785000Y45085000D03*
X55245000Y45085000D03*
X52705000Y45085000D03*
X50165000Y45085000D03*
X47625000Y45085000D03*
X45085000Y45085000D03*
X42545000Y45085000D03*
X40005000Y45085000D03*
X37465000Y45085000D03*
X34925000Y45085000D03*
X32385000Y45085000D03*
X29845000Y45085000D03*
X27305000Y45085000D03*
X24765000Y45085000D03*
X22225000Y45085000D03*
X19685000Y45085000D03*
X17145000Y45085000D03*
X14605000Y45085000D03*
X12065000Y45085000D03*
X9525000Y45085000D03*
X6985000Y45085000D03*
X4445000Y45085000D03*
X1905000Y45085000D03*
X67945000Y47625000D03*
X65405000Y47625000D03*
X62865000Y47625000D03*
X60325000Y47625000D03*
X57785000Y47625000D03*
X55245000Y47625000D03*
X52705000Y47625000D03*
X50165000Y47625000D03*
X47625000Y47625000D03*
X45085000Y47625000D03*
X42545000Y47625000D03*
X40005000Y47625000D03*
X37465000Y47625000D03*
X34925000Y47625000D03*
X32385000Y47625000D03*
X29845000Y47625000D03*
X27305000Y47625000D03*
X24765000Y47625000D03*
X22225000Y47625000D03*
X19685000Y47625000D03*
X17145000Y47625000D03*
X14605000Y47625000D03*
X12065000Y47625000D03*
X9525000Y47625000D03*
X6985000Y47625000D03*
X4445000Y47625000D03*
X1905000Y47625000D03*
%TD*%
M02*
