M48
; DRILL file {KiCad 5.1.5+dfsg1-2build2} date Mon 05 Oct 2020 13:16:51 CEST
; FORMAT={-:-/ absolute / inch / decimal}
; #@! TF.CreationDate,2020-10-05T13:16:51+02:00
; #@! TF.GenerationSoftware,Kicad,Pcbnew,5.1.5+dfsg1-2build2
FMAT,2
INCH
T1C0.0300
%
G90
G05
T1
X0.075Y1.875
X0.075Y1.775
X0.075Y1.675
X0.075Y1.575
X0.075Y1.475
X0.075Y1.375
X0.075Y1.275
X0.075Y1.175
X0.075Y1.075
X0.075Y0.975
X0.075Y0.875
X0.075Y0.775
X0.075Y0.675
X0.075Y0.575
X0.075Y0.475
X0.075Y0.375
X0.075Y0.275
X0.075Y0.175
X0.075Y0.075
X0.175Y1.875
X0.175Y1.775
X0.175Y1.675
X0.175Y1.575
X0.175Y1.475
X0.175Y1.375
X0.175Y1.275
X0.175Y1.175
X0.175Y1.075
X0.175Y0.975
X0.175Y0.875
X0.175Y0.775
X0.175Y0.675
X0.175Y0.575
X0.175Y0.475
X0.175Y0.375
X0.175Y0.275
X0.175Y0.175
X0.175Y0.075
X0.275Y1.875
X0.275Y1.775
X0.275Y1.675
X0.275Y1.575
X0.275Y1.475
X0.275Y1.375
X0.275Y1.275
X0.275Y1.175
X0.275Y1.075
X0.275Y0.975
X0.275Y0.875
X0.275Y0.775
X0.275Y0.675
X0.275Y0.575
X0.275Y0.475
X0.275Y0.375
X0.275Y0.275
X0.275Y0.175
X0.275Y0.075
X0.375Y1.875
X0.375Y1.775
X0.375Y1.675
X0.375Y1.575
X0.375Y1.475
X0.375Y1.375
X0.375Y1.275
X0.375Y1.175
X0.375Y1.075
X0.375Y0.975
X0.375Y0.875
X0.375Y0.775
X0.375Y0.675
X0.375Y0.575
X0.375Y0.475
X0.375Y0.375
X0.375Y0.275
X0.375Y0.175
X0.375Y0.075
X0.475Y1.875
X0.475Y1.775
X0.475Y1.675
X0.475Y1.575
X0.475Y1.475
X0.475Y1.375
X0.475Y1.275
X0.475Y1.175
X0.475Y1.075
X0.475Y0.975
X0.475Y0.875
X0.475Y0.775
X0.475Y0.675
X0.475Y0.575
X0.475Y0.475
X0.475Y0.375
X0.475Y0.275
X0.475Y0.175
X0.475Y0.075
X0.575Y1.875
X0.575Y1.775
X0.575Y1.675
X0.575Y1.575
X0.575Y1.475
X0.575Y1.375
X0.575Y1.275
X0.575Y1.175
X0.575Y1.075
X0.575Y0.975
X0.575Y0.875
X0.575Y0.775
X0.575Y0.675
X0.575Y0.575
X0.575Y0.475
X0.575Y0.375
X0.575Y0.275
X0.575Y0.175
X0.575Y0.075
X0.675Y1.875
X0.675Y1.775
X0.675Y1.675
X0.675Y1.575
X0.675Y1.475
X0.675Y1.375
X0.675Y1.275
X0.675Y1.175
X0.675Y1.075
X0.675Y0.975
X0.675Y0.875
X0.675Y0.775
X0.675Y0.675
X0.675Y0.575
X0.675Y0.475
X0.675Y0.375
X0.675Y0.275
X0.675Y0.175
X0.675Y0.075
X0.775Y1.875
X0.775Y1.775
X0.775Y1.675
X0.775Y1.575
X0.775Y1.475
X0.775Y1.375
X0.775Y1.275
X0.775Y1.175
X0.775Y1.075
X0.775Y0.975
X0.775Y0.875
X0.775Y0.775
X0.775Y0.675
X0.775Y0.575
X0.775Y0.475
X0.775Y0.375
X0.775Y0.275
X0.775Y0.175
X0.775Y0.075
X0.875Y1.875
X0.875Y1.775
X0.875Y1.675
X0.875Y1.575
X0.875Y1.475
X0.875Y1.375
X0.875Y1.275
X0.875Y1.175
X0.875Y1.075
X0.875Y0.975
X0.875Y0.875
X0.875Y0.775
X0.875Y0.675
X0.875Y0.575
X0.875Y0.475
X0.875Y0.375
X0.875Y0.275
X0.875Y0.175
X0.875Y0.075
X0.975Y1.875
X0.975Y1.775
X0.975Y1.675
X0.975Y1.575
X0.975Y1.475
X0.975Y1.375
X0.975Y1.275
X0.975Y1.175
X0.975Y1.075
X0.975Y0.975
X0.975Y0.875
X0.975Y0.775
X0.975Y0.675
X0.975Y0.575
X0.975Y0.475
X0.975Y0.375
X0.975Y0.275
X0.975Y0.175
X0.975Y0.075
X1.075Y1.875
X1.075Y1.775
X1.075Y1.675
X1.075Y1.575
X1.075Y1.475
X1.075Y1.375
X1.075Y1.275
X1.075Y1.175
X1.075Y1.075
X1.075Y0.975
X1.075Y0.875
X1.075Y0.775
X1.075Y0.675
X1.075Y0.575
X1.075Y0.475
X1.075Y0.375
X1.075Y0.275
X1.075Y0.175
X1.075Y0.075
X1.175Y1.875
X1.175Y1.775
X1.175Y1.675
X1.175Y1.575
X1.175Y1.475
X1.175Y1.375
X1.175Y1.275
X1.175Y1.175
X1.175Y1.075
X1.175Y0.975
X1.175Y0.875
X1.175Y0.775
X1.175Y0.675
X1.175Y0.575
X1.175Y0.475
X1.175Y0.375
X1.175Y0.275
X1.175Y0.175
X1.175Y0.075
X1.275Y1.875
X1.275Y1.775
X1.275Y1.675
X1.275Y1.575
X1.275Y1.475
X1.275Y1.375
X1.275Y1.275
X1.275Y1.175
X1.275Y1.075
X1.275Y0.975
X1.275Y0.875
X1.275Y0.775
X1.275Y0.675
X1.275Y0.575
X1.275Y0.475
X1.275Y0.375
X1.275Y0.275
X1.275Y0.175
X1.275Y0.075
X1.375Y1.875
X1.375Y1.775
X1.375Y1.675
X1.375Y1.575
X1.375Y1.475
X1.375Y1.375
X1.375Y1.275
X1.375Y1.175
X1.375Y1.075
X1.375Y0.975
X1.375Y0.875
X1.375Y0.775
X1.375Y0.675
X1.375Y0.575
X1.375Y0.475
X1.375Y0.375
X1.375Y0.275
X1.375Y0.175
X1.375Y0.075
X1.475Y1.875
X1.475Y1.775
X1.475Y1.675
X1.475Y1.575
X1.475Y1.475
X1.475Y1.375
X1.475Y1.275
X1.475Y1.175
X1.475Y1.075
X1.475Y0.975
X1.475Y0.875
X1.475Y0.775
X1.475Y0.675
X1.475Y0.575
X1.475Y0.475
X1.475Y0.375
X1.475Y0.275
X1.475Y0.175
X1.475Y0.075
X1.575Y1.875
X1.575Y1.775
X1.575Y1.675
X1.575Y1.575
X1.575Y1.475
X1.575Y1.375
X1.575Y1.275
X1.575Y1.175
X1.575Y1.075
X1.575Y0.975
X1.575Y0.875
X1.575Y0.775
X1.575Y0.675
X1.575Y0.575
X1.575Y0.475
X1.575Y0.375
X1.575Y0.275
X1.575Y0.175
X1.575Y0.075
X1.675Y1.875
X1.675Y1.775
X1.675Y1.675
X1.675Y1.575
X1.675Y1.475
X1.675Y1.375
X1.675Y1.275
X1.675Y1.175
X1.675Y1.075
X1.675Y0.975
X1.675Y0.875
X1.675Y0.775
X1.675Y0.675
X1.675Y0.575
X1.675Y0.475
X1.675Y0.375
X1.675Y0.275
X1.675Y0.175
X1.675Y0.075
X1.775Y1.875
X1.775Y1.775
X1.775Y1.675
X1.775Y1.575
X1.775Y1.475
X1.775Y1.375
X1.775Y1.275
X1.775Y1.175
X1.775Y1.075
X1.775Y0.975
X1.775Y0.875
X1.775Y0.775
X1.775Y0.675
X1.775Y0.575
X1.775Y0.475
X1.775Y0.375
X1.775Y0.275
X1.775Y0.175
X1.775Y0.075
X1.875Y1.875
X1.875Y1.775
X1.875Y1.675
X1.875Y1.575
X1.875Y1.475
X1.875Y1.375
X1.875Y1.275
X1.875Y1.175
X1.875Y1.075
X1.875Y0.975
X1.875Y0.875
X1.875Y0.775
X1.875Y0.675
X1.875Y0.575
X1.875Y0.475
X1.875Y0.375
X1.875Y0.275
X1.875Y0.175
X1.875Y0.075
X1.975Y1.875
X1.975Y1.775
X1.975Y1.675
X1.975Y1.575
X1.975Y1.475
X1.975Y1.375
X1.975Y1.275
X1.975Y1.175
X1.975Y1.075
X1.975Y0.975
X1.975Y0.875
X1.975Y0.775
X1.975Y0.675
X1.975Y0.575
X1.975Y0.475
X1.975Y0.375
X1.975Y0.275
X1.975Y0.175
X1.975Y0.075
X2.075Y1.875
X2.075Y1.775
X2.075Y1.675
X2.075Y1.575
X2.075Y1.475
X2.075Y1.375
X2.075Y1.275
X2.075Y1.175
X2.075Y1.075
X2.075Y0.975
X2.075Y0.875
X2.075Y0.775
X2.075Y0.675
X2.075Y0.575
X2.075Y0.475
X2.075Y0.375
X2.075Y0.275
X2.075Y0.175
X2.075Y0.075
X2.175Y1.875
X2.175Y1.775
X2.175Y1.675
X2.175Y1.575
X2.175Y1.475
X2.175Y1.375
X2.175Y1.275
X2.175Y1.175
X2.175Y1.075
X2.175Y0.975
X2.175Y0.875
X2.175Y0.775
X2.175Y0.675
X2.175Y0.575
X2.175Y0.475
X2.175Y0.375
X2.175Y0.275
X2.175Y0.175
X2.175Y0.075
X2.275Y1.875
X2.275Y1.775
X2.275Y1.675
X2.275Y1.575
X2.275Y1.475
X2.275Y1.375
X2.275Y1.275
X2.275Y1.175
X2.275Y1.075
X2.275Y0.975
X2.275Y0.875
X2.275Y0.775
X2.275Y0.675
X2.275Y0.575
X2.275Y0.475
X2.275Y0.375
X2.275Y0.275
X2.275Y0.175
X2.275Y0.075
X2.375Y1.875
X2.375Y1.775
X2.375Y1.675
X2.375Y1.575
X2.375Y1.475
X2.375Y1.375
X2.375Y1.275
X2.375Y1.175
X2.375Y1.075
X2.375Y0.975
X2.375Y0.875
X2.375Y0.775
X2.375Y0.675
X2.375Y0.575
X2.375Y0.475
X2.375Y0.375
X2.375Y0.275
X2.375Y0.175
X2.375Y0.075
X2.475Y1.875
X2.475Y1.775
X2.475Y1.675
X2.475Y1.575
X2.475Y1.475
X2.475Y1.375
X2.475Y1.275
X2.475Y1.175
X2.475Y1.075
X2.475Y0.975
X2.475Y0.875
X2.475Y0.775
X2.475Y0.675
X2.475Y0.575
X2.475Y0.475
X2.475Y0.375
X2.475Y0.275
X2.475Y0.175
X2.475Y0.075
X2.575Y1.875
X2.575Y1.775
X2.575Y1.675
X2.575Y1.575
X2.575Y1.475
X2.575Y1.375
X2.575Y1.275
X2.575Y1.175
X2.575Y1.075
X2.575Y0.975
X2.575Y0.875
X2.575Y0.775
X2.575Y0.675
X2.575Y0.575
X2.575Y0.475
X2.575Y0.375
X2.575Y0.275
X2.575Y0.175
X2.575Y0.075
X2.675Y1.875
X2.675Y1.775
X2.675Y1.675
X2.675Y1.575
X2.675Y1.475
X2.675Y1.375
X2.675Y1.275
X2.675Y1.175
X2.675Y1.075
X2.675Y0.975
X2.675Y0.875
X2.675Y0.775
X2.675Y0.675
X2.675Y0.575
X2.675Y0.475
X2.675Y0.375
X2.675Y0.275
X2.675Y0.175
X2.675Y0.075
T0
M30
