%TF.GenerationSoftware,KiCad,Pcbnew,5.1.4-3.fc31*%
%TF.CreationDate,2019-11-27T18:40:14+01:00*%
%TF.ProjectId,SSOP-28_5.3x10.2mm_P0.65,53534f50-2d32-4385-9f35-2e337831302e,1.0*%
%TF.SameCoordinates,PX791ddc0PY6350ce0*%
%TF.FileFunction,Legend,Bot*%
%TF.FilePolarity,Positive*%
%FSLAX46Y46*%
G04 Gerber Fmt 4.6, Leading zero omitted, Abs format (unit mm)*
G04 Created by KiCad (PCBNEW 5.1.4-3.fc31) date 2019-11-27 18:40:14*
%MOMM*%
%LPD*%
G04 APERTURE LIST*
%ADD10C,0.120000*%
%ADD11C,0.150000*%
%ADD12R,1.802000X1.802000*%
%ADD13O,1.802000X1.802000*%
G04 APERTURE END LIST*
D10*
%TO.C,J1*%
X3870000Y1210000D02*
X1210000Y1210000D01*
X3870000Y34290000D02*
X3870000Y1210000D01*
X1210000Y34290000D02*
X1210000Y1210000D01*
X3870000Y34290000D02*
X1210000Y34290000D01*
X3870000Y35560000D02*
X3870000Y36890000D01*
X3870000Y36890000D02*
X2540000Y36890000D01*
%TO.C,J2*%
X26730000Y36890000D02*
X25400000Y36890000D01*
X26730000Y35560000D02*
X26730000Y36890000D01*
X26730000Y34290000D02*
X24070000Y34290000D01*
X24070000Y34290000D02*
X24070000Y1210000D01*
X26730000Y34290000D02*
X26730000Y1210000D01*
X26730000Y1210000D02*
X24070000Y1210000D01*
%TO.C,J1*%
D11*
X5413333Y33567620D02*
X5413333Y32853334D01*
X5460952Y32710477D01*
X5556190Y32615239D01*
X5699047Y32567620D01*
X5794285Y32567620D01*
X4413333Y32567620D02*
X4984761Y32567620D01*
X4699047Y32567620D02*
X4699047Y33567620D01*
X4794285Y33424762D01*
X4889523Y33329524D01*
X4984761Y33281905D01*
%TO.C,J2*%
X23193333Y33567620D02*
X23193333Y32853334D01*
X23240952Y32710477D01*
X23336190Y32615239D01*
X23479047Y32567620D01*
X23574285Y32567620D01*
X22764761Y33472381D02*
X22717142Y33520000D01*
X22621904Y33567620D01*
X22383809Y33567620D01*
X22288571Y33520000D01*
X22240952Y33472381D01*
X22193333Y33377143D01*
X22193333Y33281905D01*
X22240952Y33139048D01*
X22812380Y32567620D01*
X22193333Y32567620D01*
%TD*%
%LPC*%
D12*
%TO.C,J1*%
X2540000Y35560000D03*
D13*
X2540000Y33020000D03*
X2540000Y30480000D03*
X2540000Y27940000D03*
X2540000Y25400000D03*
X2540000Y22860000D03*
X2540000Y20320000D03*
X2540000Y17780000D03*
X2540000Y15240000D03*
X2540000Y12700000D03*
X2540000Y10160000D03*
X2540000Y7620000D03*
X2540000Y5080000D03*
X2540000Y2540000D03*
%TD*%
%TO.C,J2*%
X25400000Y2540000D03*
X25400000Y5080000D03*
X25400000Y7620000D03*
X25400000Y10160000D03*
X25400000Y12700000D03*
X25400000Y15240000D03*
X25400000Y17780000D03*
X25400000Y20320000D03*
X25400000Y22860000D03*
X25400000Y25400000D03*
X25400000Y27940000D03*
X25400000Y30480000D03*
X25400000Y33020000D03*
D12*
X25400000Y35560000D03*
%TD*%
M02*
