%TF.GenerationSoftware,KiCad,Pcbnew,5.1.4-3.fc31*%
%TF.CreationDate,2019-11-27T18:40:14+01:00*%
%TF.ProjectId,SSOP-28_5.3x10.2mm_P0.65,53534f50-2d32-4385-9f35-2e337831302e,1.0*%
%TF.SameCoordinates,PX791ddc0PY6350ce0*%
%TF.FileFunction,Legend,Top*%
%TF.FilePolarity,Positive*%
%FSLAX46Y46*%
G04 Gerber Fmt 4.6, Leading zero omitted, Abs format (unit mm)*
G04 Created by KiCad (PCBNEW 5.1.4-3.fc31) date 2019-11-27 18:40:14*
%MOMM*%
%LPD*%
G04 APERTURE LIST*
%ADD10C,0.150000*%
%ADD11R,1.802000X1.802000*%
%ADD12O,1.802000X1.802000*%
%ADD13R,1.852000X0.552000*%
G04 APERTURE END LIST*
D10*
X22669523Y2087620D02*
X22098095Y2087620D01*
X22383809Y2087620D02*
X22383809Y3087620D01*
X22288571Y2944762D01*
X22193333Y2849524D01*
X22098095Y2801905D01*
X23574285Y3087620D02*
X23098095Y3087620D01*
X23050476Y2611429D01*
X23098095Y2659048D01*
X23193333Y2706667D01*
X23431428Y2706667D01*
X23526666Y2659048D01*
X23574285Y2611429D01*
X23621904Y2516191D01*
X23621904Y2278096D01*
X23574285Y2182858D01*
X23526666Y2135239D01*
X23431428Y2087620D01*
X23193333Y2087620D01*
X23098095Y2135239D01*
X23050476Y2182858D01*
X4889523Y2087620D02*
X4318095Y2087620D01*
X4603809Y2087620D02*
X4603809Y3087620D01*
X4508571Y2944762D01*
X4413333Y2849524D01*
X4318095Y2801905D01*
X5746666Y2754286D02*
X5746666Y2087620D01*
X5508571Y3135239D02*
X5270476Y2420953D01*
X5889523Y2420953D01*
X22098095Y36012381D02*
X22145714Y36060000D01*
X22240952Y36107620D01*
X22479047Y36107620D01*
X22574285Y36060000D01*
X22621904Y36012381D01*
X22669523Y35917143D01*
X22669523Y35821905D01*
X22621904Y35679048D01*
X22050476Y35107620D01*
X22669523Y35107620D01*
X23240952Y35679048D02*
X23145714Y35726667D01*
X23098095Y35774286D01*
X23050476Y35869524D01*
X23050476Y35917143D01*
X23098095Y36012381D01*
X23145714Y36060000D01*
X23240952Y36107620D01*
X23431428Y36107620D01*
X23526666Y36060000D01*
X23574285Y36012381D01*
X23621904Y35917143D01*
X23621904Y35869524D01*
X23574285Y35774286D01*
X23526666Y35726667D01*
X23431428Y35679048D01*
X23240952Y35679048D01*
X23145714Y35631429D01*
X23098095Y35583810D01*
X23050476Y35488572D01*
X23050476Y35298096D01*
X23098095Y35202858D01*
X23145714Y35155239D01*
X23240952Y35107620D01*
X23431428Y35107620D01*
X23526666Y35155239D01*
X23574285Y35202858D01*
X23621904Y35298096D01*
X23621904Y35488572D01*
X23574285Y35583810D01*
X23526666Y35631429D01*
X23431428Y35679048D01*
X5365714Y35107620D02*
X4794285Y35107620D01*
X5080000Y35107620D02*
X5080000Y36107620D01*
X4984761Y35964762D01*
X4889523Y35869524D01*
X4794285Y35821905D01*
X8255713Y5834000D02*
X8160475Y5881620D01*
X8017618Y5881620D01*
X7874760Y5834000D01*
X7779522Y5738762D01*
X7731903Y5643524D01*
X7684284Y5453048D01*
X7684284Y5310191D01*
X7731903Y5119715D01*
X7779522Y5024477D01*
X7874760Y4929239D01*
X8017618Y4881620D01*
X8112856Y4881620D01*
X8255713Y4929239D01*
X8303332Y4976858D01*
X8303332Y5310191D01*
X8112856Y5310191D01*
X8731903Y4881620D02*
X8731903Y5881620D01*
X9303332Y4881620D01*
X9303332Y5881620D01*
X9779522Y5881620D02*
X9779522Y5072096D01*
X9827141Y4976858D01*
X9874760Y4929239D01*
X9969999Y4881620D01*
X10160475Y4881620D01*
X10255713Y4929239D01*
X10303332Y4976858D01*
X10350951Y5072096D01*
X10350951Y5881620D01*
X12112856Y5834000D02*
X12017618Y5881620D01*
X11874760Y5881620D01*
X11731903Y5834000D01*
X11636665Y5738762D01*
X11589046Y5643524D01*
X11541427Y5453048D01*
X11541427Y5310191D01*
X11589046Y5119715D01*
X11636665Y5024477D01*
X11731903Y4929239D01*
X11874760Y4881620D01*
X11969999Y4881620D01*
X12112856Y4929239D01*
X12160475Y4976858D01*
X12160475Y5310191D01*
X11969999Y5310191D01*
X12589046Y4881620D02*
X12589046Y5881620D01*
X12969999Y5881620D01*
X13065237Y5834000D01*
X13112856Y5786381D01*
X13160475Y5691143D01*
X13160475Y5548286D01*
X13112856Y5453048D01*
X13065237Y5405429D01*
X12969999Y5357810D01*
X12589046Y5357810D01*
X14065237Y4881620D02*
X13589046Y4881620D01*
X13589046Y5881620D01*
X14303332Y5548286D02*
X14541427Y4881620D01*
X14779522Y5548286D01*
X15065237Y5881620D02*
X15684284Y5881620D01*
X15350951Y5500667D01*
X15493808Y5500667D01*
X15589046Y5453048D01*
X15636665Y5405429D01*
X15684284Y5310191D01*
X15684284Y5072096D01*
X15636665Y4976858D01*
X15589046Y4929239D01*
X15493808Y4881620D01*
X15208094Y4881620D01*
X15112856Y4929239D01*
X15065237Y4976858D01*
X16827141Y5786381D02*
X16874760Y5834000D01*
X16969999Y5881620D01*
X17208094Y5881620D01*
X17303332Y5834000D01*
X17350951Y5786381D01*
X17398570Y5691143D01*
X17398570Y5595905D01*
X17350951Y5453048D01*
X16779522Y4881620D01*
X17398570Y4881620D01*
X18017618Y5881620D02*
X18112856Y5881620D01*
X18208094Y5834000D01*
X18255713Y5786381D01*
X18303332Y5691143D01*
X18350951Y5500667D01*
X18350951Y5262572D01*
X18303332Y5072096D01*
X18255713Y4976858D01*
X18208094Y4929239D01*
X18112856Y4881620D01*
X18017618Y4881620D01*
X17922379Y4929239D01*
X17874760Y4976858D01*
X17827141Y5072096D01*
X17779522Y5262572D01*
X17779522Y5500667D01*
X17827141Y5691143D01*
X17874760Y5786381D01*
X17922379Y5834000D01*
X18017618Y5881620D01*
X19303332Y4881620D02*
X18731903Y4881620D01*
X19017618Y4881620D02*
X19017618Y5881620D01*
X18922379Y5738762D01*
X18827141Y5643524D01*
X18731903Y5595905D01*
X19779522Y4881620D02*
X19969999Y4881620D01*
X20065237Y4929239D01*
X20112856Y4976858D01*
X20208094Y5119715D01*
X20255713Y5310191D01*
X20255713Y5691143D01*
X20208094Y5786381D01*
X20160475Y5834000D01*
X20065237Y5881620D01*
X19874760Y5881620D01*
X19779522Y5834000D01*
X19731903Y5786381D01*
X19684284Y5691143D01*
X19684284Y5453048D01*
X19731903Y5357810D01*
X19779522Y5310191D01*
X19874760Y5262572D01*
X20065237Y5262572D01*
X20160475Y5310191D01*
X20208094Y5357810D01*
X20255713Y5453048D01*
X7184284Y32947620D02*
X7184284Y33947620D01*
X7565237Y33947620D01*
X7660475Y33900000D01*
X7708094Y33852381D01*
X7755713Y33757143D01*
X7755713Y33614286D01*
X7708094Y33519048D01*
X7660475Y33471429D01*
X7565237Y33423810D01*
X7184284Y33423810D01*
X8755713Y32947620D02*
X8422379Y33423810D01*
X8184284Y32947620D02*
X8184284Y33947620D01*
X8565237Y33947620D01*
X8660475Y33900000D01*
X8708094Y33852381D01*
X8755713Y33757143D01*
X8755713Y33614286D01*
X8708094Y33519048D01*
X8660475Y33471429D01*
X8565237Y33423810D01*
X8184284Y33423810D01*
X9374760Y33947620D02*
X9565237Y33947620D01*
X9660475Y33900000D01*
X9755713Y33804762D01*
X9803332Y33614286D01*
X9803332Y33280953D01*
X9755713Y33090477D01*
X9660475Y32995239D01*
X9565237Y32947620D01*
X9374760Y32947620D01*
X9279522Y32995239D01*
X9184284Y33090477D01*
X9136665Y33280953D01*
X9136665Y33614286D01*
X9184284Y33804762D01*
X9279522Y33900000D01*
X9374760Y33947620D01*
X10089046Y33947620D02*
X10660475Y33947620D01*
X10374760Y32947620D02*
X10374760Y33947620D01*
X11184284Y33947620D02*
X11374760Y33947620D01*
X11469999Y33900000D01*
X11565237Y33804762D01*
X11612856Y33614286D01*
X11612856Y33280953D01*
X11565237Y33090477D01*
X11469999Y32995239D01*
X11374760Y32947620D01*
X11184284Y32947620D01*
X11089046Y32995239D01*
X10993808Y33090477D01*
X10946189Y33280953D01*
X10946189Y33614286D01*
X10993808Y33804762D01*
X11089046Y33900000D01*
X11184284Y33947620D01*
X11898570Y33947620D02*
X12469999Y33947620D01*
X12184284Y32947620D02*
X12184284Y33947620D01*
X12993808Y33423810D02*
X12993808Y32947620D01*
X12660475Y33947620D02*
X12993808Y33423810D01*
X13327141Y33947620D01*
X13660475Y32947620D02*
X13660475Y33947620D01*
X14041427Y33947620D01*
X14136665Y33900000D01*
X14184284Y33852381D01*
X14231903Y33757143D01*
X14231903Y33614286D01*
X14184284Y33519048D01*
X14136665Y33471429D01*
X14041427Y33423810D01*
X13660475Y33423810D01*
X14660475Y33471429D02*
X14993808Y33471429D01*
X15136665Y32947620D02*
X14660475Y32947620D01*
X14660475Y33947620D01*
X15136665Y33947620D01*
X16660475Y33471429D02*
X16803332Y33423810D01*
X16850951Y33376191D01*
X16898570Y33280953D01*
X16898570Y33138096D01*
X16850951Y33042858D01*
X16803332Y32995239D01*
X16708094Y32947620D01*
X16327141Y32947620D01*
X16327141Y33947620D01*
X16660475Y33947620D01*
X16755713Y33900000D01*
X16803332Y33852381D01*
X16850951Y33757143D01*
X16850951Y33661905D01*
X16803332Y33566667D01*
X16755713Y33519048D01*
X16660475Y33471429D01*
X16327141Y33471429D01*
X17517618Y33947620D02*
X17708094Y33947620D01*
X17803332Y33900000D01*
X17898570Y33804762D01*
X17946189Y33614286D01*
X17946189Y33280953D01*
X17898570Y33090477D01*
X17803332Y32995239D01*
X17708094Y32947620D01*
X17517618Y32947620D01*
X17422379Y32995239D01*
X17327141Y33090477D01*
X17279522Y33280953D01*
X17279522Y33614286D01*
X17327141Y33804762D01*
X17422379Y33900000D01*
X17517618Y33947620D01*
X18327141Y33233334D02*
X18803332Y33233334D01*
X18231903Y32947620D02*
X18565237Y33947620D01*
X18898570Y32947620D01*
X19803332Y32947620D02*
X19469999Y33423810D01*
X19231903Y32947620D02*
X19231903Y33947620D01*
X19612856Y33947620D01*
X19708094Y33900000D01*
X19755713Y33852381D01*
X19803332Y33757143D01*
X19803332Y33614286D01*
X19755713Y33519048D01*
X19708094Y33471429D01*
X19612856Y33423810D01*
X19231903Y33423810D01*
X20231903Y32947620D02*
X20231903Y33947620D01*
X20469999Y33947620D01*
X20612856Y33900000D01*
X20708094Y33804762D01*
X20755713Y33709524D01*
X20803332Y33519048D01*
X20803332Y33376191D01*
X20755713Y33185715D01*
X20708094Y33090477D01*
X20612856Y32995239D01*
X20469999Y32947620D01*
X20231903Y32947620D01*
X10327141Y31821429D02*
X10469999Y31773810D01*
X10517618Y31726191D01*
X10565237Y31630953D01*
X10565237Y31488096D01*
X10517618Y31392858D01*
X10469999Y31345239D01*
X10374760Y31297620D01*
X9993808Y31297620D01*
X9993808Y32297620D01*
X10327141Y32297620D01*
X10422379Y32250000D01*
X10469999Y32202381D01*
X10517618Y32107143D01*
X10517618Y32011905D01*
X10469999Y31916667D01*
X10422379Y31869048D01*
X10327141Y31821429D01*
X9993808Y31821429D01*
X11184284Y31773810D02*
X11184284Y31297620D01*
X10850951Y32297620D02*
X11184284Y31773810D01*
X11517618Y32297620D01*
X12565237Y31345239D02*
X12708094Y31297620D01*
X12946189Y31297620D01*
X13041427Y31345239D01*
X13089046Y31392858D01*
X13136665Y31488096D01*
X13136665Y31583334D01*
X13089046Y31678572D01*
X13041427Y31726191D01*
X12946189Y31773810D01*
X12755713Y31821429D01*
X12660475Y31869048D01*
X12612856Y31916667D01*
X12565237Y32011905D01*
X12565237Y32107143D01*
X12612856Y32202381D01*
X12660475Y32250000D01*
X12755713Y32297620D01*
X12993808Y32297620D01*
X13136665Y32250000D01*
X14231903Y31202381D02*
X14136665Y31250000D01*
X14041427Y31345239D01*
X13898570Y31488096D01*
X13803332Y31535715D01*
X13708094Y31535715D01*
X13755713Y31297620D02*
X13660475Y31345239D01*
X13565237Y31440477D01*
X13517618Y31630953D01*
X13517618Y31964286D01*
X13565237Y32154762D01*
X13660475Y32250000D01*
X13755713Y32297620D01*
X13946189Y32297620D01*
X14041427Y32250000D01*
X14136665Y32154762D01*
X14184284Y31964286D01*
X14184284Y31630953D01*
X14136665Y31440477D01*
X14041427Y31345239D01*
X13946189Y31297620D01*
X13755713Y31297620D01*
X14517618Y32297620D02*
X15184284Y32297620D01*
X14755713Y31297620D01*
X15565237Y31821429D02*
X15898570Y31821429D01*
X16041427Y31297620D02*
X15565237Y31297620D01*
X15565237Y32297620D01*
X16041427Y32297620D01*
X17136665Y31202381D02*
X17041427Y31250000D01*
X16946189Y31345239D01*
X16803332Y31488096D01*
X16708094Y31535715D01*
X16612856Y31535715D01*
X16660475Y31297620D02*
X16565237Y31345239D01*
X16469999Y31440477D01*
X16422379Y31630953D01*
X16422379Y31964286D01*
X16469999Y32154762D01*
X16565237Y32250000D01*
X16660475Y32297620D01*
X16850951Y32297620D01*
X16946189Y32250000D01*
X17041427Y32154762D01*
X17089046Y31964286D01*
X17089046Y31630953D01*
X17041427Y31440477D01*
X16946189Y31345239D01*
X16850951Y31297620D01*
X16660475Y31297620D01*
X17517618Y31821429D02*
X17850951Y31821429D01*
X17993808Y31297620D02*
X17517618Y31297620D01*
X17517618Y32297620D01*
X17993808Y32297620D01*
X10612856Y29695239D02*
X10755713Y29647620D01*
X10993808Y29647620D01*
X11089046Y29695239D01*
X11136665Y29742858D01*
X11184284Y29838096D01*
X11184284Y29933334D01*
X11136665Y30028572D01*
X11089046Y30076191D01*
X10993808Y30123810D01*
X10803332Y30171429D01*
X10708094Y30219048D01*
X10660475Y30266667D01*
X10612856Y30361905D01*
X10612856Y30457143D01*
X10660475Y30552381D01*
X10708094Y30600000D01*
X10803332Y30647620D01*
X11041427Y30647620D01*
X11184284Y30600000D01*
X11565237Y29695239D02*
X11708094Y29647620D01*
X11946189Y29647620D01*
X12041427Y29695239D01*
X12089046Y29742858D01*
X12136665Y29838096D01*
X12136665Y29933334D01*
X12089046Y30028572D01*
X12041427Y30076191D01*
X11946189Y30123810D01*
X11755713Y30171429D01*
X11660475Y30219048D01*
X11612856Y30266667D01*
X11565237Y30361905D01*
X11565237Y30457143D01*
X11612856Y30552381D01*
X11660475Y30600000D01*
X11755713Y30647620D01*
X11993808Y30647620D01*
X12136665Y30600000D01*
X12755713Y30647620D02*
X12946189Y30647620D01*
X13041427Y30600000D01*
X13136665Y30504762D01*
X13184284Y30314286D01*
X13184284Y29980953D01*
X13136665Y29790477D01*
X13041427Y29695239D01*
X12946189Y29647620D01*
X12755713Y29647620D01*
X12660475Y29695239D01*
X12565237Y29790477D01*
X12517618Y29980953D01*
X12517618Y30314286D01*
X12565237Y30504762D01*
X12660475Y30600000D01*
X12755713Y30647620D01*
X13612856Y29647620D02*
X13612856Y30647620D01*
X13993808Y30647620D01*
X14089046Y30600000D01*
X14136665Y30552381D01*
X14184284Y30457143D01*
X14184284Y30314286D01*
X14136665Y30219048D01*
X14089046Y30171429D01*
X13993808Y30123810D01*
X13612856Y30123810D01*
X14612856Y30028572D02*
X15374760Y30028572D01*
X15803332Y30552381D02*
X15850951Y30600000D01*
X15946189Y30647620D01*
X16184284Y30647620D01*
X16279522Y30600000D01*
X16327141Y30552381D01*
X16374760Y30457143D01*
X16374760Y30361905D01*
X16327141Y30219048D01*
X15755713Y29647620D01*
X16374760Y29647620D01*
X16946189Y30219048D02*
X16850951Y30266667D01*
X16803332Y30314286D01*
X16755713Y30409524D01*
X16755713Y30457143D01*
X16803332Y30552381D01*
X16850951Y30600000D01*
X16946189Y30647620D01*
X17136665Y30647620D01*
X17231903Y30600000D01*
X17279522Y30552381D01*
X17327141Y30457143D01*
X17327141Y30409524D01*
X17279522Y30314286D01*
X17231903Y30266667D01*
X17136665Y30219048D01*
X16946189Y30219048D01*
X16850951Y30171429D01*
X16803332Y30123810D01*
X16755713Y30028572D01*
X16755713Y29838096D01*
X16803332Y29742858D01*
X16850951Y29695239D01*
X16946189Y29647620D01*
X17136665Y29647620D01*
X17231903Y29695239D01*
X17279522Y29742858D01*
X17327141Y29838096D01*
X17327141Y30028572D01*
X17279522Y30123810D01*
X17231903Y30171429D01*
X17136665Y30219048D01*
%TO.C,U1*%
X11095000Y24375000D02*
X11095000Y23800000D01*
X16845000Y24375000D02*
X16845000Y23725000D01*
X16845000Y13725000D02*
X16845000Y14375000D01*
X11095000Y13725000D02*
X11095000Y14375000D01*
X11095000Y24375000D02*
X16845000Y24375000D01*
X11095000Y13725000D02*
X16845000Y13725000D01*
X11095000Y23800000D02*
X9495000Y23800000D01*
X13208095Y25847620D02*
X13208095Y25038096D01*
X13255714Y24942858D01*
X13303333Y24895239D01*
X13398571Y24847620D01*
X13589047Y24847620D01*
X13684285Y24895239D01*
X13731904Y24942858D01*
X13779523Y25038096D01*
X13779523Y25847620D01*
X14779523Y24847620D02*
X14208095Y24847620D01*
X14493809Y24847620D02*
X14493809Y25847620D01*
X14398571Y25704762D01*
X14303333Y25609524D01*
X14208095Y25561905D01*
%TD*%
%LPC*%
D11*
%TO.C,J1*%
X2540000Y35560000D03*
D12*
X2540000Y33020000D03*
X2540000Y30480000D03*
X2540000Y27940000D03*
X2540000Y25400000D03*
X2540000Y22860000D03*
X2540000Y20320000D03*
X2540000Y17780000D03*
X2540000Y15240000D03*
X2540000Y12700000D03*
X2540000Y10160000D03*
X2540000Y7620000D03*
X2540000Y5080000D03*
X2540000Y2540000D03*
%TD*%
%TO.C,J2*%
X25400000Y2540000D03*
X25400000Y5080000D03*
X25400000Y7620000D03*
X25400000Y10160000D03*
X25400000Y12700000D03*
X25400000Y15240000D03*
X25400000Y17780000D03*
X25400000Y20320000D03*
X25400000Y22860000D03*
X25400000Y25400000D03*
X25400000Y27940000D03*
X25400000Y30480000D03*
X25400000Y33020000D03*
D11*
X25400000Y35560000D03*
%TD*%
D13*
%TO.C,U1*%
X10370000Y23275000D03*
X10370000Y22625000D03*
X10370000Y21975000D03*
X10370000Y21325000D03*
X10370000Y20675000D03*
X10370000Y20025000D03*
X10370000Y19375000D03*
X10370000Y18725000D03*
X10370000Y18075000D03*
X10370000Y17425000D03*
X10370000Y16775000D03*
X10370000Y16125000D03*
X10370000Y15475000D03*
X10370000Y14825000D03*
X17570000Y14825000D03*
X17570000Y15475000D03*
X17570000Y16125000D03*
X17570000Y16775000D03*
X17570000Y17425000D03*
X17570000Y18075000D03*
X17570000Y18725000D03*
X17570000Y19375000D03*
X17570000Y20025000D03*
X17570000Y20675000D03*
X17570000Y21325000D03*
X17570000Y21975000D03*
X17570000Y22625000D03*
X17570000Y23275000D03*
%TD*%
M02*
