%TF.GenerationSoftware,KiCad,Pcbnew,5.1.4-3.fc31*%
%TF.CreationDate,2019-11-27T18:40:14+01:00*%
%TF.ProjectId,SSOP-28_5.3x10.2mm_P0.65,53534f50-2d32-4385-9f35-2e337831302e,1.0*%
%TF.SameCoordinates,PX791ddc0PY6350ce0*%
%TF.FileFunction,Soldermask,Top*%
%TF.FilePolarity,Negative*%
%FSLAX46Y46*%
G04 Gerber Fmt 4.6, Leading zero omitted, Abs format (unit mm)*
G04 Created by KiCad (PCBNEW 5.1.4-3.fc31) date 2019-11-27 18:40:14*
%MOMM*%
%LPD*%
G04 APERTURE LIST*
%ADD10C,0.150000*%
G04 APERTURE END LIST*
D10*
G36*
X25510443Y3434481D02*
G01*
X25576627Y3427963D01*
X25746466Y3376443D01*
X25902991Y3292778D01*
X25938729Y3263448D01*
X26040186Y3180186D01*
X26123448Y3078729D01*
X26152778Y3042991D01*
X26236443Y2886466D01*
X26287963Y2716627D01*
X26305359Y2540000D01*
X26287963Y2363373D01*
X26236443Y2193534D01*
X26152778Y2037009D01*
X26123448Y2001271D01*
X26040186Y1899814D01*
X25938729Y1816552D01*
X25902991Y1787222D01*
X25746466Y1703557D01*
X25576627Y1652037D01*
X25510442Y1645518D01*
X25444260Y1639000D01*
X25355740Y1639000D01*
X25289558Y1645518D01*
X25223373Y1652037D01*
X25053534Y1703557D01*
X24897009Y1787222D01*
X24861271Y1816552D01*
X24759814Y1899814D01*
X24676552Y2001271D01*
X24647222Y2037009D01*
X24563557Y2193534D01*
X24512037Y2363373D01*
X24494641Y2540000D01*
X24512037Y2716627D01*
X24563557Y2886466D01*
X24647222Y3042991D01*
X24676552Y3078729D01*
X24759814Y3180186D01*
X24861271Y3263448D01*
X24897009Y3292778D01*
X25053534Y3376443D01*
X25223373Y3427963D01*
X25289557Y3434481D01*
X25355740Y3441000D01*
X25444260Y3441000D01*
X25510443Y3434481D01*
X25510443Y3434481D01*
G37*
G36*
X2650443Y3434481D02*
G01*
X2716627Y3427963D01*
X2886466Y3376443D01*
X3042991Y3292778D01*
X3078729Y3263448D01*
X3180186Y3180186D01*
X3263448Y3078729D01*
X3292778Y3042991D01*
X3376443Y2886466D01*
X3427963Y2716627D01*
X3445359Y2540000D01*
X3427963Y2363373D01*
X3376443Y2193534D01*
X3292778Y2037009D01*
X3263448Y2001271D01*
X3180186Y1899814D01*
X3078729Y1816552D01*
X3042991Y1787222D01*
X2886466Y1703557D01*
X2716627Y1652037D01*
X2650442Y1645518D01*
X2584260Y1639000D01*
X2495740Y1639000D01*
X2429558Y1645518D01*
X2363373Y1652037D01*
X2193534Y1703557D01*
X2037009Y1787222D01*
X2001271Y1816552D01*
X1899814Y1899814D01*
X1816552Y2001271D01*
X1787222Y2037009D01*
X1703557Y2193534D01*
X1652037Y2363373D01*
X1634641Y2540000D01*
X1652037Y2716627D01*
X1703557Y2886466D01*
X1787222Y3042991D01*
X1816552Y3078729D01*
X1899814Y3180186D01*
X2001271Y3263448D01*
X2037009Y3292778D01*
X2193534Y3376443D01*
X2363373Y3427963D01*
X2429557Y3434481D01*
X2495740Y3441000D01*
X2584260Y3441000D01*
X2650443Y3434481D01*
X2650443Y3434481D01*
G37*
G36*
X2650443Y5974481D02*
G01*
X2716627Y5967963D01*
X2886466Y5916443D01*
X3042991Y5832778D01*
X3078729Y5803448D01*
X3180186Y5720186D01*
X3263448Y5618729D01*
X3292778Y5582991D01*
X3376443Y5426466D01*
X3427963Y5256627D01*
X3445359Y5080000D01*
X3427963Y4903373D01*
X3376443Y4733534D01*
X3292778Y4577009D01*
X3263448Y4541271D01*
X3180186Y4439814D01*
X3078729Y4356552D01*
X3042991Y4327222D01*
X2886466Y4243557D01*
X2716627Y4192037D01*
X2650443Y4185519D01*
X2584260Y4179000D01*
X2495740Y4179000D01*
X2429557Y4185519D01*
X2363373Y4192037D01*
X2193534Y4243557D01*
X2037009Y4327222D01*
X2001271Y4356552D01*
X1899814Y4439814D01*
X1816552Y4541271D01*
X1787222Y4577009D01*
X1703557Y4733534D01*
X1652037Y4903373D01*
X1634641Y5080000D01*
X1652037Y5256627D01*
X1703557Y5426466D01*
X1787222Y5582991D01*
X1816552Y5618729D01*
X1899814Y5720186D01*
X2001271Y5803448D01*
X2037009Y5832778D01*
X2193534Y5916443D01*
X2363373Y5967963D01*
X2429557Y5974481D01*
X2495740Y5981000D01*
X2584260Y5981000D01*
X2650443Y5974481D01*
X2650443Y5974481D01*
G37*
G36*
X25510443Y5974481D02*
G01*
X25576627Y5967963D01*
X25746466Y5916443D01*
X25902991Y5832778D01*
X25938729Y5803448D01*
X26040186Y5720186D01*
X26123448Y5618729D01*
X26152778Y5582991D01*
X26236443Y5426466D01*
X26287963Y5256627D01*
X26305359Y5080000D01*
X26287963Y4903373D01*
X26236443Y4733534D01*
X26152778Y4577009D01*
X26123448Y4541271D01*
X26040186Y4439814D01*
X25938729Y4356552D01*
X25902991Y4327222D01*
X25746466Y4243557D01*
X25576627Y4192037D01*
X25510443Y4185519D01*
X25444260Y4179000D01*
X25355740Y4179000D01*
X25289557Y4185519D01*
X25223373Y4192037D01*
X25053534Y4243557D01*
X24897009Y4327222D01*
X24861271Y4356552D01*
X24759814Y4439814D01*
X24676552Y4541271D01*
X24647222Y4577009D01*
X24563557Y4733534D01*
X24512037Y4903373D01*
X24494641Y5080000D01*
X24512037Y5256627D01*
X24563557Y5426466D01*
X24647222Y5582991D01*
X24676552Y5618729D01*
X24759814Y5720186D01*
X24861271Y5803448D01*
X24897009Y5832778D01*
X25053534Y5916443D01*
X25223373Y5967963D01*
X25289557Y5974481D01*
X25355740Y5981000D01*
X25444260Y5981000D01*
X25510443Y5974481D01*
X25510443Y5974481D01*
G37*
G36*
X25510442Y8514482D02*
G01*
X25576627Y8507963D01*
X25746466Y8456443D01*
X25902991Y8372778D01*
X25938729Y8343448D01*
X26040186Y8260186D01*
X26123448Y8158729D01*
X26152778Y8122991D01*
X26236443Y7966466D01*
X26287963Y7796627D01*
X26305359Y7620000D01*
X26287963Y7443373D01*
X26236443Y7273534D01*
X26152778Y7117009D01*
X26123448Y7081271D01*
X26040186Y6979814D01*
X25938729Y6896552D01*
X25902991Y6867222D01*
X25746466Y6783557D01*
X25576627Y6732037D01*
X25510442Y6725518D01*
X25444260Y6719000D01*
X25355740Y6719000D01*
X25289558Y6725518D01*
X25223373Y6732037D01*
X25053534Y6783557D01*
X24897009Y6867222D01*
X24861271Y6896552D01*
X24759814Y6979814D01*
X24676552Y7081271D01*
X24647222Y7117009D01*
X24563557Y7273534D01*
X24512037Y7443373D01*
X24494641Y7620000D01*
X24512037Y7796627D01*
X24563557Y7966466D01*
X24647222Y8122991D01*
X24676552Y8158729D01*
X24759814Y8260186D01*
X24861271Y8343448D01*
X24897009Y8372778D01*
X25053534Y8456443D01*
X25223373Y8507963D01*
X25289558Y8514482D01*
X25355740Y8521000D01*
X25444260Y8521000D01*
X25510442Y8514482D01*
X25510442Y8514482D01*
G37*
G36*
X2650442Y8514482D02*
G01*
X2716627Y8507963D01*
X2886466Y8456443D01*
X3042991Y8372778D01*
X3078729Y8343448D01*
X3180186Y8260186D01*
X3263448Y8158729D01*
X3292778Y8122991D01*
X3376443Y7966466D01*
X3427963Y7796627D01*
X3445359Y7620000D01*
X3427963Y7443373D01*
X3376443Y7273534D01*
X3292778Y7117009D01*
X3263448Y7081271D01*
X3180186Y6979814D01*
X3078729Y6896552D01*
X3042991Y6867222D01*
X2886466Y6783557D01*
X2716627Y6732037D01*
X2650442Y6725518D01*
X2584260Y6719000D01*
X2495740Y6719000D01*
X2429558Y6725518D01*
X2363373Y6732037D01*
X2193534Y6783557D01*
X2037009Y6867222D01*
X2001271Y6896552D01*
X1899814Y6979814D01*
X1816552Y7081271D01*
X1787222Y7117009D01*
X1703557Y7273534D01*
X1652037Y7443373D01*
X1634641Y7620000D01*
X1652037Y7796627D01*
X1703557Y7966466D01*
X1787222Y8122991D01*
X1816552Y8158729D01*
X1899814Y8260186D01*
X2001271Y8343448D01*
X2037009Y8372778D01*
X2193534Y8456443D01*
X2363373Y8507963D01*
X2429558Y8514482D01*
X2495740Y8521000D01*
X2584260Y8521000D01*
X2650442Y8514482D01*
X2650442Y8514482D01*
G37*
G36*
X25510443Y11054481D02*
G01*
X25576627Y11047963D01*
X25746466Y10996443D01*
X25902991Y10912778D01*
X25938729Y10883448D01*
X26040186Y10800186D01*
X26123448Y10698729D01*
X26152778Y10662991D01*
X26236443Y10506466D01*
X26287963Y10336627D01*
X26305359Y10160000D01*
X26287963Y9983373D01*
X26236443Y9813534D01*
X26152778Y9657009D01*
X26123448Y9621271D01*
X26040186Y9519814D01*
X25938729Y9436552D01*
X25902991Y9407222D01*
X25746466Y9323557D01*
X25576627Y9272037D01*
X25510443Y9265519D01*
X25444260Y9259000D01*
X25355740Y9259000D01*
X25289557Y9265519D01*
X25223373Y9272037D01*
X25053534Y9323557D01*
X24897009Y9407222D01*
X24861271Y9436552D01*
X24759814Y9519814D01*
X24676552Y9621271D01*
X24647222Y9657009D01*
X24563557Y9813534D01*
X24512037Y9983373D01*
X24494641Y10160000D01*
X24512037Y10336627D01*
X24563557Y10506466D01*
X24647222Y10662991D01*
X24676552Y10698729D01*
X24759814Y10800186D01*
X24861271Y10883448D01*
X24897009Y10912778D01*
X25053534Y10996443D01*
X25223373Y11047963D01*
X25289557Y11054481D01*
X25355740Y11061000D01*
X25444260Y11061000D01*
X25510443Y11054481D01*
X25510443Y11054481D01*
G37*
G36*
X2650443Y11054481D02*
G01*
X2716627Y11047963D01*
X2886466Y10996443D01*
X3042991Y10912778D01*
X3078729Y10883448D01*
X3180186Y10800186D01*
X3263448Y10698729D01*
X3292778Y10662991D01*
X3376443Y10506466D01*
X3427963Y10336627D01*
X3445359Y10160000D01*
X3427963Y9983373D01*
X3376443Y9813534D01*
X3292778Y9657009D01*
X3263448Y9621271D01*
X3180186Y9519814D01*
X3078729Y9436552D01*
X3042991Y9407222D01*
X2886466Y9323557D01*
X2716627Y9272037D01*
X2650443Y9265519D01*
X2584260Y9259000D01*
X2495740Y9259000D01*
X2429557Y9265519D01*
X2363373Y9272037D01*
X2193534Y9323557D01*
X2037009Y9407222D01*
X2001271Y9436552D01*
X1899814Y9519814D01*
X1816552Y9621271D01*
X1787222Y9657009D01*
X1703557Y9813534D01*
X1652037Y9983373D01*
X1634641Y10160000D01*
X1652037Y10336627D01*
X1703557Y10506466D01*
X1787222Y10662991D01*
X1816552Y10698729D01*
X1899814Y10800186D01*
X2001271Y10883448D01*
X2037009Y10912778D01*
X2193534Y10996443D01*
X2363373Y11047963D01*
X2429557Y11054481D01*
X2495740Y11061000D01*
X2584260Y11061000D01*
X2650443Y11054481D01*
X2650443Y11054481D01*
G37*
G36*
X25510443Y13594481D02*
G01*
X25576627Y13587963D01*
X25746466Y13536443D01*
X25902991Y13452778D01*
X25938729Y13423448D01*
X26040186Y13340186D01*
X26123448Y13238729D01*
X26152778Y13202991D01*
X26236443Y13046466D01*
X26287963Y12876627D01*
X26305359Y12700000D01*
X26287963Y12523373D01*
X26236443Y12353534D01*
X26152778Y12197009D01*
X26123448Y12161271D01*
X26040186Y12059814D01*
X25938729Y11976552D01*
X25902991Y11947222D01*
X25746466Y11863557D01*
X25576627Y11812037D01*
X25510443Y11805519D01*
X25444260Y11799000D01*
X25355740Y11799000D01*
X25289557Y11805519D01*
X25223373Y11812037D01*
X25053534Y11863557D01*
X24897009Y11947222D01*
X24861271Y11976552D01*
X24759814Y12059814D01*
X24676552Y12161271D01*
X24647222Y12197009D01*
X24563557Y12353534D01*
X24512037Y12523373D01*
X24494641Y12700000D01*
X24512037Y12876627D01*
X24563557Y13046466D01*
X24647222Y13202991D01*
X24676552Y13238729D01*
X24759814Y13340186D01*
X24861271Y13423448D01*
X24897009Y13452778D01*
X25053534Y13536443D01*
X25223373Y13587963D01*
X25289557Y13594481D01*
X25355740Y13601000D01*
X25444260Y13601000D01*
X25510443Y13594481D01*
X25510443Y13594481D01*
G37*
G36*
X2650443Y13594481D02*
G01*
X2716627Y13587963D01*
X2886466Y13536443D01*
X3042991Y13452778D01*
X3078729Y13423448D01*
X3180186Y13340186D01*
X3263448Y13238729D01*
X3292778Y13202991D01*
X3376443Y13046466D01*
X3427963Y12876627D01*
X3445359Y12700000D01*
X3427963Y12523373D01*
X3376443Y12353534D01*
X3292778Y12197009D01*
X3263448Y12161271D01*
X3180186Y12059814D01*
X3078729Y11976552D01*
X3042991Y11947222D01*
X2886466Y11863557D01*
X2716627Y11812037D01*
X2650443Y11805519D01*
X2584260Y11799000D01*
X2495740Y11799000D01*
X2429557Y11805519D01*
X2363373Y11812037D01*
X2193534Y11863557D01*
X2037009Y11947222D01*
X2001271Y11976552D01*
X1899814Y12059814D01*
X1816552Y12161271D01*
X1787222Y12197009D01*
X1703557Y12353534D01*
X1652037Y12523373D01*
X1634641Y12700000D01*
X1652037Y12876627D01*
X1703557Y13046466D01*
X1787222Y13202991D01*
X1816552Y13238729D01*
X1899814Y13340186D01*
X2001271Y13423448D01*
X2037009Y13452778D01*
X2193534Y13536443D01*
X2363373Y13587963D01*
X2429557Y13594481D01*
X2495740Y13601000D01*
X2584260Y13601000D01*
X2650443Y13594481D01*
X2650443Y13594481D01*
G37*
G36*
X2650443Y16134481D02*
G01*
X2716627Y16127963D01*
X2886466Y16076443D01*
X3042991Y15992778D01*
X3078729Y15963448D01*
X3180186Y15880186D01*
X3263448Y15778729D01*
X3292778Y15742991D01*
X3376443Y15586466D01*
X3427963Y15416627D01*
X3445359Y15240000D01*
X3427963Y15063373D01*
X3376443Y14893534D01*
X3292778Y14737009D01*
X3263448Y14701271D01*
X3180186Y14599814D01*
X3078729Y14516552D01*
X3042991Y14487222D01*
X2886466Y14403557D01*
X2716627Y14352037D01*
X2650443Y14345519D01*
X2584260Y14339000D01*
X2495740Y14339000D01*
X2429557Y14345519D01*
X2363373Y14352037D01*
X2193534Y14403557D01*
X2037009Y14487222D01*
X2001271Y14516552D01*
X1899814Y14599814D01*
X1816552Y14701271D01*
X1787222Y14737009D01*
X1703557Y14893534D01*
X1652037Y15063373D01*
X1634641Y15240000D01*
X1652037Y15416627D01*
X1703557Y15586466D01*
X1787222Y15742991D01*
X1816552Y15778729D01*
X1899814Y15880186D01*
X2001271Y15963448D01*
X2037009Y15992778D01*
X2193534Y16076443D01*
X2363373Y16127963D01*
X2429557Y16134481D01*
X2495740Y16141000D01*
X2584260Y16141000D01*
X2650443Y16134481D01*
X2650443Y16134481D01*
G37*
G36*
X25510443Y16134481D02*
G01*
X25576627Y16127963D01*
X25746466Y16076443D01*
X25902991Y15992778D01*
X25938729Y15963448D01*
X26040186Y15880186D01*
X26123448Y15778729D01*
X26152778Y15742991D01*
X26236443Y15586466D01*
X26287963Y15416627D01*
X26305359Y15240000D01*
X26287963Y15063373D01*
X26236443Y14893534D01*
X26152778Y14737009D01*
X26123448Y14701271D01*
X26040186Y14599814D01*
X25938729Y14516552D01*
X25902991Y14487222D01*
X25746466Y14403557D01*
X25576627Y14352037D01*
X25510443Y14345519D01*
X25444260Y14339000D01*
X25355740Y14339000D01*
X25289557Y14345519D01*
X25223373Y14352037D01*
X25053534Y14403557D01*
X24897009Y14487222D01*
X24861271Y14516552D01*
X24759814Y14599814D01*
X24676552Y14701271D01*
X24647222Y14737009D01*
X24563557Y14893534D01*
X24512037Y15063373D01*
X24494641Y15240000D01*
X24512037Y15416627D01*
X24563557Y15586466D01*
X24647222Y15742991D01*
X24676552Y15778729D01*
X24759814Y15880186D01*
X24861271Y15963448D01*
X24897009Y15992778D01*
X25053534Y16076443D01*
X25223373Y16127963D01*
X25289557Y16134481D01*
X25355740Y16141000D01*
X25444260Y16141000D01*
X25510443Y16134481D01*
X25510443Y16134481D01*
G37*
G36*
X18496000Y14549000D02*
G01*
X16644000Y14549000D01*
X16644000Y23551000D01*
X18496000Y23551000D01*
X18496000Y14549000D01*
X18496000Y14549000D01*
G37*
G36*
X11296000Y14549000D02*
G01*
X9444000Y14549000D01*
X9444000Y23551000D01*
X11296000Y23551000D01*
X11296000Y14549000D01*
X11296000Y14549000D01*
G37*
G36*
X25510442Y18674482D02*
G01*
X25576627Y18667963D01*
X25746466Y18616443D01*
X25902991Y18532778D01*
X25938729Y18503448D01*
X26040186Y18420186D01*
X26123448Y18318729D01*
X26152778Y18282991D01*
X26236443Y18126466D01*
X26287963Y17956627D01*
X26305359Y17780000D01*
X26287963Y17603373D01*
X26236443Y17433534D01*
X26152778Y17277009D01*
X26123448Y17241271D01*
X26040186Y17139814D01*
X25938729Y17056552D01*
X25902991Y17027222D01*
X25746466Y16943557D01*
X25576627Y16892037D01*
X25510442Y16885518D01*
X25444260Y16879000D01*
X25355740Y16879000D01*
X25289558Y16885518D01*
X25223373Y16892037D01*
X25053534Y16943557D01*
X24897009Y17027222D01*
X24861271Y17056552D01*
X24759814Y17139814D01*
X24676552Y17241271D01*
X24647222Y17277009D01*
X24563557Y17433534D01*
X24512037Y17603373D01*
X24494641Y17780000D01*
X24512037Y17956627D01*
X24563557Y18126466D01*
X24647222Y18282991D01*
X24676552Y18318729D01*
X24759814Y18420186D01*
X24861271Y18503448D01*
X24897009Y18532778D01*
X25053534Y18616443D01*
X25223373Y18667963D01*
X25289558Y18674482D01*
X25355740Y18681000D01*
X25444260Y18681000D01*
X25510442Y18674482D01*
X25510442Y18674482D01*
G37*
G36*
X2650442Y18674482D02*
G01*
X2716627Y18667963D01*
X2886466Y18616443D01*
X3042991Y18532778D01*
X3078729Y18503448D01*
X3180186Y18420186D01*
X3263448Y18318729D01*
X3292778Y18282991D01*
X3376443Y18126466D01*
X3427963Y17956627D01*
X3445359Y17780000D01*
X3427963Y17603373D01*
X3376443Y17433534D01*
X3292778Y17277009D01*
X3263448Y17241271D01*
X3180186Y17139814D01*
X3078729Y17056552D01*
X3042991Y17027222D01*
X2886466Y16943557D01*
X2716627Y16892037D01*
X2650442Y16885518D01*
X2584260Y16879000D01*
X2495740Y16879000D01*
X2429558Y16885518D01*
X2363373Y16892037D01*
X2193534Y16943557D01*
X2037009Y17027222D01*
X2001271Y17056552D01*
X1899814Y17139814D01*
X1816552Y17241271D01*
X1787222Y17277009D01*
X1703557Y17433534D01*
X1652037Y17603373D01*
X1634641Y17780000D01*
X1652037Y17956627D01*
X1703557Y18126466D01*
X1787222Y18282991D01*
X1816552Y18318729D01*
X1899814Y18420186D01*
X2001271Y18503448D01*
X2037009Y18532778D01*
X2193534Y18616443D01*
X2363373Y18667963D01*
X2429558Y18674482D01*
X2495740Y18681000D01*
X2584260Y18681000D01*
X2650442Y18674482D01*
X2650442Y18674482D01*
G37*
G36*
X2650443Y21214481D02*
G01*
X2716627Y21207963D01*
X2886466Y21156443D01*
X3042991Y21072778D01*
X3071964Y21049000D01*
X3180186Y20960186D01*
X3263448Y20858729D01*
X3292778Y20822991D01*
X3376443Y20666466D01*
X3427963Y20496627D01*
X3445359Y20320000D01*
X3427963Y20143373D01*
X3376443Y19973534D01*
X3292778Y19817009D01*
X3263448Y19781271D01*
X3180186Y19679814D01*
X3078729Y19596552D01*
X3042991Y19567222D01*
X2886466Y19483557D01*
X2716627Y19432037D01*
X2650443Y19425519D01*
X2584260Y19419000D01*
X2495740Y19419000D01*
X2429557Y19425519D01*
X2363373Y19432037D01*
X2193534Y19483557D01*
X2037009Y19567222D01*
X2001271Y19596552D01*
X1899814Y19679814D01*
X1816552Y19781271D01*
X1787222Y19817009D01*
X1703557Y19973534D01*
X1652037Y20143373D01*
X1634641Y20320000D01*
X1652037Y20496627D01*
X1703557Y20666466D01*
X1787222Y20822991D01*
X1816552Y20858729D01*
X1899814Y20960186D01*
X2008036Y21049000D01*
X2037009Y21072778D01*
X2193534Y21156443D01*
X2363373Y21207963D01*
X2429557Y21214481D01*
X2495740Y21221000D01*
X2584260Y21221000D01*
X2650443Y21214481D01*
X2650443Y21214481D01*
G37*
G36*
X25510443Y21214481D02*
G01*
X25576627Y21207963D01*
X25746466Y21156443D01*
X25902991Y21072778D01*
X25931964Y21049000D01*
X26040186Y20960186D01*
X26123448Y20858729D01*
X26152778Y20822991D01*
X26236443Y20666466D01*
X26287963Y20496627D01*
X26305359Y20320000D01*
X26287963Y20143373D01*
X26236443Y19973534D01*
X26152778Y19817009D01*
X26123448Y19781271D01*
X26040186Y19679814D01*
X25938729Y19596552D01*
X25902991Y19567222D01*
X25746466Y19483557D01*
X25576627Y19432037D01*
X25510443Y19425519D01*
X25444260Y19419000D01*
X25355740Y19419000D01*
X25289557Y19425519D01*
X25223373Y19432037D01*
X25053534Y19483557D01*
X24897009Y19567222D01*
X24861271Y19596552D01*
X24759814Y19679814D01*
X24676552Y19781271D01*
X24647222Y19817009D01*
X24563557Y19973534D01*
X24512037Y20143373D01*
X24494641Y20320000D01*
X24512037Y20496627D01*
X24563557Y20666466D01*
X24647222Y20822991D01*
X24676552Y20858729D01*
X24759814Y20960186D01*
X24868036Y21049000D01*
X24897009Y21072778D01*
X25053534Y21156443D01*
X25223373Y21207963D01*
X25289557Y21214481D01*
X25355740Y21221000D01*
X25444260Y21221000D01*
X25510443Y21214481D01*
X25510443Y21214481D01*
G37*
G36*
X25510442Y23754482D02*
G01*
X25576627Y23747963D01*
X25746466Y23696443D01*
X25902991Y23612778D01*
X25938729Y23583448D01*
X26040186Y23500186D01*
X26123448Y23398729D01*
X26152778Y23362991D01*
X26236443Y23206466D01*
X26287963Y23036627D01*
X26305359Y22860000D01*
X26287963Y22683373D01*
X26236443Y22513534D01*
X26152778Y22357009D01*
X26146205Y22349000D01*
X26040186Y22219814D01*
X25938729Y22136552D01*
X25902991Y22107222D01*
X25746466Y22023557D01*
X25576627Y21972037D01*
X25510443Y21965519D01*
X25444260Y21959000D01*
X25355740Y21959000D01*
X25289557Y21965519D01*
X25223373Y21972037D01*
X25053534Y22023557D01*
X24897009Y22107222D01*
X24861271Y22136552D01*
X24759814Y22219814D01*
X24653795Y22349000D01*
X24647222Y22357009D01*
X24563557Y22513534D01*
X24512037Y22683373D01*
X24494641Y22860000D01*
X24512037Y23036627D01*
X24563557Y23206466D01*
X24647222Y23362991D01*
X24676552Y23398729D01*
X24759814Y23500186D01*
X24861271Y23583448D01*
X24897009Y23612778D01*
X25053534Y23696443D01*
X25223373Y23747963D01*
X25289558Y23754482D01*
X25355740Y23761000D01*
X25444260Y23761000D01*
X25510442Y23754482D01*
X25510442Y23754482D01*
G37*
G36*
X2650442Y23754482D02*
G01*
X2716627Y23747963D01*
X2886466Y23696443D01*
X3042991Y23612778D01*
X3078729Y23583448D01*
X3180186Y23500186D01*
X3263448Y23398729D01*
X3292778Y23362991D01*
X3376443Y23206466D01*
X3427963Y23036627D01*
X3445359Y22860000D01*
X3427963Y22683373D01*
X3376443Y22513534D01*
X3292778Y22357009D01*
X3286205Y22349000D01*
X3180186Y22219814D01*
X3078729Y22136552D01*
X3042991Y22107222D01*
X2886466Y22023557D01*
X2716627Y21972037D01*
X2650443Y21965519D01*
X2584260Y21959000D01*
X2495740Y21959000D01*
X2429557Y21965519D01*
X2363373Y21972037D01*
X2193534Y22023557D01*
X2037009Y22107222D01*
X2001271Y22136552D01*
X1899814Y22219814D01*
X1793795Y22349000D01*
X1787222Y22357009D01*
X1703557Y22513534D01*
X1652037Y22683373D01*
X1634641Y22860000D01*
X1652037Y23036627D01*
X1703557Y23206466D01*
X1787222Y23362991D01*
X1816552Y23398729D01*
X1899814Y23500186D01*
X2001271Y23583448D01*
X2037009Y23612778D01*
X2193534Y23696443D01*
X2363373Y23747963D01*
X2429558Y23754482D01*
X2495740Y23761000D01*
X2584260Y23761000D01*
X2650442Y23754482D01*
X2650442Y23754482D01*
G37*
G36*
X25510443Y26294481D02*
G01*
X25576627Y26287963D01*
X25746466Y26236443D01*
X25902991Y26152778D01*
X25938729Y26123448D01*
X26040186Y26040186D01*
X26123448Y25938729D01*
X26152778Y25902991D01*
X26236443Y25746466D01*
X26287963Y25576627D01*
X26305359Y25400000D01*
X26287963Y25223373D01*
X26236443Y25053534D01*
X26152778Y24897009D01*
X26123448Y24861271D01*
X26040186Y24759814D01*
X25938729Y24676552D01*
X25902991Y24647222D01*
X25746466Y24563557D01*
X25576627Y24512037D01*
X25510442Y24505518D01*
X25444260Y24499000D01*
X25355740Y24499000D01*
X25289558Y24505518D01*
X25223373Y24512037D01*
X25053534Y24563557D01*
X24897009Y24647222D01*
X24861271Y24676552D01*
X24759814Y24759814D01*
X24676552Y24861271D01*
X24647222Y24897009D01*
X24563557Y25053534D01*
X24512037Y25223373D01*
X24494641Y25400000D01*
X24512037Y25576627D01*
X24563557Y25746466D01*
X24647222Y25902991D01*
X24676552Y25938729D01*
X24759814Y26040186D01*
X24861271Y26123448D01*
X24897009Y26152778D01*
X25053534Y26236443D01*
X25223373Y26287963D01*
X25289557Y26294481D01*
X25355740Y26301000D01*
X25444260Y26301000D01*
X25510443Y26294481D01*
X25510443Y26294481D01*
G37*
G36*
X2650443Y26294481D02*
G01*
X2716627Y26287963D01*
X2886466Y26236443D01*
X3042991Y26152778D01*
X3078729Y26123448D01*
X3180186Y26040186D01*
X3263448Y25938729D01*
X3292778Y25902991D01*
X3376443Y25746466D01*
X3427963Y25576627D01*
X3445359Y25400000D01*
X3427963Y25223373D01*
X3376443Y25053534D01*
X3292778Y24897009D01*
X3263448Y24861271D01*
X3180186Y24759814D01*
X3078729Y24676552D01*
X3042991Y24647222D01*
X2886466Y24563557D01*
X2716627Y24512037D01*
X2650442Y24505518D01*
X2584260Y24499000D01*
X2495740Y24499000D01*
X2429558Y24505518D01*
X2363373Y24512037D01*
X2193534Y24563557D01*
X2037009Y24647222D01*
X2001271Y24676552D01*
X1899814Y24759814D01*
X1816552Y24861271D01*
X1787222Y24897009D01*
X1703557Y25053534D01*
X1652037Y25223373D01*
X1634641Y25400000D01*
X1652037Y25576627D01*
X1703557Y25746466D01*
X1787222Y25902991D01*
X1816552Y25938729D01*
X1899814Y26040186D01*
X2001271Y26123448D01*
X2037009Y26152778D01*
X2193534Y26236443D01*
X2363373Y26287963D01*
X2429557Y26294481D01*
X2495740Y26301000D01*
X2584260Y26301000D01*
X2650443Y26294481D01*
X2650443Y26294481D01*
G37*
G36*
X25510442Y28834482D02*
G01*
X25576627Y28827963D01*
X25746466Y28776443D01*
X25902991Y28692778D01*
X25938729Y28663448D01*
X26040186Y28580186D01*
X26123448Y28478729D01*
X26152778Y28442991D01*
X26236443Y28286466D01*
X26287963Y28116627D01*
X26305359Y27940000D01*
X26287963Y27763373D01*
X26236443Y27593534D01*
X26152778Y27437009D01*
X26123448Y27401271D01*
X26040186Y27299814D01*
X25938729Y27216552D01*
X25902991Y27187222D01*
X25746466Y27103557D01*
X25576627Y27052037D01*
X25510442Y27045518D01*
X25444260Y27039000D01*
X25355740Y27039000D01*
X25289558Y27045518D01*
X25223373Y27052037D01*
X25053534Y27103557D01*
X24897009Y27187222D01*
X24861271Y27216552D01*
X24759814Y27299814D01*
X24676552Y27401271D01*
X24647222Y27437009D01*
X24563557Y27593534D01*
X24512037Y27763373D01*
X24494641Y27940000D01*
X24512037Y28116627D01*
X24563557Y28286466D01*
X24647222Y28442991D01*
X24676552Y28478729D01*
X24759814Y28580186D01*
X24861271Y28663448D01*
X24897009Y28692778D01*
X25053534Y28776443D01*
X25223373Y28827963D01*
X25289558Y28834482D01*
X25355740Y28841000D01*
X25444260Y28841000D01*
X25510442Y28834482D01*
X25510442Y28834482D01*
G37*
G36*
X2650442Y28834482D02*
G01*
X2716627Y28827963D01*
X2886466Y28776443D01*
X3042991Y28692778D01*
X3078729Y28663448D01*
X3180186Y28580186D01*
X3263448Y28478729D01*
X3292778Y28442991D01*
X3376443Y28286466D01*
X3427963Y28116627D01*
X3445359Y27940000D01*
X3427963Y27763373D01*
X3376443Y27593534D01*
X3292778Y27437009D01*
X3263448Y27401271D01*
X3180186Y27299814D01*
X3078729Y27216552D01*
X3042991Y27187222D01*
X2886466Y27103557D01*
X2716627Y27052037D01*
X2650442Y27045518D01*
X2584260Y27039000D01*
X2495740Y27039000D01*
X2429558Y27045518D01*
X2363373Y27052037D01*
X2193534Y27103557D01*
X2037009Y27187222D01*
X2001271Y27216552D01*
X1899814Y27299814D01*
X1816552Y27401271D01*
X1787222Y27437009D01*
X1703557Y27593534D01*
X1652037Y27763373D01*
X1634641Y27940000D01*
X1652037Y28116627D01*
X1703557Y28286466D01*
X1787222Y28442991D01*
X1816552Y28478729D01*
X1899814Y28580186D01*
X2001271Y28663448D01*
X2037009Y28692778D01*
X2193534Y28776443D01*
X2363373Y28827963D01*
X2429558Y28834482D01*
X2495740Y28841000D01*
X2584260Y28841000D01*
X2650442Y28834482D01*
X2650442Y28834482D01*
G37*
G36*
X25510442Y31374482D02*
G01*
X25576627Y31367963D01*
X25746466Y31316443D01*
X25902991Y31232778D01*
X25938729Y31203448D01*
X26040186Y31120186D01*
X26123448Y31018729D01*
X26152778Y30982991D01*
X26236443Y30826466D01*
X26287963Y30656627D01*
X26305359Y30480000D01*
X26287963Y30303373D01*
X26236443Y30133534D01*
X26152778Y29977009D01*
X26123448Y29941271D01*
X26040186Y29839814D01*
X25938729Y29756552D01*
X25902991Y29727222D01*
X25746466Y29643557D01*
X25576627Y29592037D01*
X25510442Y29585518D01*
X25444260Y29579000D01*
X25355740Y29579000D01*
X25289558Y29585518D01*
X25223373Y29592037D01*
X25053534Y29643557D01*
X24897009Y29727222D01*
X24861271Y29756552D01*
X24759814Y29839814D01*
X24676552Y29941271D01*
X24647222Y29977009D01*
X24563557Y30133534D01*
X24512037Y30303373D01*
X24494641Y30480000D01*
X24512037Y30656627D01*
X24563557Y30826466D01*
X24647222Y30982991D01*
X24676552Y31018729D01*
X24759814Y31120186D01*
X24861271Y31203448D01*
X24897009Y31232778D01*
X25053534Y31316443D01*
X25223373Y31367963D01*
X25289558Y31374482D01*
X25355740Y31381000D01*
X25444260Y31381000D01*
X25510442Y31374482D01*
X25510442Y31374482D01*
G37*
G36*
X2650442Y31374482D02*
G01*
X2716627Y31367963D01*
X2886466Y31316443D01*
X3042991Y31232778D01*
X3078729Y31203448D01*
X3180186Y31120186D01*
X3263448Y31018729D01*
X3292778Y30982991D01*
X3376443Y30826466D01*
X3427963Y30656627D01*
X3445359Y30480000D01*
X3427963Y30303373D01*
X3376443Y30133534D01*
X3292778Y29977009D01*
X3263448Y29941271D01*
X3180186Y29839814D01*
X3078729Y29756552D01*
X3042991Y29727222D01*
X2886466Y29643557D01*
X2716627Y29592037D01*
X2650442Y29585518D01*
X2584260Y29579000D01*
X2495740Y29579000D01*
X2429558Y29585518D01*
X2363373Y29592037D01*
X2193534Y29643557D01*
X2037009Y29727222D01*
X2001271Y29756552D01*
X1899814Y29839814D01*
X1816552Y29941271D01*
X1787222Y29977009D01*
X1703557Y30133534D01*
X1652037Y30303373D01*
X1634641Y30480000D01*
X1652037Y30656627D01*
X1703557Y30826466D01*
X1787222Y30982991D01*
X1816552Y31018729D01*
X1899814Y31120186D01*
X2001271Y31203448D01*
X2037009Y31232778D01*
X2193534Y31316443D01*
X2363373Y31367963D01*
X2429558Y31374482D01*
X2495740Y31381000D01*
X2584260Y31381000D01*
X2650442Y31374482D01*
X2650442Y31374482D01*
G37*
G36*
X25510442Y33914482D02*
G01*
X25576627Y33907963D01*
X25746466Y33856443D01*
X25902991Y33772778D01*
X25938729Y33743448D01*
X26040186Y33660186D01*
X26123448Y33558729D01*
X26152778Y33522991D01*
X26236443Y33366466D01*
X26287963Y33196627D01*
X26305359Y33020000D01*
X26287963Y32843373D01*
X26236443Y32673534D01*
X26152778Y32517009D01*
X26123448Y32481271D01*
X26040186Y32379814D01*
X25938729Y32296552D01*
X25902991Y32267222D01*
X25746466Y32183557D01*
X25576627Y32132037D01*
X25510443Y32125519D01*
X25444260Y32119000D01*
X25355740Y32119000D01*
X25289557Y32125519D01*
X25223373Y32132037D01*
X25053534Y32183557D01*
X24897009Y32267222D01*
X24861271Y32296552D01*
X24759814Y32379814D01*
X24676552Y32481271D01*
X24647222Y32517009D01*
X24563557Y32673534D01*
X24512037Y32843373D01*
X24494641Y33020000D01*
X24512037Y33196627D01*
X24563557Y33366466D01*
X24647222Y33522991D01*
X24676552Y33558729D01*
X24759814Y33660186D01*
X24861271Y33743448D01*
X24897009Y33772778D01*
X25053534Y33856443D01*
X25223373Y33907963D01*
X25289558Y33914482D01*
X25355740Y33921000D01*
X25444260Y33921000D01*
X25510442Y33914482D01*
X25510442Y33914482D01*
G37*
G36*
X2650442Y33914482D02*
G01*
X2716627Y33907963D01*
X2886466Y33856443D01*
X3042991Y33772778D01*
X3078729Y33743448D01*
X3180186Y33660186D01*
X3263448Y33558729D01*
X3292778Y33522991D01*
X3376443Y33366466D01*
X3427963Y33196627D01*
X3445359Y33020000D01*
X3427963Y32843373D01*
X3376443Y32673534D01*
X3292778Y32517009D01*
X3263448Y32481271D01*
X3180186Y32379814D01*
X3078729Y32296552D01*
X3042991Y32267222D01*
X2886466Y32183557D01*
X2716627Y32132037D01*
X2650443Y32125519D01*
X2584260Y32119000D01*
X2495740Y32119000D01*
X2429557Y32125519D01*
X2363373Y32132037D01*
X2193534Y32183557D01*
X2037009Y32267222D01*
X2001271Y32296552D01*
X1899814Y32379814D01*
X1816552Y32481271D01*
X1787222Y32517009D01*
X1703557Y32673534D01*
X1652037Y32843373D01*
X1634641Y33020000D01*
X1652037Y33196627D01*
X1703557Y33366466D01*
X1787222Y33522991D01*
X1816552Y33558729D01*
X1899814Y33660186D01*
X2001271Y33743448D01*
X2037009Y33772778D01*
X2193534Y33856443D01*
X2363373Y33907963D01*
X2429558Y33914482D01*
X2495740Y33921000D01*
X2584260Y33921000D01*
X2650442Y33914482D01*
X2650442Y33914482D01*
G37*
G36*
X26301000Y34659000D02*
G01*
X24499000Y34659000D01*
X24499000Y36461000D01*
X26301000Y36461000D01*
X26301000Y34659000D01*
X26301000Y34659000D01*
G37*
G36*
X3441000Y34659000D02*
G01*
X1639000Y34659000D01*
X1639000Y36461000D01*
X3441000Y36461000D01*
X3441000Y34659000D01*
X3441000Y34659000D01*
G37*
M02*
