%TF.GenerationSoftware,KiCad,Pcbnew,5.1.4-3.fc31*%
%TF.CreationDate,2019-11-27T18:40:14+01:00*%
%TF.ProjectId,SSOP-28_5.3x10.2mm_P0.65,53534f50-2d32-4385-9f35-2e337831302e,1.0*%
%TF.SameCoordinates,PX791ddc0PY6350ce0*%
%TF.FileFunction,Copper,L1,Top*%
%TF.FilePolarity,Positive*%
%FSLAX46Y46*%
G04 Gerber Fmt 4.6, Leading zero omitted, Abs format (unit mm)*
G04 Created by KiCad (PCBNEW 5.1.4-3.fc31) date 2019-11-27 18:40:14*
%MOMM*%
%LPD*%
G04 APERTURE LIST*
%TA.AperFunction,ComponentPad*%
%ADD10R,1.700000X1.700000*%
%TD*%
%TA.AperFunction,ComponentPad*%
%ADD11O,1.700000X1.700000*%
%TD*%
%TA.AperFunction,SMDPad,CuDef*%
%ADD12R,1.750000X0.450000*%
%TD*%
%TA.AperFunction,Conductor*%
%ADD13C,0.350000*%
%TD*%
G04 APERTURE END LIST*
D10*
%TO.P,J1,1*%
%TO.N,Net-(J1-Pad1)*%
X2540000Y35560000D03*
D11*
%TO.P,J1,2*%
%TO.N,Net-(J1-Pad2)*%
X2540000Y33020000D03*
%TO.P,J1,3*%
%TO.N,Net-(J1-Pad3)*%
X2540000Y30480000D03*
%TO.P,J1,4*%
%TO.N,Net-(J1-Pad4)*%
X2540000Y27940000D03*
%TO.P,J1,5*%
%TO.N,Net-(J1-Pad5)*%
X2540000Y25400000D03*
%TO.P,J1,6*%
%TO.N,Net-(J1-Pad6)*%
X2540000Y22860000D03*
%TO.P,J1,7*%
%TO.N,Net-(J1-Pad7)*%
X2540000Y20320000D03*
%TO.P,J1,8*%
%TO.N,Net-(J1-Pad8)*%
X2540000Y17780000D03*
%TO.P,J1,9*%
%TO.N,Net-(J1-Pad9)*%
X2540000Y15240000D03*
%TO.P,J1,10*%
%TO.N,Net-(J1-Pad10)*%
X2540000Y12700000D03*
%TO.P,J1,11*%
%TO.N,Net-(J1-Pad11)*%
X2540000Y10160000D03*
%TO.P,J1,12*%
%TO.N,Net-(J1-Pad12)*%
X2540000Y7620000D03*
%TO.P,J1,13*%
%TO.N,Net-(J1-Pad13)*%
X2540000Y5080000D03*
%TO.P,J1,14*%
%TO.N,Net-(J1-Pad14)*%
X2540000Y2540000D03*
%TD*%
%TO.P,J2,14*%
%TO.N,Net-(J2-Pad14)*%
X25400000Y2540000D03*
%TO.P,J2,13*%
%TO.N,Net-(J2-Pad13)*%
X25400000Y5080000D03*
%TO.P,J2,12*%
%TO.N,Net-(J2-Pad12)*%
X25400000Y7620000D03*
%TO.P,J2,11*%
%TO.N,Net-(J2-Pad11)*%
X25400000Y10160000D03*
%TO.P,J2,10*%
%TO.N,Net-(J2-Pad10)*%
X25400000Y12700000D03*
%TO.P,J2,9*%
%TO.N,Net-(J2-Pad9)*%
X25400000Y15240000D03*
%TO.P,J2,8*%
%TO.N,Net-(J2-Pad8)*%
X25400000Y17780000D03*
%TO.P,J2,7*%
%TO.N,Net-(J2-Pad7)*%
X25400000Y20320000D03*
%TO.P,J2,6*%
%TO.N,Net-(J2-Pad6)*%
X25400000Y22860000D03*
%TO.P,J2,5*%
%TO.N,Net-(J2-Pad5)*%
X25400000Y25400000D03*
%TO.P,J2,4*%
%TO.N,Net-(J2-Pad4)*%
X25400000Y27940000D03*
%TO.P,J2,3*%
%TO.N,Net-(J2-Pad3)*%
X25400000Y30480000D03*
%TO.P,J2,2*%
%TO.N,Net-(J2-Pad2)*%
X25400000Y33020000D03*
D10*
%TO.P,J2,1*%
%TO.N,Net-(J2-Pad1)*%
X25400000Y35560000D03*
%TD*%
D12*
%TO.P,U1,1*%
%TO.N,Net-(J1-Pad1)*%
X10370000Y23275000D03*
%TO.P,U1,2*%
%TO.N,Net-(J1-Pad2)*%
X10370000Y22625000D03*
%TO.P,U1,3*%
%TO.N,Net-(J1-Pad3)*%
X10370000Y21975000D03*
%TO.P,U1,4*%
%TO.N,Net-(J1-Pad4)*%
X10370000Y21325000D03*
%TO.P,U1,5*%
%TO.N,Net-(J1-Pad5)*%
X10370000Y20675000D03*
%TO.P,U1,6*%
%TO.N,Net-(J1-Pad6)*%
X10370000Y20025000D03*
%TO.P,U1,7*%
%TO.N,Net-(J1-Pad7)*%
X10370000Y19375000D03*
%TO.P,U1,8*%
%TO.N,Net-(J1-Pad8)*%
X10370000Y18725000D03*
%TO.P,U1,9*%
%TO.N,Net-(J1-Pad9)*%
X10370000Y18075000D03*
%TO.P,U1,10*%
%TO.N,Net-(J1-Pad10)*%
X10370000Y17425000D03*
%TO.P,U1,11*%
%TO.N,Net-(J1-Pad11)*%
X10370000Y16775000D03*
%TO.P,U1,12*%
%TO.N,Net-(J1-Pad12)*%
X10370000Y16125000D03*
%TO.P,U1,13*%
%TO.N,Net-(J1-Pad13)*%
X10370000Y15475000D03*
%TO.P,U1,14*%
%TO.N,Net-(J1-Pad14)*%
X10370000Y14825000D03*
%TO.P,U1,15*%
%TO.N,Net-(J2-Pad14)*%
X17570000Y14825000D03*
%TO.P,U1,16*%
%TO.N,Net-(J2-Pad13)*%
X17570000Y15475000D03*
%TO.P,U1,17*%
%TO.N,Net-(J2-Pad12)*%
X17570000Y16125000D03*
%TO.P,U1,18*%
%TO.N,Net-(J2-Pad11)*%
X17570000Y16775000D03*
%TO.P,U1,19*%
%TO.N,Net-(J2-Pad10)*%
X17570000Y17425000D03*
%TO.P,U1,20*%
%TO.N,Net-(J2-Pad9)*%
X17570000Y18075000D03*
%TO.P,U1,21*%
%TO.N,Net-(J2-Pad8)*%
X17570000Y18725000D03*
%TO.P,U1,22*%
%TO.N,Net-(J2-Pad7)*%
X17570000Y19375000D03*
%TO.P,U1,23*%
%TO.N,Net-(J2-Pad6)*%
X17570000Y20025000D03*
%TO.P,U1,24*%
%TO.N,Net-(J2-Pad5)*%
X17570000Y20675000D03*
%TO.P,U1,25*%
%TO.N,Net-(J2-Pad4)*%
X17570000Y21325000D03*
%TO.P,U1,26*%
%TO.N,Net-(J2-Pad3)*%
X17570000Y21975000D03*
%TO.P,U1,27*%
%TO.N,Net-(J2-Pad2)*%
X17570000Y22625000D03*
%TO.P,U1,28*%
%TO.N,Net-(J2-Pad1)*%
X17570000Y23275000D03*
%TD*%
D13*
%TO.N,Net-(J1-Pad1)*%
X10370000Y23275000D02*
X10370000Y30270000D01*
X10370000Y30270000D02*
X5080000Y35560000D01*
X2540000Y35560000D02*
X5080000Y35560000D01*
%TO.N,Net-(J1-Pad2)*%
X9119700Y22625000D02*
X10370000Y22625000D01*
X2540000Y33020000D02*
X5207000Y33020000D01*
X9119700Y29107300D02*
X9119700Y22625000D01*
X5207000Y33020000D02*
X9119700Y29107300D01*
%TO.N,Net-(J1-Pad3)*%
X8928500Y21975000D02*
X10370000Y21975000D01*
X8393900Y27547100D02*
X8393900Y22509600D01*
X2540000Y30480000D02*
X5461000Y30480000D01*
X8393900Y22509600D02*
X8928500Y21975000D01*
X5461000Y30480000D02*
X8393900Y27547100D01*
%TO.N,Net-(J1-Pad4)*%
X5080000Y27940000D02*
X7797100Y25222900D01*
X7797100Y25222900D02*
X7797100Y22316000D01*
X7797100Y22316000D02*
X8788100Y21325000D01*
X8788100Y21325000D02*
X10370000Y21325000D01*
X2540000Y27940000D02*
X5080000Y27940000D01*
%TO.N,Net-(J1-Pad5)*%
X9119700Y20675000D02*
X10370000Y20675000D01*
X5207000Y25400000D02*
X7247090Y23359910D01*
X8638000Y20675000D02*
X9119700Y20675000D01*
X7247090Y23359910D02*
X7247090Y22065910D01*
X2540000Y25400000D02*
X5207000Y25400000D01*
X7247090Y22065910D02*
X8638000Y20675000D01*
%TO.N,Net-(J1-Pad6)*%
X5080000Y22860000D02*
X7915000Y20025000D01*
X7915000Y20025000D02*
X10370000Y20025000D01*
X2540000Y22860000D02*
X5080000Y22860000D01*
%TO.N,Net-(J1-Pad7)*%
X5080000Y20320000D02*
X6025000Y19375000D01*
X6025000Y19375000D02*
X10370000Y19375000D01*
X2540000Y20320000D02*
X5080000Y20320000D01*
%TO.N,Net-(J1-Pad8)*%
X5080000Y17780000D02*
X6025000Y18725000D01*
X6025000Y18725000D02*
X10370000Y18725000D01*
X2540000Y17780000D02*
X5080000Y17780000D01*
%TO.N,Net-(J1-Pad9)*%
X5080000Y15240000D02*
X7915000Y18075000D01*
X7915000Y18075000D02*
X10370000Y18075000D01*
X2540000Y15240000D02*
X5080000Y15240000D01*
%TO.N,Net-(J1-Pad10)*%
X10370000Y17425000D02*
X8592400Y17425000D01*
X2540000Y12700000D02*
X5080000Y12700000D01*
X5080000Y13902330D02*
X8592400Y17414730D01*
X8592400Y17414730D02*
X8592400Y17425000D01*
X5080000Y12700000D02*
X5080000Y13902330D01*
%TO.N,Net-(J1-Pad11)*%
X4285100Y10160000D02*
X2540000Y10160000D01*
X8730500Y16775000D02*
X6682700Y14727200D01*
X10370000Y16775000D02*
X8730500Y16775000D01*
X6682700Y11762700D02*
X5080000Y10160000D01*
X6682700Y14727200D02*
X6682700Y11762700D01*
X5080000Y10160000D02*
X4285100Y10160000D01*
%TO.N,Net-(J1-Pad12)*%
X7233000Y9265000D02*
X7233000Y14499200D01*
X7233000Y14499200D02*
X8858800Y16125000D01*
X2540000Y7620000D02*
X5588000Y7620000D01*
X8858800Y16125000D02*
X10370000Y16125000D01*
X5588000Y7620000D02*
X7233000Y9265000D01*
%TO.N,Net-(J1-Pad13)*%
X8989300Y15475000D02*
X8475600Y14961300D01*
X8475600Y14961300D02*
X8475600Y8475600D01*
X4285100Y5080000D02*
X2540000Y5080000D01*
X10370000Y15475000D02*
X8989300Y15475000D01*
X8475600Y8475600D02*
X5080000Y5080000D01*
X5080000Y5080000D02*
X4285100Y5080000D01*
%TO.N,Net-(J1-Pad14)*%
X10370000Y14825000D02*
X9119700Y14825000D01*
X5080000Y2540000D02*
X9119700Y6579700D01*
X9119700Y6579700D02*
X9119700Y14825000D01*
X2540000Y2540000D02*
X5080000Y2540000D01*
%TO.N,Net-(J2-Pad14)*%
X22860000Y2540000D02*
X17570000Y7830000D01*
X17570000Y7830000D02*
X17570000Y14825000D01*
X25400000Y2540000D02*
X22860000Y2540000D01*
%TO.N,Net-(J2-Pad13)*%
X18820300Y15475000D02*
X17570000Y15475000D01*
X18820300Y8738700D02*
X18820300Y15475000D01*
X25400000Y5080000D02*
X22479000Y5080000D01*
X22479000Y5080000D02*
X18820300Y8738700D01*
%TO.N,Net-(J2-Pad12)*%
X18977800Y16125000D02*
X17570000Y16125000D01*
X19782700Y15320100D02*
X18977800Y16125000D01*
X25400000Y7620000D02*
X21717000Y7620000D01*
X19782700Y9554300D02*
X19782700Y15320100D01*
X21717000Y7620000D02*
X19782700Y9554300D01*
%TO.N,Net-(J2-Pad11)*%
X22860000Y10160000D02*
X20608100Y12411900D01*
X20608100Y12411900D02*
X20608100Y15302400D01*
X20608100Y15302400D02*
X19135500Y16775000D01*
X19135500Y16775000D02*
X17570000Y16775000D01*
X25400000Y10160000D02*
X22860000Y10160000D01*
%TO.N,Net-(J2-Pad10)*%
X22860000Y12700000D02*
X22860000Y13863900D01*
X22860000Y13863900D02*
X19298900Y17425000D01*
X19298900Y17425000D02*
X18820300Y17425000D01*
X17570000Y17425000D02*
X18820300Y17425000D01*
X25400000Y12700000D02*
X22860000Y12700000D01*
%TO.N,Net-(J2-Pad9)*%
X22860000Y15240000D02*
X20025000Y18075000D01*
X20025000Y18075000D02*
X17570000Y18075000D01*
X25400000Y15240000D02*
X22860000Y15240000D01*
%TO.N,Net-(J2-Pad8)*%
X22860000Y17780000D02*
X21915000Y18725000D01*
X21915000Y18725000D02*
X17570000Y18725000D01*
X25400000Y17780000D02*
X22860000Y17780000D01*
%TO.N,Net-(J2-Pad7)*%
X22860000Y20320000D02*
X21915000Y19375000D01*
X21915000Y19375000D02*
X17570000Y19375000D01*
X25400000Y20320000D02*
X22860000Y20320000D01*
%TO.N,Net-(J2-Pad6)*%
X22860000Y22860000D02*
X20025000Y20025000D01*
X20025000Y20025000D02*
X17570000Y20025000D01*
X25400000Y22860000D02*
X22860000Y22860000D01*
%TO.N,Net-(J2-Pad5)*%
X19428100Y20675000D02*
X17570000Y20675000D01*
X25400000Y25400000D02*
X22860000Y25400000D01*
X22860000Y24106900D02*
X19428100Y20675000D01*
X22860000Y25400000D02*
X22860000Y24106900D01*
%TO.N,Net-(J2-Pad4)*%
X18820300Y21325000D02*
X19256600Y21325000D01*
X19256600Y21325000D02*
X21799100Y23867500D01*
X21799100Y23867500D02*
X21799100Y26879100D01*
X21799100Y26879100D02*
X22860000Y27940000D01*
X17570000Y21325000D02*
X18820300Y21325000D01*
X25400000Y27940000D02*
X22860000Y27940000D01*
%TO.N,Net-(J2-Pad3)*%
X22860100Y30480000D02*
X21054400Y28674300D01*
X21054400Y28674300D02*
X21054400Y23948200D01*
X21054400Y23948200D02*
X19081200Y21975000D01*
X19081200Y21975000D02*
X17570000Y21975000D01*
X22860100Y30480000D02*
X22860000Y30480000D01*
X25400000Y30480000D02*
X22860100Y30480000D01*
%TO.N,Net-(J2-Pad2)*%
X19954300Y30495300D02*
X19954300Y23628600D01*
X25400000Y33020000D02*
X22479000Y33020000D01*
X18950700Y22625000D02*
X17570000Y22625000D01*
X19954300Y23628600D02*
X18950700Y22625000D01*
X22479000Y33020000D02*
X19954300Y30495300D01*
%TO.N,Net-(J2-Pad1)*%
X17570000Y23275000D02*
X18820300Y23275000D01*
X22860000Y35560000D02*
X18820300Y31520300D01*
X18820300Y31520300D02*
X18820300Y23275000D01*
X25400000Y35560000D02*
X22860000Y35560000D01*
%TD*%
M02*
